<?xml version="1.0" standalone="no"?>
<!DOCTYPE svg PUBLIC "-//W3C//DTD SVG 1.1//EN" "http://www.w3.org/Graphics/SVG/1.1/DTD/svg11.dtd" >
<svg>
<metadata>
Created by FontForge 20090914 at Tue Sep  3 08:51:53 2019
 By www-data
ParaGraph JV
</metadata>
<defs>
<font id="Hermes" horiz-adv-x="448" >
  <font-face 
    font-family="Hermes"
    font-weight="400"
    font-stretch="normal"
    units-per-em="1000"
    panose-1="0 0 0 0 0 0 0 0 0 0"
    ascent="800"
    descent="-200"
    x-height="556"
    cap-height="700.001"
    bbox="-20.001 -280 849 905"
    underline-thickness="50"
    underline-position="-75"
    unicode-range="U+0020-U+2122"
  />
<missing-glyph horiz-adv-x="720" 
d="M45 0v720h630v-720h-630zM630 45v630h-540v-630h540z" />
    <glyph glyph-name=".notdef" horiz-adv-x="720" 
d="M45 0v720h630v-720h-630zM630 45v630h-540v-630h540z" />
    <glyph glyph-name="space" unicode=" " horiz-adv-x="300" 
 />
    <glyph glyph-name="exclam" unicode="!" horiz-adv-x="248" 
d="M145 179h-41.999c-8 0 -13.333 2.33301 -16 7s-4.66699 11 -6 19l-26 151c-0.666992 4.66699 -1 9.66699 -1 15c-2.66699 20.667 -4 33 -4 37v257c0 12 1.33301 20 4 24c5.33301 7.33301 15.666 11 30.999 11h78c15.333 0 25 -2.83301 29 -8.5s6 -14.5 6 -26.5v-257
c0 -8 -0.833008 -18 -2.5 -30s-2.5 -19.333 -2.5 -22l-26 -151c-1.33301 -8 -3.33301 -14.333 -6 -19s-8 -7 -16 -7zM198.001 117v-89c0 -12 -2.5 -19.667 -7.5 -23s-11.833 -5 -20.5 -5h-92c-12 0 -19.667 2.5 -23 7.5s-5 11.833 -5 20.5v89c0 12 2.5 19.667 7.5 23
s11.833 5 20.5 5h92c12 0 19.667 -2.5 23 -7.5s5 -11.833 5 -20.5z" />
    <glyph glyph-name="quotedbl" unicode="&#x22;" horiz-adv-x="394" 
d="M129 440h-56c-3.33301 0 -7 1.33301 -11 4s-6 6.66699 -6 12l-16 230c-1.33301 9.33301 3 14 13 14h96c10 0 14.333 -4.66699 13 -14l-16 -230c0 -10.667 -5.66699 -16 -17 -16zM321 440h-56c-3.33301 0 -7 1.33301 -11 4s-6 6.66699 -6 12l-16 230
c-1.33301 9.33301 3 14 13 14h96c10 0 14.333 -4.66699 13 -14l-16 -230c0 -10.667 -5.66699 -16 -17 -16z" />
    <glyph glyph-name="numbersign" unicode="#" horiz-adv-x="579" 
d="M292 680l-25.998 -186h102l26 186c0.666992 5.33301 1.33398 8.66602 2.00098 9.99902c3.33301 6.66699 10.333 10 21 10h45c15.333 0 22.333 -6.66699 21 -20l-26 -186h70c14 0 20 -6.66699 18 -20l-5 -40c-1.33301 -13.333 -9.33301 -20 -24 -20h-70l-19 -128h71
c14 0 20 -6.66699 18 -20l-5 -40c-1.33301 -13.333 -9.33301 -20 -24 -20h-71l-26 -186c-0.666992 -5.33301 -1.33398 -8.66602 -2.00098 -9.99902c-3.33301 -6.66699 -10.333 -10 -21 -10h-45c-15.333 0 -22.333 6.66699 -21 20l26 186h-102l-26 -186
c-0.666992 -5.33301 -1.33398 -8.66602 -2.00098 -9.99902c-3.33301 -6.66699 -10.333 -10 -21 -10h-45c-15.333 0 -22.333 6.66699 -21 20l26 186h-78c-13.333 0 -19.333 6.66699 -18 20l5 40c1.33301 6 2.66602 10 3.99902 12c4 5.33301 10.667 8 20 8h78l19 128h-79
c-13.333 0 -19.333 6.66699 -18 20l5 40c1.33301 6 2.66602 10 3.99902 12c4 5.33301 10.667 8 20 8h79l26 186c0.666992 5.33301 1.33398 8.66602 2.00098 9.99902c3.33301 6.66699 10.333 10 21 10h45c15.333 0 22.333 -6.66699 21 -20zM236.002 286h102l19 128h-102z" />
    <glyph glyph-name="dollar" unicode="$" horiz-adv-x="481" 
d="M185 679l-0.000976562 50.999c0 10 1.83301 16.5 5.5 19.5s9.83398 4.5 18.501 4.5h63c10 0 16.5 -2 19.5 -6s4.5 -10 4.5 -18v-47c20 0 43.167 -2.83301 69.5 -8.5s39.5 -14.167 39.5 -25.5v-91c0 -9.33301 -4.33301 -14 -13 -14c-14.667 0 -39 5.33301 -73 16
c-17.333 5.33301 -38.666 8 -63.999 8c-22.667 0 -40 -3.83301 -52 -11.5s-18 -19.5 -18 -35.5c0 -15.333 7.33301 -29.666 22 -42.999c2.66699 -2.66699 34.334 -23 95.001 -61c46.667 -29.333 81 -58.666 103 -87.999c27.333 -36.667 41 -79 41 -127
c0 -52.667 -17 -95.334 -51 -128.001c-25.333 -24.667 -58.333 -42 -99 -52v-55c0 -10 -2.16699 -16.5 -6.5 -19.5s-10.166 -4.5 -17.499 -4.5h-63c-10 0 -16.5 2 -19.5 6s-4.5 10 -4.5 18v50c-60 0 -100 4.33301 -120 13c-12.667 5.33301 -19 13.333 -19 24v86
c0 10.667 5.33301 16 16 16h6c6 0 14.333 -1.83301 25 -5.5s20.167 -6.16699 28.5 -7.5s20.666 -3 36.999 -5s29.166 -3 38.499 -3c33.333 0 58.166 6.66699 74.499 20s24.5 29.666 24.5 48.999c0 20.667 -7.33301 39 -22 55c-8 9.33301 -41.333 32.5 -100 69.5
s-96.5 68.5 -113.5 94.5s-25.5 55.333 -25.5 88c0 46.667 13.5 86.334 40.5 119.001s63.5 49 109.5 49z" />
    <glyph glyph-name="percent" unicode="%" horiz-adv-x="602" 
d="M145 705c43.333 0 72.5 -11.667 87.5 -35s22.5 -71.333 22.5 -144s-7.33301 -120.667 -22 -144s-44 -35 -88 -35c-43.333 0 -72.5 11.667 -87.5 35s-22.5 71.333 -22.5 144s7.33301 120.667 22 144s44 35 88 35zM145 623c-8.66699 0 -14.5 -6.16699 -17.5 -18.5
s-4.5 -29.166 -4.5 -50.499v-28c0 -39.333 0.833008 -65.333 2.5 -78s8.16699 -19 19.5 -19c8.66699 0 14.5 6.16699 17.5 18.5s4.5 29.166 4.5 50.499v28v19c0 34 -1.66699 55.5 -5 64.5s-9 13.5 -17 13.5zM457 350c43.333 0 72.5 -11.667 87.5 -35s22.5 -71.333 22.5 -144
s-7.33301 -120.667 -22 -144s-44 -35 -88 -35c-43.333 0 -72.5 11.667 -87.5 35s-22.5 71.333 -22.5 144s7.33301 120.667 22 144s44 35 88 35zM457 268c-8.66699 0 -14.5 -6.16699 -17.5 -18.5s-4.5 -29.166 -4.5 -50.499v-28c0 -39.333 0.833008 -65.333 2.5 -78
s8.16699 -19 19.5 -19c8.66699 0 14.5 6.16699 17.5 18.5s4.5 29.166 4.5 50.499v28v19c0 34 -1.66699 55.5 -5 64.5s-9 13.5 -17 13.5zM522 663l-386 -672.001c-4.66699 -8.66699 -11.667 -13 -21 -13c-6 0 -11.333 1.33301 -16 4l-19 10c-6.66699 4 -10 10.667 -10 20
c0 4.66699 1.33301 10.334 4 17.001l385 667c5.33301 10 11.666 15 18.999 15c2.66699 0 7.33398 -1.33301 14.001 -4l23 -11c7.33301 -3.33301 11 -9.66602 11 -18.999c0 -4.66699 -1.33301 -9.33398 -4 -14.001z" />
    <glyph glyph-name="ampersand" unicode="&#x26;" horiz-adv-x="545" 
d="M392 383l69.999 -0.000976562c12 0 19.667 -2.5 23 -7.5s5 -11.833 5 -20.5v-30v-26c0 -16.667 -0.333008 -31.5 -1 -44.5s-2.33398 -26.333 -5.00098 -40s-6 -26.5 -10 -38.5s-6.66699 -22 -8 -30v-8c0.666992 -4 3.83398 -7.66699 9.50098 -11s10.834 -5 15.501 -5h12
c8 0 13.667 -2.83301 17 -8.5s5 -9.83398 5 -12.501v-81c0 -8.66699 -1.66699 -15.5 -5 -20.5s-11 -7.5 -23 -7.5h-33c-23.333 0 -45 9 -65 27c-7.33301 6.66699 -13.333 10 -18 10c-0.666992 0 -3.66699 -1.33301 -9 -4c-17.333 -10.667 -38.5 -18.834 -63.5 -24.501
s-49.167 -8.5 -72.5 -8.5c-73.333 0 -127.666 25 -162.999 75c-28.667 40.667 -43 95 -43 163c0 44.667 10.667 85.334 32 122.001c14.667 25.333 32 45.666 52 60.999c6 4 9 7.66699 9 11c0 10.667 -7 26.334 -21 47.001s-21 47.334 -21 80.001
c0 49.333 15.5 88.833 46.5 118.5s73.167 44.5 126.5 44.5c36.667 0 69.167 -3.66699 97.5 -11s43.166 -16.333 44.499 -27v-9v-60c0 -12.667 -2.33301 -21 -7 -25s-9.66699 -6 -15 -6c-2.66699 0 -5.66699 0.333008 -9 1s-9.33301 2.33398 -18 5.00098
c-13.333 4.66699 -24.5 7.83398 -33.5 9.50098s-19.167 2.5 -30.5 2.5c-19.333 0 -34.833 -4.16699 -46.5 -12.5s-17.5 -20.5 -17.5 -36.5c0 -18 3.33301 -36.667 10 -56s15.667 -38.333 27 -57l82 -136c7.33301 -12.667 11.833 -19.834 13.5 -21.501s4.16699 -2.5 7.5 -2.5
c2 0 3.66699 2 5 6v77c0 8.66699 1.66699 15.5 5 20.5s11 7.5 23 7.5zM290.999 139.999l-82 136c-2.66699 4.66699 -6 9.66699 -10 15c-0.666992 1.33301 -2 3 -4 5c-4.66699 0 -9.66699 -7.66699 -15 -23s-8 -31.333 -8 -48c0 -35.333 7 -63 21 -83s34 -30 60 -30
c10 0 19.833 1.33301 29.5 4s14.5 6 14.5 10z" />
    <glyph glyph-name="quotesingle" unicode="'" horiz-adv-x="202" 
d="M129 440h-56c-3.33301 0 -7 1.33301 -11 4s-6 6.66699 -6 12l-16 230c-1.33301 9.33301 3 14 13 14h96c10 0 14.333 -4.66699 13 -14l-16 -230c0 -10.667 -5.66699 -16 -17 -16z" />
    <glyph glyph-name="parenleft" unicode="(" horiz-adv-x="361" 
d="M188 294c0 -42 5.66699 -82.668 17 -122.001c16 -55.333 41.667 -102.666 77 -141.999l19 -19.5c6.66699 -7 10 -13.833 10 -20.5v-101c0 -11.333 -2.66699 -17 -8 -17c-6.66699 0 -19 5.33301 -37 16s-30.333 19 -37 25c-46.667 37.333 -85 82 -115 134
c-42.667 74 -64 156.333 -64 247c0 92 21 174.333 63 247c29.333 50.667 68 95.334 116 134.001c8.66699 7.33301 20.334 15.333 35.001 24c18.667 11.333 31.667 17 39 17c3.33301 0 5.5 -1.5 6.5 -4.5s1.5 -7.16699 1.5 -12.5v-101c0 -6.66699 -2 -12.334 -6 -17.001
c-8.66699 -8 -16.334 -15.667 -23.001 -23c-34.667 -38.667 -60 -85.667 -76 -141c-12 -41.333 -18 -82.333 -18 -123z" />
    <glyph glyph-name="parenright" unicode=")" horiz-adv-x="361" 
d="M50 -111v101.001c0 6.66699 2 12.334 6 17.001c8.66699 8 16.334 15.667 23.001 23c34.667 38.667 60 85.667 76 141c12 41.333 18 82.333 18 123c0 42 -5.66699 82.667 -17 122c-16 55.333 -41.667 102.666 -77 141.999l-22 23c-4.66699 5.33301 -7 11 -7 17v101
c0 11.333 2.66699 17 8 17c6.66699 0 19 -5.33301 37 -16s30.333 -19 37 -25c46.667 -37.333 85 -82 115 -134c42.667 -74 64 -156.333 64 -247c0 -92 -21 -174.333 -63 -247c-29.333 -50.667 -68 -95.334 -116 -134.001c-8.66699 -7.33301 -20.334 -15.333 -35.001 -24
c-18.667 -11.333 -31.667 -17 -39 -17c-3.33301 0 -5.5 1.5 -6.5 4.5s-1.5 7.16699 -1.5 12.5z" />
    <glyph glyph-name="asterisk" unicode="*" 
d="M96 630l74.0039 -51.0029c5.33301 -2.66699 8.66602 -4 9.99902 -4c5.33301 0 8 4.66699 8 14l-7 89c0 14.667 6.66699 22 20 22h45c14.667 0 22 -7.33301 22 -22l-8 -87c0 -9.33301 3.66699 -14 11 -14c2 0 4.66699 1 8 3l76 50c5.33301 2.66699 9.33301 4 12 4
c5.33301 0 10.333 -3.33301 15 -10l22 -39c2.66699 -4.66699 4 -10.667 4 -18c0 -4 -3.66699 -8 -11 -12l-84 -40c-6 -3.33301 -9 -6.66602 -9 -9.99902c0 -4 2.66699 -7 8 -9l84 -40c8 -3.33301 12 -9.33301 12 -18c0 -4.66699 -1.33301 -8.66699 -4 -12l-23 -40
c-3.33301 -6.66699 -8 -10 -14 -10c-3.33301 0 -8.33301 2 -15 6l-77 52c-4.66699 3.33301 -8.33398 4 -11.001 2s-4 -6 -4 -12l7 -91c1.33301 -15.333 -5.33398 -23 -20.001 -23h-44c-9.33301 0 -15.333 1.33301 -18 4s-4 9.33398 -4 20.001l5 88
c1.33301 8.66699 -1.33398 13 -8.00098 13c-1.33301 0 -4.66602 -1.33301 -9.99902 -4l-69 -47c-6 -4 -11.333 -6 -16 -6c-6 0 -12 4.66699 -18 14l-21 35c-2.66699 4.66699 -4 8.66699 -4 12c0 6.66699 4.66699 12.334 14 17.001l78 40c6.66699 4 10 7.66699 10 11
s-2.66699 6.33301 -8 9l-83 39c-7.33301 4 -11 8 -11 12c0 5.33301 1.66699 11 5 17l24 41c3.33301 5.33301 8.66602 8 15.999 8c4 0 7.66699 -1 11 -3z" />
    <glyph glyph-name="plus" unicode="+" horiz-adv-x="536" 
d="M220 397l0.000976562 142c0 12 3 19.667 9 23s12.333 5 19 5h40c7.33301 0 12.666 -1 15.999 -3c8 -4.66699 12 -13 12 -25v-142h142c7.33301 0 12.666 -1 15.999 -3c8 -4.66699 12 -13 12 -25v-40c0 -12 -3 -19.667 -9 -23s-12.333 -5 -19 -5h-142v-142
c0 -12 -3 -19.667 -9 -23s-12.333 -5 -19 -5h-40c-7.33301 0 -12.666 1 -15.999 3c-8 4.66699 -12 13 -12 25v142h-142c-12 0 -19.667 3 -23 9s-5 12.333 -5 19v40c0 12 3 19.667 9 23s12.333 5 19 5h142z" />
    <glyph glyph-name="comma" unicode="," horiz-adv-x="245" 
d="M78 145l88.998 0.000976562c12 0 19.667 -2.5 23 -7.5s5 -11.833 5 -20.5v-110c0 -38 -11.667 -68.667 -35 -92s-50.666 -35 -81.999 -35h-12c-7.33301 0 -11.833 1.66699 -13.5 5s-2.5 7.33301 -2.5 12v33c0 6 2.83301 9.66699 8.5 11s11.834 2.66602 18.501 3.99902
c18 5.33301 27 19.333 27 42v5c0 5.33301 -3 8 -9 8h-17c-12 0 -19.667 2.5 -23 7.5s-5 11.833 -5 20.5v89c0 12 2.5 19.667 7.5 23s11.833 5 20.5 5z" />
    <glyph glyph-name="hyphen" unicode="-" horiz-adv-x="331" 
d="M263 238h-195c-12 0 -19.667 2.5 -23 7.5s-5 11.833 -5 20.5v62c0 12 2.5 19.667 7.5 23s11.833 5 20.5 5h195c12 0 19.667 -2.5 23 -7.5s5 -11.833 5 -20.5v-62c0 -12 -2.5 -19.667 -7.5 -23s-11.833 -5 -20.5 -5z" />
    <glyph glyph-name="period" unicode="." horiz-adv-x="245" 
d="M195 117v-89c0 -12 -2.5 -19.667 -7.5 -23s-11.833 -5 -20.5 -5h-89c-12 0 -19.667 2.5 -23 7.5s-5 11.833 -5 20.5v89c0 12 2.5 19.667 7.5 23s11.833 5 20.5 5h89c12 0 19.667 -2.5 23 -7.5s5 -11.833 5 -20.5z" />
    <glyph glyph-name="slash" unicode="/" horiz-adv-x="464" 
d="M460 662l-386.001 -801c-5.33301 -10.667 -14 -16 -26 -16c-6 0 -11.667 1.33301 -17 4l-19 10c-8 4 -12 12 -12 24c0 6.66699 1.33301 12.667 4 18l385 796c6.66699 12 14.667 18 24 18c4.66699 0 9.33398 -1.33301 14.001 -4l23 -11c9.33301 -4 14 -11 14 -21
c0 -6 -1.33301 -11.667 -4 -17z" />
    <glyph glyph-name="zero" unicode="0" horiz-adv-x="464" 
d="M34 203v294c0 67.333 19.667 120 59 158c36.667 35.333 83 53 139 53c56.667 0 103 -17.333 139 -52c39.333 -38 59 -91 59 -159v-294c0 -67.333 -19.667 -120 -59 -158c-36.667 -35.333 -83 -53 -139 -53c-56.667 0 -103 17.333 -139 52c-39.333 38 -59 91 -59 159z
M182 517v-334.001c0 -23.333 5 -40.333 15 -51s21.667 -16 35 -16c20.667 0 35 9.33301 43 28c4.66699 10.667 7 23.667 7 39v334c0 17.333 -2.33301 31 -7 41c-8 17.333 -22.333 26 -43 26c-14 0 -25 -4 -33 -12c-11.333 -11.333 -17 -29.666 -17 -54.999z" />
    <glyph glyph-name="one" unicode="1" horiz-adv-x="337" 
d="M149 35l0.000976562 460c0 8.66699 -4.33301 13 -13 13h-91c-15.333 0 -25 2.83301 -29 8.5s-6 14.5 -6 26.5v46c0 9.33301 1 16 3 20c4.66699 8.66699 13 13 25 13h25c17.333 0 34.666 3.66699 51.999 11s32 17 44 29c12 15.333 19.833 25.5 23.5 30.5
s11.5 7.5 23.5 7.5h56c15.333 0 25 -2.83301 29 -8.5s6 -14.5 6 -26.5v-630c0 -15.333 -2.83301 -25 -8.5 -29s-14.5 -6 -26.5 -6h-78c-15.333 -0 -25 2.83301 -29 8.5s-6 14.5 -6 26.5z" />
    <glyph glyph-name="two" unicode="2" horiz-adv-x="460" 
d="M390 0l-322.998 -0.000976562c-15.333 0 -25 2.83301 -29 8.5s-6 14.5 -6 26.5v8c0 45.333 16.333 94.333 49 147c20 32 49.167 68.833 87.5 110.5s60.5 66.167 66.5 73.5c31.333 38.667 47 80 47 124c0 28.667 -4.66699 50.834 -14 66.501s-24.666 23.5 -45.999 23.5
c-22.667 0 -38.334 -9 -47.001 -27c-6 -12.667 -9 -28.667 -9 -48v-23c0 -15.333 -2.83301 -25 -8.5 -29s-14.5 -6 -26.5 -6h-66c-12 0 -20 1.33301 -24 4c-7.33301 5.33301 -11 15.666 -11 30.999v27c0 69.333 22.667 120.333 68 153c35.333 25.333 78.666 38 129.999 38
c60.667 0 109.5 -19.167 146.5 -57.5s55.5 -88.5 55.5 -150.5c0 -62.667 -16 -113 -48 -151l-98 -86c-40.667 -36.667 -67.334 -80.667 -80.001 -132c-1.33301 -7.33301 1 -11 7 -11h179c12 0 20 -1.33301 24 -4c7.33301 -5.33301 11 -15.666 11 -30.999v-50
c0 -15.333 -2.83301 -25 -8.5 -29s-14.5 -6 -26.5 -6z" />
    <glyph glyph-name="three" unicode="3" horiz-adv-x="454" 
d="M60 235l66.9941 -0.00195312c15.333 0 25 -2.83301 29 -8.5s6 -14.5 6 -26.5v-33c0 -18.667 5 -32.5 15 -41.5s22.333 -13.5 37 -13.5c24.667 0 41.334 9.66699 50.001 29c6.66699 14.667 10 36.334 10 65.001c0 48 -8.66699 80 -26 96
c-11.333 10.667 -30.666 16 -57.999 16h-23c-12 0 -20 1.33301 -24 4c-7.33301 5.33301 -11 15.666 -11 30.999v42c0 15.333 2.83301 25 8.5 29s14.5 6 26.5 6h30c22.667 0 39.334 4.66699 50.001 14c16 14 24 39 24 75c0 46 -18 69 -54 69
c-13.333 0 -24 -4.16699 -32 -12.5s-12 -19.5 -12 -33.5v-6c0 -7.33301 -1.33301 -12.666 -4 -15.999c-5.33301 -6 -15.666 -9 -30.999 -9h-58c-9.33301 0 -15.666 1 -18.999 3c-6.66699 4 -10 13 -10 27v26c0 45.333 18.333 81 55 107c32 22.667 71.667 34 119 34
c58 0 104 -16 138 -48s51 -76 51 -132c0 -39.333 -7.33301 -70.333 -22 -93l-53 -51c2 -9.33301 17.667 -24.666 47 -45.999c25.333 -18.667 38 -58.667 38 -120c0 -72 -17.667 -127.667 -53 -167s-85.666 -59 -150.999 -59c-58 0 -104.167 15.167 -138.5 45.5
s-51.5 73.833 -51.5 130.5v38c0 12.667 2.5 20.667 7.5 24s12.5 5 22.5 5z" />
    <glyph glyph-name="four" unicode="4" horiz-adv-x="438" 
d="M339 0h-66.002c-15.333 -0 -25 2.83301 -29 8.5s-6 14.5 -6 26.5v120c0 6.66699 -3.33301 10 -10 10h-178c-12 0 -20 1.33301 -24 4c-7.33301 5.33301 -11 15.666 -11 30.999v63c0 6.66699 1.5 12.834 4.5 18.501l6.5 12.5l208 384
c4.66699 8.66699 9.83398 14.5 15.501 17.5s13.5 4.5 23.5 4.5h66c15.333 0 25 -2.83301 29 -8.5s6 -14.5 6 -26.5v-382c0 -6.66699 3.33301 -10 10 -10h9c15.333 0 25 -2.83301 29 -8.5s6 -14.5 6 -26.5v-38c0 -15.333 -2.83301 -25 -8.5 -29s-14.5 -6 -26.5 -6h-9
c-6.66699 0 -10 -3.33301 -10 -10v-120c0 -12 -1.33301 -20 -4 -24c-5.33301 -7.33301 -15.666 -11 -30.999 -11zM160.998 273h66c7.33301 0 11 3.66699 11 11v149c0 5.33301 -1.33301 8 -4 8c-2 0 -5.33301 -4.66699 -10 -14c-11.333 -24.667 -19 -41 -23 -49
c-12.667 -26 -23 -46.333 -31 -61c-12 -22 -18 -34.333 -18 -37c0 -4.66699 3 -7 9 -7z" />
    <glyph glyph-name="five" unicode="5" horiz-adv-x="458" 
d="M106 700h245c15.333 0 25 -2.83301 29 -8.5s6 -14.5 6 -26.5v-50c0 -12 -1.33301 -20 -4 -24c-5.33301 -7.33301 -15.666 -11 -30.999 -11h-130c-6.66699 0 -10 -3.33301 -10 -10v-71c0 -8.66699 4 -13 12 -13l21 3c4.66699 1.33301 9.83398 2 15.501 2h13.5
c49.333 0 87.5 -17 114.5 -51s40.5 -80.333 40.5 -139v-101c0 -70.667 -17.833 -123 -53.5 -157s-85.834 -51 -150.501 -51c-80 0 -135.667 26.333 -167 79c-18 30.667 -27 68.334 -27 113.001v23c0 12 1.33301 20 4 24c5.33301 7.33301 15.666 11 30.999 11h70
c15.333 0 25 -2.83301 29 -8.5s6 -14.5 6 -26.5v-30c0 -22 3.83301 -38.333 11.5 -49s21.167 -16 40.5 -16c18 0 32.167 6.5 42.5 19.5s15.5 34.167 15.5 63.5v81c0 35.333 -8.33301 61.666 -25 78.999c-13.333 14 -30 21 -50 21c-12.667 0 -33.667 -3.33301 -63 -10
c-17.333 -4 -32 -6 -44 -6c-11.333 0 -18.666 3.33301 -21.999 10s-5 13.667 -5 21v274c0 12 1.33301 20 4 24c5.33301 7.33301 15.666 11 30.999 11z" />
    <glyph glyph-name="six" unicode="6" horiz-adv-x="455" 
d="M30 206l-0.00195312 273c0 62 10.667 110.333 32 145c34.667 56 98.334 84 191.001 84c61.333 0 102.333 -5.66699 123 -17c12.667 -6.66699 19 -17.667 19 -33v-77c0 -8.66699 -5.33301 -13 -16 -13c-24 0 -41.333 2 -52 6c-25.333 9.33301 -46.333 14 -63 14
c-36.667 0 -61.667 -13 -75 -39c-7.33301 -14.667 -11 -36.667 -11 -66v-25c2 -4.66699 4.33301 -7 7 -7c2 0 5.16699 1.5 9.5 4.5s8.83301 5.83301 13.5 8.5c8.66699 4.66699 19 8.16699 31 10.5s24.333 3.5 37 3.5c40 0 73 -11 99 -33c33.333 -28.667 50 -72 50 -130v-139
c0 -56.667 -18.167 -101.5 -54.5 -134.5s-86.166 -49.5 -149.499 -49.5c-76 0 -129.333 26 -160 78c-20.667 34.667 -31 80 -31 136zM279.998 170l0.00195312 122c0 38.667 -17 58 -51 58c-16 0 -28.5 -5.16699 -37.5 -15.5s-13.5 -24.5 -13.5 -42.5v-122
c0 -17.333 4.16699 -31.333 12.5 -42s21.166 -16 38.499 -16s30.166 5.5 38.499 16.5s12.5 24.833 12.5 41.5z" />
    <glyph glyph-name="seven" unicode="7" horiz-adv-x="416" 
d="M50 700l316.002 0.00195312c15.333 0 25 -2.83301 29 -8.5s6 -14.5 6 -26.5v-49c0 -8 -6 -23.333 -18 -46s-24.667 -48.334 -38 -77.001c-31.333 -66.667 -59 -146.334 -83 -239.001s-36 -165.667 -36 -219c0 -12.667 -1.33301 -21 -4 -25
c-4.66699 -6.66699 -15 -10 -31 -10h-74c-15.333 -0 -25 2.83301 -29 8.5s-6 14.5 -6 26.5v12c0 39.333 6.33301 87 19 143c17.333 78 46.666 171 87.999 279c14.667 39.333 25.667 70 33 92c0.666992 2.66699 1.66699 5.33398 3 8.00098c-3.33301 5.33301 -6.33301 8 -9 8
h-166c-12 0 -20 1.33301 -24 4c-7.33301 5.33301 -11 15.666 -11 30.999v53c0 12 1.33301 20 4 24c5.33301 7.33301 15.666 11 30.999 11z" />
    <glyph glyph-name="eight" unicode="8" horiz-adv-x="450" 
d="M30 165v75c0 42.667 6.66699 74 20 94l46 47c-14.667 11.333 -27.667 25.5 -39 42.5s-17 38.167 -17 63.5v49c0 53.333 16 95.333 48 126s77.667 46 137 46c56 0 100.833 -14.333 134.5 -43s50.5 -71.667 50.5 -129v-49c0 -24.667 -5.66699 -45.667 -17 -63l-39 -43
c0 -2 11 -13 33 -33s33 -56 33 -108v-75c0 -57.333 -18.333 -101 -55 -131c-34 -28 -80.667 -42 -140 -42c-57.333 0 -103.333 13.667 -138 41c-38 30 -57 74 -57 132zM172 237l0.000976562 -53c0 -48 17.667 -72 53 -72c25.333 0 41.666 13 48.999 39c2.66699 10 4 21 4 33
v53c0 26 -5.66699 45 -17 57c-8.66699 9.33301 -20.667 14 -36 14c-16 0 -28.833 -6.16699 -38.5 -18.5s-14.5 -29.833 -14.5 -52.5zM176.001 528v-46c0 -18.667 4.5 -33.167 13.5 -43.5s20.833 -15.5 35.5 -15.5c14 0 25.667 5 35 15s14 24.667 14 44v46
c0 18 -4.5 32.5 -13.5 43.5s-20.833 16.5 -35.5 16.5s-26.5 -5.5 -35.5 -16.5s-13.5 -25.5 -13.5 -43.5z" />
    <glyph glyph-name="nine" unicode="9" horiz-adv-x="455" 
d="M425 494l0.00195312 -273c0 -62.667 -10.667 -111 -32 -145c-34.667 -56 -98.334 -84 -191.001 -84c-68 0 -113 6.33301 -135 19c-11.333 6.66699 -17 17 -17 31v77c0 8.66699 5.33301 13 16 13c28 0 47.667 -2 59 -6c26.667 -9.33301 48.667 -14 66 -14
c36.667 0 61.667 13 75 39c7.33301 14.667 11 36.667 11 66v25c-2 4.66699 -4.33301 7 -7 7c-2 0 -5 -1.5 -9 -4.5s-9.5 -6.33301 -16.5 -10s-16.5 -6.66699 -28.5 -9s-24.333 -3.5 -37 -3.5c-40 0 -73 11 -99 33c-33.333 28.667 -50 72 -50 130v139
c0 56.667 18.167 101.5 54.5 134.5s86.166 49.5 149.499 49.5c76 0 129.333 -26 160 -78c20.667 -34.667 31 -80 31 -136zM175.002 530l-0.00195312 -122c0 -38.667 17 -58 51 -58c16 0 28.5 5.16699 37.5 15.5s13.5 24.5 13.5 42.5v122c0 17.333 -4.16699 31.333 -12.5 42
s-21.166 16 -38.499 16s-30.166 -5.5 -38.499 -16.5s-12.5 -24.833 -12.5 -41.5z" />
    <glyph glyph-name="colon" unicode=":" horiz-adv-x="245" 
d="M195 117v-89c0 -12 -2.5 -19.667 -7.5 -23s-11.833 -5 -20.5 -5h-89c-12 0 -19.667 2.5 -23 7.5s-5 11.833 -5 20.5v89c0 12 2.5 19.667 7.5 23s11.833 5 20.5 5h89c12 0 19.667 -2.5 23 -7.5s5 -11.833 5 -20.5zM195 405v-89c0 -8.66699 -1.66699 -15.5 -5 -20.5
s-11 -7.5 -23 -7.5h-89c-8.66699 0 -15.5 1.66699 -20.5 5s-7.5 11 -7.5 23v89c0 12 2.5 19.667 7.5 23s11.833 5 20.5 5h89c8.66699 0 15.5 -1.66699 20.5 -5s7.5 -11 7.5 -23z" />
    <glyph glyph-name="semicolon" unicode=";" horiz-adv-x="246" 
d="M196 405v-89c0 -8.66699 -1.66699 -15.5 -5 -20.5s-11 -7.5 -23 -7.5h-89c-8.66699 0 -15.5 1.66699 -20.5 5s-7.5 11 -7.5 23v89c0 8.66699 1.66699 15.5 5 20.5s11 7.5 23 7.5h89c12 0 19.667 -2.5 23 -7.5s5 -11.833 5 -20.5zM79 145h88.999c12 0 19.667 -2.5 23 -7.5
s5 -11.833 5 -20.5v-110c0 -38 -11.667 -68.667 -35 -92s-50.666 -35 -81.999 -35h-12c-8 0 -12.833 1.66699 -14.5 5s-2.5 7.33301 -2.5 12v33c0 6.66699 3 10.667 9 12s12.333 2.33301 19 3c18 5.33301 27 19.333 27 42v5c0 5.33301 -3 8 -9 8h-17
c-12 0 -19.667 2.5 -23 7.5s-5 11.833 -5 20.5v89c0 12 2.5 19.667 7.5 23s11.833 5 20.5 5z" />
    <glyph glyph-name="less" unicode="&#x3c;" horiz-adv-x="624" 
d="M219 340l303 -167c14 -8 21 -19 21 -33v-56c0 -8.66699 -1.66699 -13 -5 -13c-8 0 -13.333 0.666992 -16 2l-444 243c-14.667 8 -22 16 -22 24s7.33301 16 22 24l444 243c2.66699 1.33301 8 2 16 2c3.33301 0 5 -4.33301 5 -13v-56c0 -14 -7 -25 -21 -33z" />
    <glyph glyph-name="equal" unicode="=" horiz-adv-x="495" 
d="M437 393h-379c-12 0 -19.667 3 -23 9s-5 12.333 -5 19v40c0 7.33301 1 12.666 3 15.999c4.66699 8 13 12 25 12h379c12 0 19.667 -3 23 -9s5 -12.333 5 -19v-40c0 -7.33301 -1 -12.666 -3 -15.999c-4.66699 -8 -13 -12 -25 -12zM437 209h-379c-12 0 -19.667 3 -23 9
s-5 12.333 -5 19v40c0 7.33301 1 12.666 3 15.999c4.66699 8 13 12 25 12h379c12 0 19.667 -3 23 -9s5 -12.333 5 -19v-40c0 -7.33301 -1 -12.666 -3 -15.999c-4.66699 -8 -13 -12 -25 -12z" />
    <glyph glyph-name="greater" unicode="&#x3e;" horiz-adv-x="624" 
d="M405 340l-303 167c-14 8 -21 19 -21 33v56c0 8.66699 1.66699 13 5 13c8 0 13.333 -0.666992 16 -2l444 -243c14.667 -8 22 -16 22 -24s-7.33301 -16 -22 -24l-444 -243c-2.66699 -1.33301 -8 -2 -16 -2c-3.33301 0 -5 4.33301 -5 13v56c0 14 7 25 21 33z" />
    <glyph glyph-name="question" unicode="?" horiz-adv-x="488" 
d="M50 588v79.001c0 14.667 17 25.167 51 31.5s63.667 9.5 89 9.5c75.333 0 135.5 -17.833 180.5 -53.5s67.5 -86.5 67.5 -152.5c0 -52.667 -14.167 -96.5 -42.5 -131.5s-67.5 -52.5 -117.5 -52.5l-30 -107c-3.33301 -12.667 -11.333 -19 -24 -19h-53
c-10 0 -16.667 3.33301 -20 10c-0.666992 1.33301 -2 5.33301 -4 12l-19 69l-3 19v80c0 11.333 2.5 18.666 7.5 21.999s11.5 5 19.5 5h14c35.333 0 61 3 77 9c32 12 48 36.333 48 73c0 28 -8.66699 50.667 -26 68c-21.333 21.333 -54 32 -98 32c-10.667 0 -22.667 -1 -36 -3
s-25.333 -4.33301 -36 -7l-32 -8c-8.66699 0 -13 5 -13 15zM270 117.001v-89c0 -8.66699 -1.66699 -15.5 -5 -20.5s-11 -7.5 -23 -7.5h-89c-8.66699 0 -15.5 1.66699 -20.5 5s-7.5 11 -7.5 23v89c0 12 2.5 19.667 7.5 23s11.833 5 20.5 5h89c12 0 19.667 -2.5 23 -7.5
s5 -11.833 5 -20.5z" />
    <glyph glyph-name="at" unicode="@" horiz-adv-x="785" 
d="M479 533l57.9971 -0.00292969c5.33301 0 9.83301 -2.16699 13.5 -6.5s4.83398 -9.5 3.50098 -15.5l-28 -196c-1.33301 -5.33301 -2 -11.666 -2 -18.999c0 -10 2 -18.167 6 -24.5s11.667 -9.5 23 -9.5c24 0 45.333 13.167 64 39.5s28 59.833 28 100.5
c0 58 -18.667 107.333 -56 148c-43.333 47.333 -103 71 -179 71c-76.667 0 -140 -25.667 -190 -77s-75 -116 -75 -194c0 -75.333 23.667 -138.333 71 -189c50.667 -54 117.334 -81 200.001 -81c25.333 0 47.5 1.5 66.5 4.5s39.5 8.5 61.5 16.5l22 8
c6.66699 2.66699 12.334 4 17.001 4c6.66699 0 11.334 -3.66699 14.001 -11l12 -35c1.33301 -3.33301 2.5 -6.83301 3.5 -10.5s1.5 -6.5 1.5 -8.5c0 -5.33301 -4.66699 -10.666 -14 -15.999l-12 -6c-20.667 -10 -47.5 -18.167 -80.5 -24.5s-64.833 -9.5 -95.5 -9.5
c-107.333 0 -196.166 34.5 -266.499 103.5s-105.5 153.833 -105.5 254.5s35.167 185.5 105.5 254.5s158.166 103.5 263.499 103.5c94 0 172.667 -27 236 -81c66.667 -56.667 100 -130.334 100 -221.001c0 -63.333 -17 -117.333 -51 -162
c-38.667 -50.667 -90.667 -76 -156 -76c-22 0 -38.5 2.33301 -49.5 7s-20.5 12.667 -28.5 24c-4.66699 6.66699 -7.66699 10 -9 10c-0.666992 0 -10.334 -5 -29.001 -15s-42.667 -15 -72 -15c-30 0 -53.667 8.83301 -71 26.5s-26 42.834 -26 75.501l3 33l14 106
c5.33301 39.333 17.833 68.833 37.5 88.5s45.834 29.5 78.501 29.5c16 0 30.333 -2.33301 43 -7c4.66699 -1.33301 9 -3.16602 13 -5.49902s7.33301 -3.5 10 -3.5c3.33301 0 6 1 8 3c7.33301 5.33301 13.666 8 18.999 8zM416.997 303.997l17 115.999
c1.33301 8.66699 0 15.334 -4 20.001s-9.33301 7 -16 7c-8 0 -15.5 -2.33301 -22.5 -7s-11.167 -12.667 -12.5 -24l-16 -116v-7c0 -6 1.66699 -11 5 -15s7.66602 -6 12.999 -6c12 0 21.333 4.33301 28 13c4.66699 6 7.33398 12.333 8.00098 19z" />
    <glyph glyph-name="A" unicode="A" horiz-adv-x="526" 
d="M196 700l125.999 -0.000976562c8.66699 0 15.5 -1.66699 20.5 -5s9.16699 -11 12.5 -23l162 -642c1.33301 -4 2 -8.33301 2 -13c0 -11.333 -7.33301 -17 -22 -17h-98c-10 0 -17.167 2.66699 -21.5 8s-7.5 12 -9.5 20l-20 76c-2.66699 10 -9.33398 15 -20.001 15h-137
c-11.333 0 -18 -5 -20 -15l-19 -79c-1.33301 -6.66699 -4.16602 -12.5 -8.49902 -17.5s-11.166 -7.5 -20.499 -7.5h-97c-12.667 0 -19 6.33301 -19 19v6c1.33301 2.66699 2 4.33398 2 5.00098l154 642c2.66699 12 6.5 19.667 11.5 23s12.167 5 21.5 5zM217.999 252.999
l83.0029 -0.000976562c7.33301 0 9.66602 5 6.99902 15l-44 177c-0.666992 2.66699 -1.83398 4.83398 -3.50098 6.50098l-3.5 3.5c-4 -4 -6.33301 -7.33301 -7 -10l-39 -177c-2.66699 -10 -0.333984 -15 6.99902 -15z" />
    <glyph glyph-name="B" unicode="B" horiz-adv-x="549" 
d="M40 34l-0.00195312 638.001c0 11.333 2.33301 18.833 7 22.5s12.334 5.5 23.001 5.5h193c76.667 0 134.334 -17.667 173.001 -53c34 -31.333 51 -72.666 51 -123.999c0 -32 -8 -60.333 -24 -85s-39.667 -43.334 -71 -56.001v-4c38 -12.667 67.833 -34.667 89.5 -66
s32.5 -68.333 32.5 -111c0 -58.667 -16.667 -105.334 -50 -140.001c-39.333 -40.667 -99.333 -61 -180 -61h-214c-20 -0 -30 11.333 -30 34zM238.998 435.001c31.333 0 54.667 6.5 70 19.5s23 29.167 23 48.5c0 18.667 -6 33.667 -18 45c-16 14.667 -41.333 22 -76 22h-32
c-12 0 -18 -4.66699 -18 -14v-109c0 -8 6.33301 -12 19 -12h32zM200.999 130.001h46c35.333 0 62 8.16699 80 24.5s27 36.833 27 61.5s-8 45 -24 61c-19.333 18.667 -47 28 -83 28h-43c-7.33301 0 -11.833 -1.66699 -13.5 -5s-2.5 -7.33301 -2.5 -12v-146
c0 -8 4.33301 -12 13 -12z" />
    <glyph glyph-name="C" unicode="C" horiz-adv-x="449" 
d="M404 677l-0.00292969 -92c0 -5.33301 -0.666992 -9.5 -2 -12.5s-4.66602 -4.5 -9.99902 -4.5c-15.333 3.33301 -31.166 6.5 -47.499 9.5s-31.166 4.5 -44.499 4.5c-45.333 0 -75 -14.333 -89 -43c-8.66699 -18 -13 -50.333 -13 -97v-169c0 -57.333 7.5 -95.5 22.5 -114.5
s43.833 -28.5 86.5 -28.5c24 0 40.333 2.16699 49 6.5s23 6.5 43 6.5c10 0 15 -6 15 -18v-89c0 -15.333 -8.16699 -26.5 -24.5 -33.5s-53.833 -10.5 -112.5 -10.5c-92 0 -155.667 24.667 -191 74c-24 34 -36 85.667 -36 155v284c0 59.333 14 105 42 137
c38 44 102.333 66 193 66c50 0 84 -3.33301 102 -10c11.333 -4 17 -11 17 -21z" />
    <glyph glyph-name="D" unicode="D" horiz-adv-x="512" 
d="M40 35l0.000976562 630.001c0 12 1.33301 20 4 24c5.33301 7.33301 15.666 11 30.999 11h173c75.333 0 132.5 -21.833 171.5 -65.5s58.5 -106.5 58.5 -188.5v-171c0 -75.333 -11.667 -134 -35 -176c-36.667 -66 -102 -99 -196 -99h-172c-12 0 -20 1.33301 -24 4
c-7.33301 5.33301 -11 15.666 -11 30.999zM188.001 548.001l-0.00195312 -400.999c0 -7.33301 1 -12.5 3 -15.5s7 -4.5 15 -4.5h34c30.667 0 53.334 10.833 68.001 32.5s22 60.5 22 116.5v146c0 42 -4 73.667 -12 95c-13.333 36.667 -38.666 55 -75.999 55h-36
c-8 0 -13 -2.33301 -15 -7s-3 -10.334 -3 -17.001z" />
    <glyph glyph-name="E" unicode="E" horiz-adv-x="486" 
d="M40 35l0.000976562 630c0 12 1.33301 20 4 24c5.33301 7.33301 15.666 11 30.999 11h328c15.333 0 25 -2.83301 29 -8.5s6 -14.5 6 -26.5v-71c0 -7.33301 -2.5 -13.166 -7.5 -17.499s-12.833 -6.5 -23.5 -6.5h-201c-12 0 -18 -5.33301 -18 -16v-105
c0 -12 3.66699 -18 11 -18h158c6.66699 0 12.167 -1.66699 16.5 -5s6.5 -8 6.5 -14v-91c0 -13.333 -6.66699 -20 -20 -20h-159c-8.66699 0 -13 -5.66699 -13 -17v-142c0 -8 3.66699 -12 11 -12h225c11.333 0 18.666 -2.16699 21.999 -6.5s5 -10.5 5 -18.5v-70
c0 -12 -1.33301 -20 -4 -24c-5.33301 -7.33301 -15.666 -11 -30.999 -11h-341c-12 0 -20 1.33301 -24 4c-7.33301 5.33301 -11 15.666 -11 30.999z" />
    <glyph glyph-name="F" unicode="F" horiz-adv-x="452" 
d="M40 35l0.000976562 630c0 12 1.33301 20 4 24c5.33301 7.33301 15.666 11 30.999 11h317c15.333 0 25 -2.83301 29 -8.5s6 -14.5 6 -26.5v-77c0 -7.33301 -2.5 -13.166 -7.5 -17.499s-12.833 -6.5 -23.5 -6.5h-190c-12 0 -18 -5.33301 -18 -16v-105
c0 -12 3.66699 -18 11 -18h158c6.66699 0 12.167 -1.66699 16.5 -5s6.5 -8 6.5 -14v-91c0 -13.333 -6.66699 -20 -20 -20h-159c-8.66699 0 -13 -5.66699 -13 -17v-243c0 -15.333 -2.83301 -25 -8.5 -29s-14.5 -6 -26.5 -6h-78c-12 0 -20 1.33301 -24 4
c-7.33301 5.33301 -11 15.666 -11 30.999z" />
    <glyph glyph-name="G" unicode="G" horiz-adv-x="518" 
d="M240 298v87.999c0 5.33301 2.33301 10.333 7 15s9.66699 7 15 7h199c14.667 0 22 -7.33301 22 -22v-194c0 -49.333 -10 -89.666 -30 -120.999c-34 -52.667 -94 -79 -180 -79c-69.333 0 -121.333 12.667 -156 38c-54.667 40 -82 113 -82 219v211c0 104 32.333 175 97 213
c39.333 23.333 95.666 35 168.999 35c64.667 0 107.667 -5.33301 129 -16c12 -6 18 -16.333 18 -31v-85c0 -8.66699 -0.333008 -14 -1 -16c-2.66699 -6.66699 -8.33398 -10 -17.001 -10c-19.333 4.66699 -39.5 8.83398 -60.5 12.501s-42.5 5.5 -64.5 5.5
c-53.333 0 -88.666 -15.667 -105.999 -47c-10.667 -19.333 -16 -51.333 -16 -96v-142c0 -50.667 2.66699 -85.334 8 -104.001c10.667 -38 34.334 -57 71.001 -57c26.667 0 46 9 58 27c10 15.333 15 36 15 62v46c0 5.33301 -1 10 -3 14s-7.33301 6 -16 6h-55
c-14 0 -21 7 -21 21z" />
    <glyph glyph-name="H" unicode="H" horiz-adv-x="516" 
d="M75 700l78.001 0.000976562c15.333 0 25 -2.83301 29 -8.5s6 -14.5 6 -26.5v-193c0 -6 0.833008 -10.667 2.5 -14s5.83398 -5 12.501 -5h109c3.33301 0 5.66602 0.333008 6.99902 1c6 3.33301 9 10 9 20v191c0 12 1.33301 20 4 24c5.33301 7.33301 15.666 11 30.999 11
h78c15.333 0 25 -2.83301 29 -8.5s6 -14.5 6 -26.5v-630c0 -12 -1.33301 -20 -4 -24c-5.33301 -7.33301 -15.666 -11 -30.999 -11h-78c-15.333 0 -25 2.83301 -29 8.5s-6 14.5 -6 26.5v262c0 10.667 -5.33301 16 -16 16h-109c-10 0 -15 -5 -15 -15v-263
c0 -15.333 -2.83301 -25 -8.5 -29s-14.5 -6 -26.5 -6h-78c-12 0 -20 1.33301 -24 4c-7.33301 5.33301 -11 15.666 -11 30.999v630c0 12 1.33301 20 4 24c5.33301 7.33301 15.666 11 30.999 11z" />
    <glyph glyph-name="I" unicode="I" horiz-adv-x="228" 
d="M40 35l0.000976562 630.001c0 12 1.33301 20 4 24c5.33301 7.33301 15.666 11 30.999 11h78c15.333 0 25 -2.83301 29 -8.5s6 -14.5 6 -26.5v-630c0 -15.333 -2.83301 -25 -8.5 -29s-14.5 -6 -26.5 -6h-78c-12 0 -20 1.33301 -24 4
c-7.33301 5.33301 -11 15.666 -11 30.999z" />
    <glyph glyph-name="J" unicode="J" horiz-adv-x="350" 
d="M162 220l-0.000976562 445.001c0 12 1.33301 20 4 24c5.33301 7.33301 15.666 11 30.999 11h78c15.333 0 25 -2.83301 29 -8.5s6 -14.5 6 -26.5v-479c0 -56 -9.33301 -98.333 -28 -127c-29.333 -44.667 -83.666 -67 -162.999 -67c-48.667 0 -80.667 3.16699 -96 9.5
s-23 14.5 -23 24.5v96c0 12 5.66699 18 17 18c6 0 11.333 -0.5 16 -1.5l17 -3.5c6.66699 -1.33301 15.334 -2.33301 26.001 -3s17 -1 19 -1c30 0 49.333 8.33301 58 25c6 11.333 9 32.666 9 63.999z" />
    <glyph glyph-name="K" unicode="K" horiz-adv-x="554" 
d="M50 35l-0.000976562 630.002c0 12 1.33301 20 4 24c5.33301 7.33301 15.666 11 30.999 11h78c15.333 0 25 -2.83301 29 -8.5s6 -14.5 6 -26.5v-190l141 202c10.667 15.333 24.334 23 41.001 23h111c12.667 0 19 -6 19 -18c0 -4.66699 -0.666992 -8.33398 -2 -11.001
s-3.66602 -6 -6.99902 -10l-158 -215l191 -392c6.66699 -12.667 10 -23.334 10 -32.001c0 -14.667 -8 -22 -24 -22h-103c-9.33301 0 -17 3.16699 -23 9.5s-11.333 14.833 -16 25.5l-136 278l-44 -60v-218c0 -15.333 -2.83301 -25 -8.5 -29s-14.5 -6 -26.5 -6h-78
c-15.333 -0 -25 2.83301 -29 8.5s-6 14.5 -6 26.5z" />
    <glyph glyph-name="L" unicode="L" horiz-adv-x="427" 
d="M40 35l0.000976562 630.001c0 12 1.33301 20 4 24c5.33301 7.33301 15.666 11 30.999 11h78c15.333 0 25 -2.83301 29 -8.5s6 -14.5 6 -26.5v-523c0 -8 3.66699 -12 11 -12h186c11.333 0 18.666 -2.16699 21.999 -6.5s5 -10.5 5 -18.5v-70c0 -12 -1.33301 -20 -4 -24
c-5.33301 -7.33301 -15.666 -11 -30.999 -11h-302c-12 0 -20 1.33301 -24 4c-7.33301 5.33301 -11 15.666 -11 30.999z" />
    <glyph glyph-name="M" unicode="M" horiz-adv-x="636" 
d="M188 402l0.000976562 -366.999c0 -15.333 -2.83301 -25 -8.5 -29s-14.5 -6 -26.5 -6h-78c-12 0 -20 1.33301 -24 4c-7.33301 5.33301 -11 15.666 -11 30.999v630c0 12 1.33301 20 4 24c5.33301 7.33301 15.666 11 30.999 11h89c10 0 18.667 -3.33301 26 -10
c4 -3.33301 7.33301 -8 10 -14l108 -216c1.33301 -3.33301 3.16602 -7 5.49902 -11s4.5 -6 6.5 -6c2.66699 0 5.16699 2.5 7.5 7.5s3.5 7.83301 3.5 8.5l108 214c5.33301 10 11 17 17 21s13 6 21 6h84c15.333 0 25 -2.83301 29 -8.5s6 -14.5 6 -26.5v-630
c0 -15.333 -2.83301 -25 -8.5 -29s-14.5 -6 -26.5 -6h-78c-15.333 -0 -25 2.83301 -29 8.5s-6 14.5 -6 26.5v356c-1.33301 4 -2.66602 6 -3.99902 6l-3 -2l-78 -188c-4 -10.667 -8 -17.667 -12 -21s-9 -5 -15 -5h-34c-11.333 0 -20.333 8.66699 -27 26l-80 196
c-2.66699 -0.666992 -5 -1 -7 -1z" />
    <glyph glyph-name="N" unicode="N" horiz-adv-x="519" 
d="M334 358l0.000976562 307.001c0 12 1.33301 20 4 24c5.33301 7.33301 15.666 11 30.999 11h75c15.333 0 25 -2.83301 29 -8.5s6 -14.5 6 -26.5v-630c0 -12 -1.33301 -20 -4 -24c-5.33301 -7.33301 -15.666 -11 -30.999 -11h-64c-12 0 -20.333 2 -25 6
c-2 1.33301 -4.66699 6 -8 14l-162 357v-342c0 -15.333 -2.83301 -25 -8.5 -29s-14.5 -6 -26.5 -6h-75c-12 0 -20 1.33301 -24 4c-7.33301 5.33301 -11 15.666 -11 30.999v630c0 12 1.33301 20 4 24c5.33301 7.33301 15.666 11 30.999 11h78c18 0 30.333 -8 37 -24z" />
    <glyph glyph-name="O" unicode="O" horiz-adv-x="506" 
d="M35 255l-0.000976562 190.001c0 66.667 8.66699 118.667 26 156c33.333 71.333 97.333 107 192 107c88.667 0 150.334 -32 185.001 -96c22 -40.667 33 -96.334 33 -167.001v-190c0 -66 -8.66699 -117.667 -26 -155c-33.333 -72 -97.333 -108 -192 -108
c-74 0 -128.833 21.5 -164.5 64.5s-53.5 109.167 -53.5 198.5zM322.999 272.001v156c0 52 -3 87.333 -9 106c-9.33301 29.333 -29.666 44 -60.999 44s-51.666 -14.333 -60.999 -43c-6 -18.667 -9 -54.334 -9 -107.001v-156c0 -52 3 -87.333 9 -106
c9.33301 -29.333 29.666 -44 60.999 -44s51.666 14.333 60.999 43c6 18.667 9 54.334 9 107.001z" />
    <glyph glyph-name="P" unicode="P" horiz-adv-x="528" 
d="M75 700l182.001 0.000976562c100 0 170.333 -26.333 211 -79c26.667 -34.667 40 -79.667 40 -135c0 -68 -22.167 -119 -66.5 -153s-102.5 -51 -174.5 -51h-64c-10 0 -15 -5 -15 -15v-232c0 -15.333 -2.83301 -25 -8.5 -29s-14.5 -6 -26.5 -6h-78c-12 0 -20 1.33301 -24 4
c-7.33301 5.33301 -11 15.666 -11 30.999v630c0 12 1.33301 20 4 24c5.33301 7.33301 15.666 11 30.999 11zM199.001 412.001h58c25.333 0 46.833 7.5 64.5 22.5s26.5 34.5 26.5 58.5c0 22.667 -6.33301 40.667 -19 54c-16 16.667 -40.333 25 -73 25h-55
c-8.66699 0 -13 -4.33301 -13 -13v-137c0 -6.66699 3.66699 -10 11 -10z" />
    <glyph glyph-name="Q" unicode="Q" horiz-adv-x="542" 
d="M35 255l-0.00390625 190.003c0 66.667 8.66699 118.667 26 156c33.333 71.333 97.333 107 192 107c88.667 0 150.334 -32 185.001 -96c22 -40.667 33 -96.334 33 -167.001v-190c0 -30 -2 -60.667 -6 -92c14.667 -11.333 30.334 -19.833 47.001 -25.5
s25 -13.834 25 -24.501v-90c0 -10 -1 -17.667 -3 -23s-8 -8 -18 -8c-24.667 0 -47.667 8 -69 24s-35.666 24 -42.999 24c-16.667 -12.667 -37.667 -23.834 -63 -33.501s-54.666 -14.5 -87.999 -14.5c-74 0 -128.833 21.5 -164.5 64.5s-53.5 109.167 -53.5 198.5z
M322.996 272.003v156c0 52 -3 87.333 -9 106c-9.33301 29.333 -29.666 44 -60.999 44s-51.666 -14.333 -60.999 -43c-6 -18.667 -9 -54.334 -9 -107.001v-156c0 -52 3 -87.333 9 -106c9.33301 -29.333 29.666 -44 60.999 -44s51.666 14.333 60.999 43
c6 18.667 9 54.334 9 107.001z" />
    <glyph glyph-name="R" unicode="R" horiz-adv-x="535" 
d="M75 700l185.001 0.00195312c84.667 0 148 -21.667 190 -65c34 -34.667 51 -78.334 51 -131.001c0 -48 -11.333 -88 -34 -120c-18 -26 -40.333 -43.667 -67 -53c-6 -1.33301 -9 -4.33301 -9 -9c0 -4 1.66699 -9.33301 5 -16l125 -270c2 -5.33301 3 -10 3 -14
c0 -14.667 -8 -22 -24 -22h-104c-14.667 0 -25 3 -31 9c-2 2 -4.33301 6 -7 12l-119 260c-4.66699 9.33301 -11.667 14 -21 14h-19c-7.33301 0 -11 -4 -11 -12v-248c0 -15.333 -2.83301 -25 -8.5 -29s-14.5 -6 -26.5 -6h-78c-12 0 -20 1.33301 -24 4
c-7.33301 5.33301 -11 15.666 -11 30.999v630c0 12 1.33301 20 4 24c5.33301 7.33301 15.666 11 30.999 11zM188.001 555.002v-121.999c0 -10 4.66699 -15 14 -15h47c28 0 50.333 7 67 21s25 32.667 25 56c0 21.333 -6.33301 38.666 -19 51.999
c-16 16.667 -40.333 25 -73 25h-44c-11.333 0 -17 -5.66699 -17 -17z" />
    <glyph glyph-name="S" unicode="S" horiz-adv-x="520" 
d="M52 39l-0.00195312 90.002c0 8 2.33301 13.5 7 16.5s9.33398 4.5 14.001 4.5c5.33301 0 11.5 -1 18.5 -3s12.167 -3.33301 15.5 -4c11.333 -3.33301 28.333 -6.66602 51 -9.99902s40.667 -5 54 -5c29.333 0 52.5 6.16699 69.5 18.5s25.5 29.166 25.5 50.499
c0 31.333 -19.333 60.666 -58 87.999l-62 40c-49.333 32.667 -83 60.334 -101 83.001c-24 30 -36 67.333 -36 112c0 61.333 20.667 108 62 140s97.333 48 168 48c30.667 0 61 -2.66699 91 -8c45.333 -8 68 -19.667 68 -35v-90v-7c-2 -8 -7.66699 -12 -17 -12l-48 9
c-27.333 5.33301 -44.5 8.5 -51.5 9.5s-17.5 1.5 -31.5 1.5c-27.333 0 -47.166 -4.33301 -59.499 -13s-18.5 -19.334 -18.5 -32.001c0 -22.667 37.667 -58.334 113 -107.001c44 -29.333 76 -57 96 -83c32 -41.333 48 -90 48 -146c0 -62.667 -21.833 -112.167 -65.5 -148.5
s-103.5 -54.5 -179.5 -54.5c-24.667 0 -52.667 1.83301 -84 5.5s-54.333 8.5 -69 14.5c-8.66699 3.33301 -14.167 7.33301 -16.5 12s-3.5 9.66699 -3.5 15z" />
    <glyph glyph-name="T" unicode="T" horiz-adv-x="496" 
d="M27 700h442.999c8 0 13.5 -2.5 16.5 -7.5s4.5 -10.5 4.5 -16.5v-89c0 -14 -7 -21 -21 -21h-130c-12 0 -18 -6 -18 -18v-513c0 -12 -1.33301 -20 -4 -24c-5.33301 -7.33301 -15.666 -11 -30.999 -11h-78c-15.333 -0 -25 2.83301 -29 8.5s-6 14.5 -6 26.5v513
c0 12 -6 18 -18 18h-126c-16.667 0 -25 6.66699 -25 20v95c0 12.667 7.33301 19 22 19z" />
    <glyph glyph-name="U" unicode="U" horiz-adv-x="536" 
d="M50 222l-0.000976562 443c0 12 1.33301 20 4 24c5.33301 7.33301 15.666 11 30.999 11h78c15.333 0 25 -2.83301 29 -8.5s6 -14.5 6 -26.5v-442c0 -25.333 2.66699 -44.333 8 -57c10.667 -25.333 31.334 -38 62.001 -38c24.667 0 42.5 7.33301 53.5 22s16.5 39 16.5 73
v442c0 12 1.33301 20 4 24c5.33301 7.33301 15.666 11 30.999 11h78c15.333 0 25 -2.83301 29 -8.5s6 -14.5 6 -26.5v-443c0 -59.333 -11.333 -107.333 -34 -144c-35.333 -57.333 -96.666 -86 -183.999 -86s-148.666 28.333 -183.999 85c-22.667 36.667 -34 85 -34 145z" />
    <glyph glyph-name="V" unicode="V" horiz-adv-x="495" 
d="M27 700h97.002c7.33301 0 13.666 -2.33301 18.999 -7s8.66602 -10.667 9.99902 -18l88 -376c3.33301 -12.667 6 -19 8 -19c2.66699 0 5.66699 6.33301 9 19l84 378c4 15.333 15 23 33 23h98c10.667 0 16 -5 16 -15c-0.666992 -4.66699 -1 -7.66699 -1 -9l-150 -643
c-3.33301 -14 -8 -23 -14 -27s-13.667 -6 -23 -6h-120c-7.33301 0 -12.833 2 -16.5 6s-6.5 10.667 -8.5 20l-150 649c-2.66699 12 -1.5 19.167 3.5 21.5s10.833 3.5 17.5 3.5z" />
    <glyph glyph-name="W" unicode="W" horiz-adv-x="768" 
d="M386 215l-49.0039 -189c-3.33301 -12 -7.16602 -19.333 -11.499 -22s-12.5 -4 -24.5 -4h-110c-11.333 0 -19.833 2.66699 -25.5 8s-9.5 11.333 -11.5 18l-146 639c-1.33301 6.66699 -2 12.334 -2 17.001c0 12 7 18 21 18h105c8.66699 0 15.334 -3 20.001 -9
s7.66699 -12 9 -18l93 -430l2 -8c0.666992 -2.66699 2 -5.66699 4 -9c1.33301 0 2.66602 2 3.99902 6s2.33301 7.33301 3 10l50 219c1.33301 4.66699 2 11 2 19c0 6.66699 -1.66699 17.667 -5 33l-35 152c-1.33301 5.33301 -2 10 -2 14c0 14 7 21 21 21h105
c11.333 0 19 -2.66699 23 -8c2 -2.66699 4 -9.33398 6 -20.001l79 -381c0.666992 -2.66699 1.33398 -4.66699 2.00098 -6s1.66699 -2.33301 3 -3c3.33301 3.33301 5 6.33301 5 9l12 61l77 321c2.66699 12 5.83398 19.5 9.50098 22.5s9.83398 4.5 18.501 4.5h104
c14 0 21 -6.33301 21 -19c0 -2 -0.666992 -7 -2 -15l-154 -633c-3.33301 -13.333 -7.5 -22.166 -12.5 -26.499s-11.833 -6.5 -20.5 -6.5h-111c-8.66699 0 -15.667 3.33301 -21 10c-2.66699 3.33301 -5 8.66602 -7 15.999z" />
    <glyph glyph-name="X" unicode="X" horiz-adv-x="514" 
d="M67 700l98.9961 -0.00195312c6.66699 0 13.334 -1.83301 20.001 -5.5s12 -10.167 16 -19.5l49 -114c3.33301 -6.66699 6 -10 8 -10c4.66699 4 7 6.66699 7 8l60 124c2 4 4 7 6 9c5.33301 5.33301 13.333 8 24 8h106c14.667 0 22 -6 22 -18
c0 -4.66699 -1.33301 -9.33398 -4 -14.001l-133 -277c-1.33301 -2.66699 -1.66602 -6 -0.999023 -10s2 -8.33301 4 -13l150 -335c2.66699 -5.33301 4 -10.666 4 -15.999c0 -11.333 -6.66699 -17 -20 -17h-102c-9.33301 0 -15.666 1 -18.999 3c-6.66699 4 -12.667 12 -18 24
l-81 168c-3.33301 5.33301 -5.66602 8 -6.99902 8c-2.66699 -0.666992 -5.66699 -4 -9 -10l-75 -163c-4 -8.66699 -7.66699 -14.667 -11 -18c-7.33301 -8 -16 -12 -26 -12h-107c-12.667 0 -19 6 -19 18c0 4 1.33301 9.33301 4 16l154 332c3.33301 6.66699 5 12.334 5 17.001
c0 2.66699 -0.666992 5.33398 -2 8.00098s-2.33301 5 -3 7l-119 273c-2 4 -3 8 -3 12c0 11.333 7 17 21 17z" />
    <glyph glyph-name="Y" unicode="Y" horiz-adv-x="523" 
d="M27 700l115.998 0.00292969c8.66699 0 15.334 -2.33301 20.001 -7c2.66699 -2.66699 5.33398 -7 8.00098 -13l79 -202c0 -1.33301 1.66699 -4 5 -8c2.66699 2.66699 4.33398 5 5.00098 7l90 201c4 8 8.16699 13.667 12.5 17s9.16602 5 14.499 5h117
c15.333 0 23 -5.66699 23 -17c0 -4 -0.666992 -7.33301 -2 -10s-2 -4.33398 -2 -5.00098l-172 -334l-9 -18.5c-3.33301 -7 -5 -15.167 -5 -24.5v-256c0 -15.333 -2.83301 -25 -8.5 -29s-14.5 -6 -26.5 -6h-78c-12 0 -20 1.33301 -24 4
c-7.33301 5.33301 -11 15.666 -11 30.999v256c0 9.33301 -0.333008 15.666 -1 18.999s-4 11.333 -10 24l-158 334c-3.33301 8 -5 14 -5 18c0 6 2.16699 9.83301 6.5 11.5s9.5 2.5 15.5 2.5z" />
    <glyph glyph-name="Z" unicode="Z" horiz-adv-x="491" 
d="M427 700c15.333 0 25.002 -2.83105 29.002 -8.49805s6 -14.5 6 -26.5v-61c0 -6.66699 -0.666992 -12.5 -2 -17.5s-5 -12.5 -11 -22.5l-233 -418c-2.66699 -4 -3.16699 -7.5 -1.5 -10.5s4.16699 -4.5 7.5 -4.5h214c15.333 0 25 -2.83301 29 -8.5s6 -14.5 6 -26.5v-61
c0 -15.333 -2.83301 -25 -8.5 -29s-14.5 -6 -26.5 -6h-381c-16.667 0 -27.334 4 -32.001 12c-2 3.33301 -3 11 -3 23v55c0 15.333 3.33301 28.666 10 39.999l243 431c4.66699 9.33301 1.66699 14 -9 14h-179c-12 0 -20 1.33301 -24 4
c-7.33301 5.33301 -11 15.666 -11 30.999v55c0 12 1.33301 20 4 24c5.33301 7.33301 15.666 11 30.999 11h342z" />
    <glyph glyph-name="bracketleft" unicode="[" horiz-adv-x="316" 
d="M181 611v-666h57c8.66699 0 15.5 -1.66699 20.5 -5s7.5 -11 7.5 -23v-33c0 -12 -2.5 -19.667 -7.5 -23s-11.833 -5 -20.5 -5h-150c-12 0 -19.667 2.5 -23 7.5s-5 11.833 -5 20.5v788c0 12 2.5 19.667 7.5 23s11.833 5 20.5 5h150c12 0 19.667 -2.5 23 -7.5
s5 -11.833 5 -20.5v-33c0 -8.66699 -1.66699 -15.5 -5 -20.5s-11 -7.5 -23 -7.5h-57z" />
    <glyph glyph-name="backslash" unicode="\" horiz-adv-x="464" 
d="M390 -139l-386.001 801c-2.66699 5.33301 -4 11 -4 17c0 10 4.66699 17 14 21l23 11c5.33301 2.66699 10.333 4 15 4c8.66699 0 16.334 -6 23.001 -18l385 -796c2.66699 -5.33301 4 -11.333 4 -18c0 -12 -4 -20 -12 -24l-19 -10c-5.33301 -2.66699 -11 -4 -17 -4
c-12 0 -20.667 5.33301 -26 16z" />
    <glyph glyph-name="bracketright" unicode="]" horiz-adv-x="316" 
d="M135 611h-57c-12 0 -19.667 2.5 -23 7.5s-5 11.833 -5 20.5v33c0 12 2.5 19.667 7.5 23s11.833 5 20.5 5h150c12 0 19.667 -2.5 23 -7.5s5 -11.833 5 -20.5v-788c0 -12 -2.5 -19.667 -7.5 -23s-11.833 -5 -20.5 -5h-150c-12 0 -19.667 2.5 -23 7.5s-5 11.833 -5 20.5v33
c0 12 2.5 19.667 7.5 23s11.833 5 20.5 5h57v666z" />
    <glyph glyph-name="asciicircum" unicode="^" horiz-adv-x="406" 
d="M55 480l117.999 208c7.33301 13.333 17.333 20 30 20s22.667 -6.66699 30 -20l118 -208c3.33301 -5.33301 5 -10 5 -14c0 -10.667 -4.66699 -16 -14 -16h-61c-8 0 -13 1 -15 3s-5 6.66699 -9 14l-54 95l-54 -95c-4 -6.66699 -7.16699 -11.167 -9.5 -13.5
s-7.16602 -3.5 -14.499 -3.5h-61c-9.33301 0 -14 5.33301 -14 16c0 4 1.66699 8.66699 5 14z" />
    <glyph glyph-name="underscore" unicode="_" horiz-adv-x="431" 
d="M431 -217h-431v69h431v-69z" />
    <glyph glyph-name="grave" unicode="`" horiz-adv-x="278" 
d="M52 745l72.001 0.000976562c15.333 0 27.666 -7.66699 36.999 -23l55 -98c2 -4 3 -7.66699 3 -11c-0.666992 -4.66699 -1 -8 -1 -10c0 -3.33301 -5.33301 -5 -16 -5h-30c-11.333 0 -19.5 1.5 -24.5 4.5s-11.5 8.83301 -19.5 17.5l-87 100
c-4 5.33301 -6 9.66602 -6 12.999c0 8 5.66699 12 17 12z" />
    <glyph glyph-name="a" unicode="a" horiz-adv-x="435" 
d="M395 406l0.000976562 -371c0 -10.667 -1 -18 -3 -22c-4.66699 -8.66699 -13.667 -13 -27 -13h-84c-12.667 -0 -19 5.33301 -19 16c0 4.66699 -2.66699 7 -8 7c-4.66699 -2 -7.66699 -3.66699 -9 -5c-8.66699 -8 -20.834 -14.333 -36.501 -19s-30.834 -7 -45.501 -7
c-38.667 0 -70.334 14 -95.001 42c-27.333 31.333 -41 75.666 -41 132.999c0 68 22 121 66 159c26 22 69.667 44.333 131 67l25 9c6.66699 2.66699 10 8 10 16c0 14 -6.16699 23.667 -18.5 29s-27.5 8 -45.5 8c-18.667 0 -33 -1 -43 -3
c-11.333 -3.33301 -21.166 -6 -29.499 -8s-14.833 -4 -19.5 -6c-12.667 -4.66699 -20.667 -7 -24 -7c-12.667 0 -19 6 -19 18v62c0 12.667 7.33301 23.334 22 32.001c24.667 14 66.334 21 125.001 21c76 0 128.667 -17.333 158 -52c20 -24 30 -59.333 30 -106zM259.001 150
v128.003c0 3.33301 -1.33301 5.66602 -4 6.99902s-6 0.666016 -10 -2.00098l-17 -11c-20 -12.667 -34 -24.667 -42 -36c-11.333 -16 -17 -36.333 -17 -61c0 -17.333 3.66699 -31.833 11 -43.5s18.333 -17.5 33 -17.5c13.333 0 24.333 3.66699 33 11s13 15.666 13 24.999z
" />
    <glyph glyph-name="b" unicode="b" horiz-adv-x="446" 
d="M176 672l0.00195312 -131c0.666992 -5.33301 1.66699 -8 3 -8c6 1.33301 16.833 6.83301 32.5 16.5s36.5 14.5 62.5 14.5c44.667 0 77 -11.667 97 -35c27.333 -32 41 -89.333 41 -172v-178c0 -54.667 -6 -95 -18 -121c-20.667 -44 -59.667 -66 -117 -66
c-22 0 -40.333 3 -55 9s-29.334 12.333 -44.001 19c-3.33301 0 -7.33301 -2.33301 -12 -7l-5 -6c-4.66699 -4.66699 -10.334 -7 -17.001 -7h-76c-12 0 -19.667 2.5 -23 7.5s-5 11.833 -5 20.5v644c0 12 2.5 19.667 7.5 23s11.833 5 20.5 5h80c12 0 19.667 -2.5 23 -7.5
s5 -11.833 5 -20.5zM176.002 376v-196c0 -17.333 2.33301 -31 7 -41c8 -16.667 22 -25 42 -25s34 8.33301 42 25c4.66699 10 7 23.667 7 41v196c0 17.333 -2.33301 31 -7 41c-8 16.667 -22 25 -42 25s-34 -8.33301 -42 -25c-4.66699 -10 -7 -23.667 -7 -41z" />
    <glyph glyph-name="c" unicode="c" horiz-adv-x="375" 
d="M171 352l0.00195312 -148.001c0 -23.333 3.33301 -41 10 -53c12 -21.333 34 -32 66 -32l45 5c4.66699 0.666992 10.667 1.83398 18 3.50098s13 2.5 17 2.5c7.33301 0 12.166 -2 14.499 -6s3.5 -8.66699 3.5 -14v-80c0 -12 -4.33301 -20.333 -13 -25
c-15.333 -8.66699 -47 -13 -95 -13c-88.667 0 -148 25.333 -178 76c-16 27.333 -24 70 -24 128v172c0 58.667 10.667 102.667 32 132c31.333 42.667 88 64 170 64c48 0 79.667 -4.33301 95 -13c8.66699 -4.66699 13 -13 13 -25v-80c0 -13.333 -6 -20 -18 -20
c-11.333 0 -24.833 1.83301 -40.5 5.5s-28.834 5.5 -39.501 5.5c-30.667 0 -52 -9.33301 -64 -28c-8 -12.667 -12 -31.667 -12 -57z" />
    <glyph glyph-name="d" unicode="d" horiz-adv-x="472" 
d="M286 541v131.001c0 12 2.5 19.667 7.5 23s11.833 5 20.5 5h80c12 0 19.667 -2.5 23 -7.5s5 -11.833 5 -20.5v-644c0 -12 -2.5 -19.667 -7.5 -23s-11.833 -5 -20.5 -5h-91c-12 0 -18 4.66699 -18 14v8c0 3.33301 -3 5.66602 -9 6.99902c-10 -10 -22.833 -18.667 -38.5 -26
s-34.5 -11 -56.5 -11c-54.667 0 -92 22.333 -112 67c-12.667 28 -19 68 -19 120v178c0 57.333 7 101.333 21 132c22.667 50 63.667 75 123 75c20.667 0 36 -2.33301 46 -7l40 -24c2.66699 0 4.66699 2.66699 6 8zM286 180.001v196c0 17.333 -2.33301 31 -7 41
c-8 16.667 -22 25 -42 25s-34 -8.33301 -42 -25c-4.66699 -10 -7 -23.667 -7 -41v-196c0 -17.333 2.33301 -31 7 -41c8 -16.667 22 -25 42 -25s34 8.33301 42 25c4.66699 10 7 23.667 7 41z" />
    <glyph glyph-name="e" unicode="e" horiz-adv-x="452" 
d="M389 241l-200.996 -0.000976562c-4.66699 0 -7.83398 -1.16699 -9.50098 -3.5s-2.5 -5.16602 -2.5 -8.49902v-32c0 -26.667 8.66699 -47.167 26 -61.5s41.333 -21.5 72 -21.5c21.333 0 40.666 1.5 57.999 4.5s35.666 7.83301 54.999 14.5c16.667 5.33301 25 0 25 -16v-82
c0 -5.33301 -1.16699 -9.5 -3.5 -12.5s-7.5 -6.16699 -15.5 -9.5c-22 -8 -44.333 -13.5 -67 -16.5s-43 -4.5 -61 -4.5c-58 0 -105 10.667 -141 32c-56 33.333 -84 90 -84 170v169c0 53.333 10.333 96 31 128c31.333 48.667 84.333 73 159 73
c45.333 0 82.666 -9.33301 111.999 -28c50 -32 75 -89.667 75 -173v-94c0 -12 -2.5 -19.667 -7.5 -23s-11.833 -5 -20.5 -5zM186.004 350.999h85c4 0 7.33301 3.33301 10 10v22c0 19.333 -2.33301 34 -7 44c-8.66699 18 -23.334 27 -44.001 27
c-17.333 0 -30.666 -5.83301 -39.999 -17.5s-14 -29.5 -14 -53.5v-22c0 -6.66699 3.33301 -10 10 -10z" />
    <glyph glyph-name="f" unicode="f" horiz-adv-x="279" 
d="M69 28l0.00292969 406.001c0 7.33301 -3.66699 11 -11 11h-17c-12 0 -19.667 2.5 -23 7.5s-5 11.833 -5 20.5v47c0 8.66699 1.66699 15.5 5 20.5s11 7.5 23 7.5h24l4 4c0 2.66699 -1.66699 7 -5 13s-6 11.833 -8 17.5s-3 13.5 -3 23.5c0 15.333 4.16699 29.833 12.5 43.5
s19.666 24.167 33.999 31.5s29.666 11.833 45.999 13.5s30.833 2.5 43.5 2.5c35.333 0 58.666 -3.33301 69.999 -10c6.66699 -4 10 -11 10 -21v-62c0 -10 -4 -15 -12 -15l-16 2l-19 2c-11.333 0 -19 -2.83301 -23 -8.5s-6 -10.834 -6 -15.501c0 -14 8.33301 -21 25 -21h23
c8.66699 0 15.5 -1.66699 20.5 -5s7.5 -11 7.5 -23v-47c0 -12 -2.5 -19.667 -7.5 -23s-11.833 -5 -20.5 -5h-25c-7.33301 0 -11 -3.66699 -11 -11v-406c0 -8.66699 -1.66699 -15.5 -5 -20.5s-11 -7.5 -23 -7.5h-80c-12 0 -19.667 2.5 -23 7.5s-5 11.833 -5 20.5z" />
    <glyph glyph-name="g" unicode="g" horiz-adv-x="446" 
d="M287 556h90.9961c8.66699 0 15.5 -1.66699 20.5 -5s7.5 -11 7.5 -23v-436c0 -76.667 -8 -129.667 -24 -159c-30 -54 -93 -81 -189 -81c-65.333 0 -108.666 4 -129.999 12c-12 4.66699 -18 12 -18 22v79c0 9.33301 4 14 12 14c18 -4 37.833 -7.66699 59.5 -11
s41.167 -5 58.5 -5c38.667 0 65.334 7.33301 80.001 22c10 10 15 24.333 15 43v11c-0.666992 5.33301 -1.66699 8 -3 8c-15.333 -10 -30.166 -17.667 -44.499 -23s-31.166 -8 -50.499 -8c-56.667 0 -95.667 24.333 -117 73c-14 31.333 -21 76 -21 134v154
c0 52.667 6 92.334 18 119.001c20 45.333 57.667 68 113 68c22.667 0 41.667 -3.66699 57 -11l38 -26c6 1.33301 9 3.66602 9 6.99902v8c0 9.33301 6 14 18 14zM269.996 204v172c0 17.333 -2.33301 31 -7 41c-8 16.667 -22 25 -42 25s-34 -8.33301 -42 -25
c-4.66699 -10 -7 -23.667 -7 -41v-172c0 -17.333 2.33301 -31 7 -41c8 -16.667 22 -25 42 -25s34 8.33301 42 25c4.66699 10 7 23.667 7 41z" />
    <glyph glyph-name="h" unicode="h" 
d="M40 28l-0.000976562 643.999c0 12 2.5 19.667 7.5 23s11.833 5 20.5 5h80c12 0 19.667 -2.5 23 -7.5s5 -11.833 5 -20.5v-132v-6c0 -3.33301 3 -5.66602 9 -6.99902c7.33301 0 18.5 6.16699 33.5 18.5s35.5 18.5 61.5 18.5c35.333 0 64.333 -10.667 87 -32
c27.333 -26 41 -65 41 -117v-387c0 -12 -2.5 -19.667 -7.5 -23s-11.833 -5 -20.5 -5h-80c-12 0 -19.667 2.5 -23 7.5s-5 11.833 -5 20.5v358c0 13.333 -4.16699 24.5 -12.5 33.5s-19.833 13.5 -34.5 13.5c-21.333 0 -35.666 -9.33301 -42.999 -28c-4 -10.667 -6 -26 -6 -46
v-331c0 -12 -2.5 -19.667 -7.5 -23s-11.833 -5 -20.5 -5h-80c-12 0 -19.667 2.5 -23 7.5s-5 11.833 -5 20.5z" />
    <glyph glyph-name="i" unicode="i" horiz-adv-x="216" 
d="M176 687v-61c0 -8.66699 -1.66699 -15.5 -5 -20.5s-11 -7.5 -23 -7.5h-80c-12 0 -19.667 2.5 -23 7.5s-5 11.833 -5 20.5v61c0 8.66699 1.66699 15.5 5 20.5s11 7.5 23 7.5h80c8.66699 0 15.5 -1.66699 20.5 -5s7.5 -11 7.5 -23zM176 528v-500
c0 -12 -2.5 -19.667 -7.5 -23s-11.833 -5 -20.5 -5h-80c-12 0 -19.667 2.5 -23 7.5s-5 11.833 -5 20.5v500c0 12 2.5 19.667 7.5 23s11.833 5 20.5 5h80c8.66699 0 15.5 -1.66699 20.5 -5s7.5 -11 7.5 -23z" />
    <glyph glyph-name="j" unicode="j" horiz-adv-x="225" 
d="M-20 -118v64c0 12 4.33301 18 13 18l16 -3l17 -3c9.33301 0 17 2.33301 23 7s9 12 9 22c0 4.66699 -0.333008 8.66699 -1 12s-3.16699 12 -7.5 26s-6.5 27 -6.5 39v464c0 12 2.5 19.667 7.5 23s11.833 5 20.5 5h80c8.66699 0 15.5 -1.66699 20.5 -5s7.5 -11 7.5 -23v-467
c0 -18.667 3 -37 9 -55c4 -11.333 7 -21.5 9 -30.5s3 -19.833 3 -32.5c0 -23.333 -6.66699 -42.333 -20 -57c-22.667 -24.667 -61.667 -37 -117 -37c-12 0 -24.5 0.666992 -37.5 2s-23.833 3.33301 -32.5 6s-13 11 -13 25zM179 687v-61c0 -8.66699 -1.66699 -15.5 -5 -20.5
s-11 -7.5 -23 -7.5h-80c-8.66699 0 -15.5 1.66699 -20.5 5s-7.5 11 -7.5 23v61c0 8.66699 1.66699 15.5 5 20.5s11 7.5 23 7.5h80c8.66699 0 15.5 -1.66699 20.5 -5s7.5 -11 7.5 -23z" />
    <glyph glyph-name="k" unicode="k" horiz-adv-x="463" 
d="M319 556l109.002 -0.000976562c12 0 18 -4.66699 18 -14c0 -3.33301 -1.66699 -7.33301 -5 -12l-128 -157c-5.33301 -6.66699 -6.33301 -13 -3 -19l137 -316c4 -9.33301 6 -16.666 6 -21.999c0 -10.667 -6 -16 -18 -16h-99c-9.33301 0 -17.333 4.66699 -24 14
c-2.66699 4 -7.33398 13.333 -14.001 28l-81 198c-2 4 -4.33301 6 -7 6c-2 0 -4 -1.33301 -6 -4l-21 -27c-4.66699 -5.33301 -7 -12 -7 -20v-167c0 -12 -2.5 -19.667 -7.5 -23s-11.833 -5 -20.5 -5h-80c-12 0 -19.667 2.5 -23 7.5s-5 11.833 -5 20.5v644
c0 12 2.5 19.667 7.5 23s11.833 5 20.5 5h80c12 0 19.667 -2.5 23 -7.5s5 -11.833 5 -20.5v-260c0 -4.66699 1.66699 -7 5 -7c1.33301 0 3.66602 1.66699 6.99902 5l101 131c5.33301 6 8.33301 9.33301 9 10c4.66699 3.33301 11.667 5 21 5z" />
    <glyph glyph-name="l" unicode="l" horiz-adv-x="216" 
d="M176 672v-644c0 -12 -2.5 -19.667 -7.5 -23s-11.833 -5 -20.5 -5h-80c-12 0 -19.667 2.5 -23 7.5s-5 11.833 -5 20.5v644c0 12 2.5 19.667 7.5 23s11.833 5 20.5 5h80c12 0 19.667 -2.5 23 -7.5s5 -11.833 5 -20.5z" />
    <glyph glyph-name="m" unicode="m" horiz-adv-x="680" 
d="M40 28v500c0 12 2.5 19.667 7.5 23s11.833 5 20.5 5h89c5.33301 0 9.83301 -1.83301 13.5 -5.5s5.5 -8.16699 5.5 -13.5c0 -6.66699 2 -10 6 -10c1.33301 0 4.66602 1.66699 9.99902 5c14.667 12 29 20.333 43 25s29 7 45 7c18.667 0 36 -3.66699 52 -11
c11.333 -5.33301 24 -14 38 -26c7.33301 -6 12.666 -9 15.999 -9c2.66699 0 8.66699 3 18 9c19.333 14.667 37 24.5 53 29.5s34.333 7.5 55 7.5c35.333 0 64.333 -10.667 87 -32c27.333 -26 41 -65 41 -117v-387c0 -12 -2.5 -19.667 -7.5 -23s-11.833 -5 -20.5 -5h-80
c-8.66699 0 -15.5 1.66699 -20.5 5s-7.5 11 -7.5 23v358c0 13.333 -4.16699 24.5 -12.5 33.5s-19.833 13.5 -34.5 13.5c-21.333 0 -35.666 -9.33301 -42.999 -28c-4 -10.667 -6 -26 -6 -46v-331c0 -12 -2.5 -19.667 -7.5 -23s-11.833 -5 -20.5 -5h-80
c-12 0 -19.667 2.5 -23 7.5s-5 11.833 -5 20.5v358c0 13.333 -4.16699 24.5 -12.5 33.5s-19.833 13.5 -34.5 13.5c-21.333 0 -35.666 -9.33301 -42.999 -28c-4 -10.667 -6 -26 -6 -46v-331c0 -12 -2.5 -19.667 -7.5 -23s-11.833 -5 -20.5 -5h-80c-12 0 -19.667 2.5 -23 7.5
s-5 11.833 -5 20.5z" />
    <glyph glyph-name="n" unicode="n" 
d="M40 28v499.999c0 12 2.5 19.667 7.5 23s11.833 5 20.5 5h89c5.33301 0 9.83301 -1.83301 13.5 -5.5s5.5 -8.16699 5.5 -13.5c0 -6.66699 2.33301 -10 7 -10c0.666992 0 3.66699 1.66699 9 5c10 8.66699 20 15.334 30 20.001c17.333 8 36.666 12 57.999 12
c35.333 0 64.333 -10.667 87 -32c27.333 -26 41 -65 41 -117v-387c0 -12 -2.5 -19.667 -7.5 -23s-11.833 -5 -20.5 -5h-80c-12 0 -19.667 2.5 -23 7.5s-5 11.833 -5 20.5v358c0 13.333 -4.16699 24.5 -12.5 33.5s-19.833 13.5 -34.5 13.5
c-21.333 0 -35.666 -9.33301 -42.999 -28c-4 -10.667 -6 -26 -6 -46v-331c0 -12 -2.5 -19.667 -7.5 -23s-11.833 -5 -20.5 -5h-80c-12 0 -19.667 2.5 -23 7.5s-5 11.833 -5 20.5z" />
    <glyph glyph-name="o" unicode="o" 
d="M34 193v170c0 54 10.333 97 31 129c30.667 48 83.667 72 159 72c74.667 0 127.667 -24 159 -72c20.667 -32 31 -75 31 -129v-170c0 -54 -10.333 -97 -31 -129c-30.667 -48 -83.667 -72 -159 -72c-74.667 0 -127.667 24 -159 72c-20.667 32 -31 75 -31 129zM170 386v-216
c0 -24.667 5.66699 -42.334 17 -53.001c9.33301 -8.66699 21.666 -13 36.999 -13c14.667 0 26.667 4.33301 36 13c12 11.333 18 29 18 53v216c0 24.667 -5.16699 41.834 -15.5 51.501s-23.166 14.5 -38.499 14.5c-14.667 0 -26.667 -4.33301 -36 -13
c-12 -11.333 -18 -29 -18 -53z" />
    <glyph glyph-name="p" unicode="p" horiz-adv-x="452" 
d="M176 15l0.000976562 -131c0 -12 -2.5 -19.667 -7.5 -23s-11.833 -5 -20.5 -5h-80c-12 0 -19.667 2.5 -23 7.5s-5 11.833 -5 20.5v644c0 12 2.5 19.667 7.5 23s11.833 5 20.5 5h91c12 0 18 -4.66699 18 -14v-8c0 -4.66699 2.33301 -7 7 -7c0.666992 0 3.66699 1.66699 9 5
c11.333 10 21.333 17 30 21c15.333 7.33301 34.666 11 57.999 11c56 0 94 -23.333 114 -70c11.333 -26.667 17 -65.667 17 -117v-202c0 -50 -7 -89 -21 -117c-22 -44 -61 -66 -117 -66c-22.667 0 -41 3 -55 9l-38 21c-3.33301 -2.66699 -5 -5 -5 -7zM176.001 376v-196
c0 -17.333 2.33301 -31 7 -41c8 -16.667 22 -25 42 -25s34 8.33301 42 25c4.66699 10 7 23.667 7 41v196c0 17.333 -2.33301 31 -7 41c-8 16.667 -22 25 -42 25s-34 -8.33301 -42 -25c-4.66699 -10 -7 -23.667 -7 -41z" />
    <glyph glyph-name="q" unicode="q" horiz-adv-x="447" 
d="M271 -116l-0.000976562 131c-0.666992 5.33301 -1.66699 8 -3 8c-6 -1.33301 -17.667 -7.33301 -35 -18c-14 -8.66699 -34 -13 -60 -13c-44.667 0 -77 11.667 -97 35c-27.333 32 -41 89.333 -41 172v178c0 54.667 6 95 18 121c20.667 44 59.667 66 117 66
c22 0 40 -2.66699 54 -8l45 -20c3.33301 0 7.33301 2.33301 12 7l5 6c4.66699 4.66699 10.334 7 17.001 7h76c8.66699 0 15.5 -1.66699 20.5 -5s7.5 -11 7.5 -23v-644c0 -12 -2.5 -19.667 -7.5 -23s-11.833 -5 -20.5 -5h-80c-12 0 -19.667 2.5 -23 7.5s-5 11.833 -5 20.5z
M270.999 180v196c0 17.333 -2.33301 31 -7 41c-8 16.667 -22 25 -42 25s-34 -8.33301 -42 -25c-4.66699 -10 -7 -23.667 -7 -41v-196c0 -17.333 2.33301 -31 7 -41c8 -16.667 22 -25 42 -25s34 8.33301 42 25c4.66699 10 7 23.667 7 41z" />
    <glyph glyph-name="r" unicode="r" horiz-adv-x="323" 
d="M176 282l-0.000976562 -254c0 -12 -2.5 -19.667 -7.5 -23s-11.833 -5 -20.5 -5h-80c-12 0 -19.667 2.5 -23 7.5s-5 11.833 -5 20.5v500c0 12 2.5 19.667 7.5 23s11.833 5 20.5 5h91c12 0 18 -4.66699 18 -14v-11c0 -2.66699 1.66699 -5.33398 5 -8.00098l14 9
c14 10.667 25.333 18 34 22c15.333 6.66699 34 10 56 10c10 0 17.5 -1.5 22.5 -4.5s7.5 -9.5 7.5 -19.5v-97c0 -8 -2.5 -13.333 -7.5 -16s-10.5 -4 -16.5 -4h-19c-16 0 -28.667 -2 -38 -6s-18.666 -10.667 -27.999 -20c-14.667 -14.667 -23.5 -30.667 -26.5 -48
s-4.5 -39.666 -4.5 -66.999z" />
    <glyph glyph-name="s" unicode="s" horiz-adv-x="385" 
d="M20 41l-0.000976562 64.999c0 16 5.33301 24 16 24c3.33301 0 12.5 -2.16699 27.5 -6.5s32 -8.16602 51 -11.499s34.833 -5 47.5 -5c20.667 0 35.667 4.33301 45 13s14 19.334 14 32.001c0 18.667 -13.667 38 -41 58c-20 13.333 -34 23 -42 29
c-34.667 24.667 -59.667 46 -75 64c-28 32.667 -42 69.334 -42 110.001c0 38.667 11 71 33 97c30 36 77.333 54 142 54c50.667 0 87.834 -4.33301 111.501 -13s35.5 -21.334 35.5 -38.001v-63v-9c-2 -8 -8.33301 -12 -19 -12c-32 0 -54.667 4.33301 -68 13
c-7.33301 4.66699 -22.333 7 -45 7c-16.667 0 -28.167 -3.5 -34.5 -10.5s-9.5 -14.5 -9.5 -22.5c0 -17.333 16 -37 48 -59l45 -30c34.667 -25.333 59.667 -48.333 75 -69c21.333 -29.333 32 -64 32 -104c0 -50.667 -17.667 -90.334 -53 -119.001s-82.333 -43 -141 -43
c-64.667 0 -109 6.66699 -133 20c-13.333 7.33301 -20 17 -20 29z" />
    <glyph glyph-name="t" unicode="t" horiz-adv-x="287" 
d="M73 656l99.001 32.001c4 1.33301 7.33301 2 10 2c8 0 12 -5.66699 12 -17v-112c0 -8.66699 4.33301 -13 13 -13h39c8.66699 0 15.5 -1.66699 20.5 -5s7.5 -11 7.5 -23v-47c0 -12 -2.5 -19.667 -7.5 -23s-11.833 -5 -20.5 -5h-41c-7.33301 0 -11 -3.66699 -11 -11v-272
c0 -19.333 2.83301 -33 8.5 -41s17.167 -12 34.5 -12c7.33301 0 13 0.5 17 1.5s8.33301 1.5 13 1.5c8 0 12 -5 12 -15v-76c0 -10.667 -4.33301 -18.167 -13 -22.5s-27.334 -6.5 -56.001 -6.5c-54 0 -92.833 9.83301 -116.5 29.5s-35.5 53.167 -35.5 100.5v310
c0 5.33301 -1.33301 8.66602 -4 9.99902s-5.66699 2.33301 -9 3h-16c-7.33301 0 -12.666 1.66699 -15.999 5s-5 11 -5 23v47c0 12 1.66699 19.667 5 23s8.66602 5 15.999 5h16h4c6 2 9 6.33301 9 13v74c0 10.667 5 17.667 15 21z" />
    <glyph glyph-name="u" unicode="u" 
d="M408 528v-499.999c0 -12 -2.5 -19.667 -7.5 -23s-11.833 -5 -20.5 -5h-89c-5.33301 0 -9.83301 1.83301 -13.5 5.5s-5.5 8.16699 -5.5 13.5c0 6 -1.16699 9.16699 -3.5 9.5s-4.16602 0.5 -5.49902 0.5c-4 -2.66699 -6.33301 -4.33398 -7 -5.00098
c-12 -11.333 -25.5 -19.5 -40.5 -24.5s-30.833 -7.5 -47.5 -7.5c-35.333 0 -64.333 10.667 -87 32c-27.333 26 -41 65 -41 117v387c0 12 2.5 19.667 7.5 23s11.833 5 20.5 5h80c8.66699 0 15.5 -1.66699 20.5 -5s7.5 -11 7.5 -23v-358c0 -13.333 4.16699 -24.5 12.5 -33.5
s19.833 -13.5 34.5 -13.5c21.333 0 35.666 9.33301 42.999 28c4 10.667 6 26 6 46v331c0 12 2.5 19.667 7.5 23s11.833 5 20.5 5h80c8.66699 0 15.5 -1.66699 20.5 -5s7.5 -11 7.5 -23z" />
    <glyph glyph-name="v" unicode="v" horiz-adv-x="432" 
d="M25 556h100.004c9.33301 0 16 -2.83301 20 -8.5s7 -12.167 9 -19.5l12 -49c14 -57.333 24 -103 30 -137l12.5 -71c2.33301 -13.333 4.16602 -24.833 5.49902 -34.5s3.66602 -14.5 6.99902 -14.5s5.83301 6.5 7.5 19.5s3.5 25.5 5.5 37.5c6 32 11 59.667 15 83
c8 42 16.333 81.333 25 118l12 49c4 18 14 27 30 27h96c15.333 0 20.666 -9 15.999 -27l-20 -79l-57 -222c-28.667 -108 -47.667 -174.667 -57 -200c-4 -12.667 -8.33301 -20.5 -13 -23.5s-11.334 -4.5 -20.001 -4.5h-93c-10.667 -0 -17.834 2.33301 -21.501 7
s-6.5 11.667 -8.5 21l-134 500c-2 5.33301 -2.16699 11.333 -0.5 18s8.83398 10 21.501 10z" />
    <glyph glyph-name="w" unicode="w" horiz-adv-x="644" 
d="M23 556l88.002 -0.000976562c10 0 17.167 -2.16699 21.5 -6.5s7.5 -11.5 9.5 -21.5l20 -88c7.33301 -32.667 14.166 -68.5 20.499 -107.5l19.5 -116.5c0 -4 2.33301 -6.66699 7 -8c1.33301 2 2.5 4.16699 3.5 6.5s1.83301 4.83301 2.5 7.5l47 173
c2 6.66699 2.33301 13.334 1 20.001l-28 113c-1.33301 4 -2 8 -2 12c0 10.667 7 16 21 16h95c7.33301 0 13.333 -1.66699 18 -5s8 -11 10 -23l39 -206c2 -10.667 4.16699 -28.667 6.5 -54s5.83301 -38 10.5 -38c4 0 12.333 37.667 25 113c8 50 19.333 100 34 150l10 35
c2.66699 10 5.66699 17.167 9 21.5s9.66602 6.5 18.999 6.5h97c10 0 15 -5.33301 15 -16l-2 -12l-133 -502c-2.66699 -9.33301 -6.66699 -16 -12 -20s-11 -6 -17 -6h-94c-6 0 -11.333 2 -16 6s-8 10.667 -10 20l-31 149c-2 6.66699 -4.66699 10 -8 10
c-1.33301 -2 -2.33301 -3.33301 -3 -4c-2.66699 -3.33301 -4 -5.33301 -4 -6l-40 -149c-2.66699 -10 -6.5 -16.833 -11.5 -20.5s-11.167 -5.5 -18.5 -5.5h-92c-10 0 -16.5 2 -19.5 6s-5.5 10.667 -7.5 20l-119 502c-0.666992 4 -1 7.33301 -1 10c0 12 6.66699 18 20 18z" />
    <glyph glyph-name="x" unicode="x" horiz-adv-x="429" 
d="M43 556l95 -0.000976562c15.333 0 27 -8.33301 35 -25l36 -80c4 -7.33301 7.33301 -11 10 -11c3.33301 0 6.66602 4 9.99902 12l36 79c7.33301 16.667 18.333 25 33 25h100c14 0 21 -4 21 -12c0 -3.33301 -1.33301 -7.66602 -4 -12.999l-112 -228
c-4 -6.66699 -6 -12 -6 -16l6 -14l117 -246c2.66699 -6.66699 4 -12 4 -16c0 -4.66699 -2.16699 -7.66699 -6.5 -9s-10.5 -2 -18.5 -2h-90c-7.33301 0 -13.5 1.16699 -18.5 3.5s-8.5 5.83301 -10.5 10.5l-57 124c-3.33301 4.66699 -5.66602 7 -6.99902 7l-6 -7l-52 -110
c-5.33301 -11.333 -11 -18.833 -17 -22.5s-13.333 -5.5 -22 -5.5h-96c-12 -0 -18 5.33301 -18 16c0 4 1 8 3 12l123 251l4 12l-6 16l-106 224c-2 4 -3 7.66699 -3 11c0 6 2.66699 9.83301 8 11.5s10.333 2.5 15 2.5z" />
    <glyph glyph-name="y" unicode="y" horiz-adv-x="413" 
d="M25 556l96.002 -0.000976562c10.667 0 17.667 -2.16699 21 -6.5s6 -11.166 8 -20.499l48 -236c0.666992 -4 1.66699 -9.33301 3 -16s4.66602 -10 9.99902 -10c4.66699 0 8.66699 8.66699 12 26l43 236c2.66699 18 12.334 27 29.001 27h94c14.667 0 22 -5 22 -15
c0 -2.66699 -0.666992 -6.66699 -2 -12l-113 -513c-14.667 -66 -37.334 -110.333 -68.001 -133c-28 -20.667 -65.667 -31 -113 -31c-42 0 -70 4 -84 12c-7.33301 4 -11 11.667 -11 23v75c0 12.667 6 19 18 19c5.33301 0 13.666 -1.66699 24.999 -5
c4 -0.666992 8 -1.5 12 -2.5s9.33301 -1.5 16 -1.5c14 0 23.5 2.66699 28.5 8s7.5 13 7.5 23c0 8 -1 15 -3 21l-118 505c-4 18 2.33301 27 19 27z" />
    <glyph glyph-name="z" unicode="z" horiz-adv-x="420" 
d="M365 0h-309.998c-12 0 -19.667 2.5 -23 7.5s-5 11.833 -5 20.5v72c0 5.33301 0.666992 9.83301 2 13.5s3.66602 8.16699 6.99902 13.5l182 303c2.66699 4 3.16699 7.5 1.5 10.5s-5.5 4.5 -11.5 4.5h-136c-12 0 -19.667 2.5 -23 7.5s-5 11.833 -5 20.5v55
c0 12 2.5 19.667 7.5 23s11.833 5 20.5 5h293c8.66699 0 15.5 -1.66699 20.5 -5s7.5 -11 7.5 -23v-62c0 -4 -2.66699 -10.667 -8 -20l-188 -313c-2.66699 -4 -2.83398 -7.5 -0.500977 -10.5s5.83301 -4.5 10.5 -4.5h158c12 0 19.667 -2.5 23 -7.5s5 -11.833 5 -20.5v-62
c0 -12 -2.5 -19.667 -7.5 -23s-11.833 -5 -20.5 -5z" />
    <glyph glyph-name="braceleft" unicode="{" horiz-adv-x="349" 
d="M103 369l-0.00195312 244c0 39.333 5.33301 69 16 89c18 33.333 51 50 99 50h53c12 0 19.667 -2.5 23 -7.5s5 -11.833 5 -20.5v-46c0 -7.33301 -1.83301 -12.833 -5.5 -16.5s-9.16699 -5.5 -16.5 -5.5h-8c-11.333 0 -20.166 -3.16699 -26.499 -9.5
s-9.5 -16.166 -9.5 -29.499v-258c0 -24.667 -2.83301 -42.834 -8.5 -54.501s-17.834 -23.5 -36.501 -35.5v-4c18.667 -11.333 30.834 -22.833 36.501 -34.5s8.5 -30.167 8.5 -55.5v-258c0 -8 0.666992 -14 2 -18c4.66699 -14 16 -21 34 -21h8c4 0 8.66699 -0.833008 14 -2.5
s8 -8.16699 8 -19.5v-46c0 -12 -2.5 -19.667 -7.5 -23s-11.833 -5 -20.5 -5h-53c-48 0 -81 16.667 -99 50c-10.667 20 -16 49.667 -16 89v244c0 20 -4.33301 34 -13 42c-5.33301 4.66699 -12.666 7 -21.999 7h-10c-12 0 -19.667 2.5 -23 7.5s-5 11.833 -5 20.5v50
c0 8.66699 1.66699 15.5 5 20.5s11 7.5 23 7.5h10c12 0 20.833 4.5 26.5 13.5s8.5 20.833 8.5 35.5z" />
    <glyph glyph-name="bar" unicode="|" horiz-adv-x="189" 
d="M139 745v-997c0 -12 -2.5 -19.667 -7.5 -23s-11.833 -5 -20.5 -5h-33c-8.66699 0 -15.5 1.66699 -20.5 5s-7.5 11 -7.5 23v997c0 8.66699 1.66699 15.5 5 20.5s11 7.5 23 7.5h33c12 0 19.667 -2.5 23 -7.5s5 -11.833 5 -20.5z" />
    <glyph glyph-name="braceright" unicode="}" horiz-adv-x="349" 
d="M246 613v-243.999c0 -20 4.33301 -34 13 -42c5.33301 -4.66699 12.666 -7 21.999 -7h10c12 0 19.667 -2.5 23 -7.5s5 -11.833 5 -20.5v-50c0 -8.66699 -1.66699 -15.5 -5 -20.5s-11 -7.5 -23 -7.5h-10c-12 0 -20.833 -4.5 -26.5 -13.5s-8.5 -20.833 -8.5 -35.5v-244
c0 -39.333 -5.33301 -69 -16 -89c-18 -33.333 -51 -50 -99 -50h-53c-12 0 -19.667 2.5 -23 7.5s-5 11.833 -5 20.5v46c0 7.33301 1.83301 12.833 5.5 16.5s9.16699 5.5 16.5 5.5h8c11.333 0 20.166 3.16699 26.499 9.5s9.5 16.166 9.5 29.499v258
c0 24.667 2.83301 43 8.5 55s17.834 23.667 36.501 35v4c-19.333 12.667 -31.666 24.5 -36.999 35.5s-8 29.167 -8 54.5v258c0 8 -0.666992 14 -2 18c-4.66699 14 -16 21 -34 21h-8c-4 0 -7 0.333008 -9 1c-8.66699 2.66699 -13 9.66699 -13 21v46
c0 8.66699 1.66699 15.5 5 20.5s11 7.5 23 7.5h53c48 0 81 -16.667 99 -50c10.667 -20 16 -49.667 16 -89z" />
    <glyph glyph-name="asciitilde" unicode="~" horiz-adv-x="471" 
d="M395 409l29.998 -21c5.33301 -3.33301 8 -9.33301 8 -18c0 -19.333 -13.167 -40.833 -39.5 -64.5s-54.166 -35.5 -83.499 -35.5c-17.333 0 -34 3 -50 9c-6 2 -22.667 11 -50 27c-19.333 11.333 -35.666 17 -48.999 17c-11.333 0 -21.333 -3 -30 -9
c-6 -4 -11.167 -9.33301 -15.5 -16l-11 -17.5c-3 -5 -7.5 -7.5 -13.5 -7.5c-2 0 -4.66699 1 -8 3s-5.66602 3.33301 -6.99902 4l-30 21c-8 6 -12 13 -12 21c0 18.667 15.5 39.5 46.5 62.5s57.833 34.5 80.5 34.5c18 0 35.333 -3.66699 52 -11l51 -27.5
c18 -9.66699 33.333 -14.5 46 -14.5c11.333 0 20.5 2.33301 27.5 7s13.167 11.5 18.5 20.5s8.33301 13.833 9 14.5c4 5.33301 9 8 15 8c2 0 4.66699 -1 8 -3s5.66602 -3.33301 6.99902 -4z" />
    <glyph glyph-name="c128" horiz-adv-x="638" 
d="M36 700l439.998 -0.00195312c14.667 0 22 -6.33301 22 -19v-95c0 -13.333 -8.33301 -20 -25 -20h-136c-12 0 -18 -6 -18 -18v-82c0 -6.66699 2 -10 6 -10c13.333 6 29.333 11.667 48 17s37.334 8 56.001 8c44 0 79.333 -11 106 -33c35.333 -29.333 53 -76.333 53 -141
v-148c0 -63.333 -21 -108.333 -63 -135c-29.333 -18.667 -66.333 -28 -111 -28c-20.667 0 -34.667 2.33301 -42 7s-11 13.334 -11 26.001v86c0 7.33301 1.33301 12.833 4 16.5s9.33398 5.5 20.001 5.5h15c10 0 19.167 6 27.5 18s12.5 25.333 12.5 40v63
c0 26 -6.66699 44.667 -20 56c-10 8.66699 -23.667 13 -41 13c-24 0 -40.667 -9.33301 -50 -28c-6.66699 -13.333 -10 -30.666 -10 -51.999v-212c0 -15.333 -2.83301 -25 -8.5 -29s-14.5 -6 -26.5 -6h-78c-12 -0 -20 1.33301 -24 4c-7.33301 5.33301 -11 15.666 -11 30.999
v513c0 12 -6 18 -18 18h-117c-8.66699 0 -14.334 2 -17.001 6s-4 9 -4 15v89c0 6.66699 1.33301 12.334 4 17.001s8.33398 7 17.001 7z" />
    <glyph glyph-name="c142" horiz-adv-x="638" 
d="M36 700l439.999 -0.000976562c14.667 0 22 -6.33301 22 -19v-95c0 -13.333 -8.33301 -20 -25 -20h-136c-12 0 -18 -6 -18 -18v-82c0 -6.66699 2 -10 6 -10c13.333 6 29.333 11.667 48 17s37.334 8 56.001 8c44 0 79.333 -11 106 -33c35.333 -29.333 53 -76.333 53 -141
v-272c0 -15.333 -2.83301 -25 -8.5 -29s-14.5 -6 -26.5 -6h-78c-15.333 0 -25 2.83301 -29 8.5s-6 14.5 -6 26.5v223c0 26 -6.66699 44.667 -20 56c-10 8.66699 -23.667 13 -41 13c-24 0 -40.667 -9.33301 -50 -28c-6.66699 -13.333 -10 -30.666 -10 -51.999v-212
c0 -15.333 -2.83301 -25 -8.5 -29s-14.5 -6 -26.5 -6h-78c-12 -0 -20 1.33301 -24 4c-7.33301 5.33301 -11 15.666 -11 30.999v513c0 12 -6 18 -18 18h-117c-8.66699 0 -14.334 2 -17.001 6s-4 9 -4 15v89c0 6.66699 1.33301 12.334 4 17.001s8.33398 7 17.001 7z" />
    <glyph glyph-name="c143" horiz-adv-x="536" 
d="M451 0h-94.001c-5.33301 0 -10 -1.5 -14 -4.5s-6 -8.16699 -6 -15.5v-72c0 -12 -1.33301 -20 -4 -24c-5.33301 -7.33301 -15.666 -11 -30.999 -11h-68c-12 0 -20 1.33301 -24 4c-7.33301 5.33301 -11 15.666 -11 30.999v72c0 13.333 -6.66699 20 -20 20h-94
c-15.333 0 -25 2.83301 -29 8.5s-6 14.5 -6 26.5v630c0 12 1.33301 20 4 24c5.33301 7.33301 15.666 11 30.999 11h78c15.333 0 25 -2.83301 29 -8.5s6 -14.5 6 -26.5v-522c0 -3.33301 1.33301 -6.66602 4 -9.99902s6.33398 -5 11.001 -5h109c10.667 0 16 5.33301 16 16v521
c0 12 1.33301 20 4 24c5.33301 7.33301 15.666 11 30.999 11h78c15.333 0 25 -2.83301 29 -8.5s6 -14.5 6 -26.5v-630c0 -12 -1.33301 -20 -4 -24c-5.33301 -7.33301 -15.666 -11 -30.999 -11z" />
    <glyph glyph-name="c144" horiz-adv-x="455" 
d="M47 28v542.998h-39c-10 0 -17.167 1.83301 -21.5 5.5s-6.5 8.16699 -6.5 13.5v31c0 4.66699 0.666992 8 2 10c4 6 12.667 9 26 9h39v32c0 12 2.5 19.667 7.5 23s11.833 5 20.5 5h80c12 0 19.667 -2.5 23 -7.5s5 -11.833 5 -20.5v-32h85c10 0 17.167 -1.83301 21.5 -5.5
s6.5 -8.16699 6.5 -13.5v-31c0 -4.66699 -0.666992 -8 -2 -10c-4 -6 -12.667 -9 -26 -9h-85v-57c0 -3.33301 3 -5.66602 9 -6.99902c7.33301 0 18.5 6.16699 33.5 18.5s35.5 18.5 61.5 18.5c35.333 0 64.333 -10.667 87 -32c27.333 -26 41 -65 41 -117v-332
c0 -65.333 -7.66699 -112.666 -23 -141.999c-25.333 -48 -74.333 -72 -147 -72c-30.667 0 -49.334 2.5 -56.001 7.5s-10 13.167 -10 24.5v69c0 13.333 5.66699 20 17 20l14 -2l16 -2c16.667 0 29.667 6 39 18s14 30 14 54v333c0 13.333 -4.16699 24.5 -12.5 33.5
s-19.833 13.5 -34.5 13.5c-21.333 0 -35.666 -9.33301 -42.999 -28c-4 -10.667 -6 -26 -6 -46v-316c0 -12 -2.5 -19.667 -7.5 -23s-11.833 -5 -20.5 -5h-80c-12 0 -19.667 2.5 -23 7.5s-5 11.833 -5 20.5z" />
    <glyph glyph-name="c158" horiz-adv-x="455" 
d="M47 28l-0.000976562 542.999h-39c-10 0 -17.167 1.83301 -21.5 5.5s-6.5 8.16699 -6.5 13.5v31c0 4.66699 0.666992 8 2 10c4 6 12.667 9 26 9h39v32c0 12 2.5 19.667 7.5 23s11.833 5 20.5 5h80c12 0 19.667 -2.5 23 -7.5s5 -11.833 5 -20.5v-32h85
c10 0 17.167 -1.83301 21.5 -5.5s6.5 -8.16699 6.5 -13.5v-31c0 -4.66699 -0.666992 -8 -2 -10c-4 -6 -12.667 -9 -26 -9h-85v-57c0 -3.33301 3 -5.66602 9 -6.99902c7.33301 0 18.5 6.16699 33.5 18.5s35.5 18.5 61.5 18.5c35.333 0 64.333 -10.667 87 -32
c27.333 -26 41 -65 41 -117v-367c0 -12 -2.5 -19.667 -7.5 -23s-11.833 -5 -20.5 -5h-80c-8.66699 0 -15.5 1.66699 -20.5 5s-7.5 11 -7.5 23v343c0 13.333 -4.16699 24.5 -12.5 33.5s-19.833 13.5 -34.5 13.5c-21.333 0 -35.666 -9.33301 -42.999 -28
c-4 -10.667 -6 -26 -6 -46v-316c0 -12 -2.5 -19.667 -7.5 -23s-11.833 -5 -20.5 -5h-80c-12 0 -19.667 2.5 -23 7.5s-5 11.833 -5 20.5z" />
    <glyph glyph-name="nonbreakingspace" unicode="&#xa0;" horiz-adv-x="500" 
 />
    <glyph glyph-name="exclamdown" unicode="&#xa1;" horiz-adv-x="530" 
d="M28 700h114.001c9.33301 0 16.333 -2.16699 21 -6.5s7.66699 -9.5 9 -15.5l86 -251c8 -23.333 13 -35 15 -35c4 0 8.33301 9.33301 13 28l6 25l72 234c2.66699 8.66699 6.66699 14.334 12 17.001s11 4 17 4h107c13.333 0 20 -5 20 -15v-6
c-1.33301 -2.66699 -2 -4.33398 -2 -5.00098l-155 -479c-26 -80.667 -58 -135.667 -96 -165c-32.667 -25.333 -79 -38 -139 -38h-16c-25.333 0 -43 1.33301 -53 4c-16 4.66699 -24 14 -24 28v87c0 7.33301 2.33301 12.333 7 15s10 4 16 4c24 0 40.167 -1.16699 48.5 -3.5
s16.166 -3.5 23.499 -3.5c15.333 0 29 5 41 15s18 22 18 36s-1 23.667 -3 29l-175 471c-2 5.33301 -1.83301 11 0.5 17s7.83301 9 16.5 9zM352.001 731h-169.999c-20 0 -35.833 6.83301 -47.5 20.5s-17.5 28.5 -17.5 44.5v14c0 3.33301 0.666992 6.5 2 9.5
s4.66602 4.5 9.99902 4.5h61c9.33301 0 14 -4.66699 14 -14c0 -12.667 11.333 -19 34 -19h58c22.667 0 34 6.33301 34 19c0 9.33301 4.66699 14 14 14h61c4.66699 0 7.66699 -1.5 9 -4.5s2.33301 -6.16699 3 -9.5v-14c0 -16 -5.66699 -30.833 -17 -44.5
s-27.333 -20.5 -48 -20.5z" />
    <glyph glyph-name="cent" unicode="&#xa2;" horiz-adv-x="413" 
d="M25 556l96.002 -0.000976562c10.667 0 17.667 -2.16699 21 -6.5s6 -11.166 8 -20.499l48 -236c0.666992 -4 1.66699 -9.33301 3 -16s4.66602 -10 9.99902 -10c4.66699 0 8.66699 8.66699 12 26l43 236c2.66699 18 12.334 27 29.001 27h94c14.667 0 22 -5 22 -15
c0 -2.66699 -0.666992 -6.66699 -2 -12l-113 -513c-14.667 -66 -37.334 -110.333 -68.001 -133c-28 -20.667 -65.667 -31 -113 -31c-42 0 -70 4 -84 12c-7.33301 4 -11 11.667 -11 23v75c0 12.667 6 19 18 19c5.33301 0 13.666 -1.66699 24.999 -5
c4 -0.666992 8 -1.5 12 -2.5s9.33301 -1.5 16 -1.5c14 0 23.5 2.66699 28.5 8s7.5 13 7.5 23c0 8 -1 15 -3 21l-118 505c-4 18 2.33301 27 19 27zM279.002 597.999l-144 -0.000976562c-18 0 -32.167 5.5 -42.5 16.5s-15.5 25.167 -15.5 42.5v19c0 8 3.66699 12 11 12h55
c8 0 12 -4 12 -12v-6c0 -7.33301 3.16699 -12.166 9.5 -14.499s13.5 -3.5 21.5 -3.5h42c10 0 17.667 1 23 3s8 7 8 15v6c0 8 4 12 12 12h55c7.33301 0 11 -4 11 -12v-19c0 -17.333 -5.16699 -31.5 -15.5 -42.5s-24.5 -16.5 -42.5 -16.5z" />
    <glyph glyph-name="sterling" unicode="&#xa3;" horiz-adv-x="350" 
d="M162 220l-0.000976562 445.001c0 12 1.33301 20 4 24c5.33301 7.33301 15.666 11 30.999 11h78c15.333 0 25 -2.83301 29 -8.5s6 -14.5 6 -26.5v-479c0 -56 -9.33301 -98.333 -28 -127c-29.333 -44.667 -83.666 -67 -162.999 -67c-48.667 0 -80.667 3.16699 -96 9.5
s-23 14.5 -23 24.5v96c0 12 5.66699 18 17 18c6 0 11.333 -0.5 16 -1.5l17 -3.5c6.66699 -1.33301 15.334 -2.33301 26.001 -3s17 -1 19 -1c30 0 49.333 8.33301 58 25c6 11.333 9 32.666 9 63.999z" />
    <glyph glyph-name="currency" unicode="&#xa4;" horiz-adv-x="702" 
d="M49 99l60.9951 59.998c-16.667 25.333 -28.834 50.666 -36.501 75.999s-11.5 52.333 -11.5 81c0 62.667 16 117.667 48 165l-61 60c-6.66699 6.66699 -10 13.334 -10 20.001c0 4.66699 1.5 9 4.5 13s4.83301 6.33301 5.5 7l41 41c6.66699 6.66699 13.334 10 20.001 10
s13.334 -3.33301 20.001 -10l60 -61c24.667 16.667 50.167 28.667 76.5 36s54.833 11 85.5 11c32 0 60.167 -3.5 84.5 -10.5s49.5 -19.167 75.5 -36.5l60 61c6.66699 6.66699 13.334 10 20.001 10c4 0 9 -2 15 -6c2 -1.33301 3.66699 -2.66602 5 -3.99902l41 -41
c6.66699 -6.66699 10 -13.334 10 -20.001s-3.33301 -13.334 -10 -20.001l-61 -60c16.667 -25.333 28.834 -50.666 36.501 -75.999s11.5 -52.333 11.5 -81c0 -62.667 -16 -117.667 -48 -165l61 -60c4 -3.33301 6.66699 -6.66602 8 -9.99902s2 -6.66602 2 -9.99902
c0 -4.66699 -1.16699 -8.83398 -3.5 -12.501s-4.5 -6.16699 -6.5 -7.5l-41 -41c-6.66699 -6.66699 -13.334 -10 -20.001 -10s-13.334 3.33301 -20.001 10l-60 61c-25.333 -16.667 -50.666 -28.834 -75.999 -36.501s-52.666 -11.5 -81.999 -11.5c-62 0 -116.667 16 -164 48
l-60 -61c-3.33301 -4 -6.66602 -6.66699 -9.99902 -8s-6.66602 -2 -9.99902 -2c-4 0 -7.66699 1 -11 3s-6.33301 4.33301 -9 7l-41 41c-6.66699 6.66699 -10 13.334 -10 20.001s3.33301 13.334 10 20.001zM350.995 149.998c46.667 0 86.667 16.667 120 50s50 73.333 50 120
s-16.667 86.667 -50 120s-73.333 50 -120 50s-86.667 -16.667 -120 -50s-50 -73.333 -50 -120s16.667 -86.667 50 -120s73.333 -50 120 -50z" />
    <glyph glyph-name="yen" unicode="&#xa5;" horiz-adv-x="455" 
d="M50 31l0.000976562 639c0 10 3.66699 17.5 11 22.5s14.333 7.5 21 7.5h215v65c0 12 1.33301 20 4 24c5.33301 7.33301 15.666 11 30.999 11h78c15.333 0 25 -2.83301 29 -8.5s6 -14.5 6 -26.5v-83v-90c0 -16 -7.66699 -24 -23 -24h-211c-8.66699 0 -13 -4.33301 -13 -13
v-518c0 -16.667 -2 -27 -6 -31s-11 -6 -21 -6h-93c-8 -0 -14.667 2.33301 -20 7s-8 12.667 -8 24z" />
    <glyph glyph-name="section" unicode="&#xa7;" horiz-adv-x="483" 
d="M40 246l-0.00292969 99.001c0 31.333 11.833 54.166 35.5 68.499s35.5 23.166 35.5 26.499c0 14.667 -7.83301 27.5 -23.5 38.5s-23.5 35.5 -23.5 73.5c0 41.333 12.667 75.333 38 102c34 36 88.667 54 164 54c32.667 0 64.667 -2.83301 96 -8.5s47 -14.834 47 -27.501
v-92c0 -5.33301 -0.666992 -9.5 -2 -12.5s-4.66602 -4.5 -9.99902 -4.5c-11.333 0 -21.666 2 -30.999 6c-19.333 8.66699 -44.666 13 -75.999 13c-30 0 -51.667 -6 -65 -18c-8.66699 -8 -13 -18 -13 -30c0 -20.667 13.667 -38 41 -52c7.33301 -4 23.333 -10.667 48 -20
c33.333 -13.333 57.333 -24 72 -32c46.667 -26 70 -59 70 -99v-103c0 -29.333 -11.333 -50.333 -34 -63s-34 -24.667 -34 -36c0 -6 7.33301 -18 22 -36s22 -48 22 -90c0 -50 -19.667 -89.333 -59 -118c-36.667 -26.667 -88 -40 -154 -40c-60 0 -100 6 -120 18
c-11.333 6.66699 -17 17 -17 31v79c0 4.66699 1.5 8.83398 4.5 12.501s6.5 5.5 10.5 5.5c5.33301 0 21.333 -4.33301 48 -13c14.667 -4.66699 32.334 -7 53.001 -7c30.667 0 52.667 6.16699 66 18.5s20 27.5 20 45.5c0 23.333 -15.333 42 -46 56
c-10.667 5.33301 -28.334 12.333 -53.001 21c-38.667 14.667 -66.667 28.667 -84 42c-32 24.667 -48 55.334 -48 92.001zM234.997 351.001l-27.001 13.001c-4 -2 -8.33301 -6.33301 -13 -13s-7 -12.667 -7 -18v-45c0 -13.333 4.33301 -24.333 13 -33
c4.66699 -4.66699 25.667 -16.334 63 -35.001l14 -7c4.66699 2.66699 8 5 10 7c4.66699 6 7 14 7 24v33c0 16 -3.16699 28.833 -9.5 38.5s-23.166 21.5 -50.499 35.5z" />
    <glyph glyph-name="dieresis" unicode="&#xa8;" horiz-adv-x="481" 
d="M40 35l0.000976562 630c0 12 1.33301 20 4 24c5.33301 7.33301 15.666 11 30.999 11h328c15.333 0 25 -2.83301 29 -8.5s6 -14.5 6 -26.5v-71c0 -7.33301 -2.5 -13.166 -7.5 -17.499s-12.833 -6.5 -23.5 -6.5h-201c-12 0 -18 -5.33301 -18 -16v-105
c0 -12 3.66699 -18 11 -18h158c6.66699 0 12.167 -1.66699 16.5 -5s6.5 -8 6.5 -14v-91c0 -13.333 -6.66699 -20 -20 -20h-159c-8.66699 0 -13 -5.66699 -13 -17v-142c0 -8 3.66699 -12 11 -12h225c11.333 0 18.666 -2.16699 21.999 -6.5s5 -10.5 5 -18.5v-70
c0 -12 -1.33301 -20 -4 -24c-5.33301 -7.33301 -15.666 -11 -30.999 -11h-341c-12 0 -20 1.33301 -24 4c-7.33301 5.33301 -11 15.666 -11 30.999zM208.001 835v-61c0 -8.66699 -1.66699 -15.5 -5 -20.5s-11.333 -7.5 -24 -7.5h-63c-12 0 -19.833 2.66699 -23.5 8
s-5.5 12 -5.5 20v61c0 8.66699 1.66699 15.5 5 20.5s11.333 7.5 24 7.5h63c12 0 19.833 -2.66699 23.5 -8s5.5 -12 5.5 -20zM400.001 835v-61c0 -8.66699 -1.66699 -15.5 -5 -20.5s-11.333 -7.5 -24 -7.5h-63c-12 0 -19.833 2.66699 -23.5 8s-5.5 12 -5.5 20v61
c0 8.66699 1.66699 15.5 5 20.5s11.333 7.5 24 7.5h63c12 0 19.833 -2.66699 23.5 -8s5.5 -12 5.5 -20z" />
    <glyph glyph-name="copyright" unicode="&#xa9;" horiz-adv-x="796" 
d="M119 350c0 -76.667 26.999 -142.333 80.999 -197s120 -82 198 -82s144 27 198 81s81 120 81 198c0 77.333 -27 143.333 -81 198s-120 82 -198 82c-77.333 0 -143.166 -27.167 -197.499 -81.5s-81.5 -120.5 -81.5 -198.5zM39.999 350.001
c0 99.333 34.833 183.833 104.5 253.5s154.167 104.5 253.5 104.5s183.833 -34.833 253.5 -104.5s104.5 -154.167 104.5 -253.5s-34.833 -183.833 -104.5 -253.5s-154.167 -104.5 -253.5 -104.5s-183.833 34.833 -253.5 104.5s-104.5 154.167 -104.5 253.5zM498.999 527.001
l-0.000976562 -49.002c0 -9.33301 -4 -14 -12 -14c-1.33301 0 -9.33301 1.66699 -24 5c-3.33301 0.666992 -8.5 1.33398 -15.5 2.00098s-13.167 1 -18.5 1c-19.333 0 -34.333 -4.66699 -45 -14s-16 -26.333 -16 -51v-112c0 -17.333 5.66699 -31.333 17 -42
s28.666 -16 51.999 -16c14 0 24 0.666992 30 2c16 3.33301 26 5 30 5c7.33301 0 11 -4 11 -12v-48c0 -10 -8.16699 -16.5 -24.5 -19.5s-40.166 -4.5 -71.499 -4.5c-62 0 -103.333 16 -124 48c-12.667 19.333 -19 50.333 -19 93v109c0 38.667 6.33301 67.334 19 86.001
c22.667 34 65.334 51 128.001 51c35.333 0 58 -1.66699 68 -5s15 -8.33301 15 -15z" />
    <glyph glyph-name="ordfeminine" unicode="&#xaa;" horiz-adv-x="463" 
d="M409 672v-86.001c0 -6 -1.33301 -10.333 -4 -13s-7 -4 -13 -4c-28.667 0 -47.667 2 -57 6s-26 6 -50 6c-38 0 -63.333 -10.333 -76 -31c-7.33301 -12 -11 -31 -11 -57v-24c0 -10.667 4.66699 -16 14 -16h147c13.333 0 20 -6.66699 20 -20v-98
c0 -5.33301 -2.16699 -10.333 -6.5 -15s-7.5 -7 -9.5 -7h-151c-9.33301 0 -14 -5 -14 -15v-57c0 -47.333 10 -79 30 -95c12.667 -10 35.667 -15 69 -15c12 0 22.833 0.5 32.5 1.5l23.5 2.5l40 5c6.66699 0 11.334 -1.33301 14.001 -4s4.66699 -7 6 -13v-91
c0 -13.333 -6.33301 -22.666 -19 -27.999c-18.667 -8 -56.334 -12 -113.001 -12c-104 0 -172 29 -204 87c-18 32 -27 89.667 -27 173v215c0 98 19.667 163.333 59 196c36 30 91.667 45 167 45c47.333 0 81.333 -2 102 -6s31 -14 31 -30z" />
    <glyph glyph-name="guillemotleft" unicode="&#xab;" horiz-adv-x="538" 
d="M55 315l89.001 155.002c5.33301 9.33301 8.66602 14.666 9.99902 15.999c4.66699 4.66699 12 7 22 7h77c6 0 10.333 -2 13 -6s4 -8 4 -12c0 -4.66699 -1.33301 -9.33398 -4 -14.001l-81 -146c-3.33301 -6.66699 -5 -11.667 -5 -15s1.66699 -8.33301 5 -15l81 -146
c2.66699 -3.33301 4 -8 4 -14c0 -12 -5.66699 -18 -17 -18h-77c-7.33301 0 -13 1.16699 -17 3.5s-9 8.83301 -15 19.5l-89 155c-3.33301 5.33301 -5 10.333 -5 15s1.66699 9.66699 5 15zM273.001 315.002l89.001 155.002c5.33301 9.33301 8.66602 14.666 9.99902 15.999
c4.66699 4.66699 12 7 22 7h77c6 0 10.333 -2 13 -6s4 -8 4 -12c0 -4.66699 -1.33301 -9.33398 -4 -14.001l-81 -146c-3.33301 -6.66699 -5 -11.667 -5 -15s1.66699 -8.33301 5 -15l81 -146c2.66699 -3.33301 4 -8 4 -14c0 -12 -5.66699 -18 -17 -18h-77
c-7.33301 0 -13 1.16699 -17 3.5s-9 8.83301 -15 19.5l-89 155c-3.33301 5.33301 -5 10.333 -5 15s1.66699 9.66699 5 15z" />
    <glyph glyph-name="minus" unicode="&#xad;" horiz-adv-x="331" 
d="M263 238h-195c-12 0 -19.667 2.5 -23 7.5s-5 11.833 -5 20.5v62c0 12 2.5 19.667 7.5 23s11.833 5 20.5 5h195c12 0 19.667 -2.5 23 -7.5s5 -11.833 5 -20.5v-62c0 -12 -2.5 -19.667 -7.5 -23s-11.833 -5 -20.5 -5z" />
    <glyph glyph-name="registered" unicode="&#xae;" horiz-adv-x="796" 
d="M119 350c0 -76.667 26.999 -142.333 80.999 -197s120 -82 198 -82s144 27 198 81s81 120 81 198c0 77.333 -27 143.333 -81 198s-120 82 -198 82c-77.333 0 -143.166 -27.167 -197.499 -81.5s-81.5 -120.5 -81.5 -198.5zM39.999 350.001
c0 99.333 34.833 183.833 104.5 253.5s154.167 104.5 253.5 104.5s183.833 -34.833 253.5 -104.5s104.5 -154.167 104.5 -253.5s-34.833 -183.833 -104.5 -253.5s-154.167 -104.5 -253.5 -104.5s-183.833 34.833 -253.5 104.5s-104.5 154.167 -104.5 253.5zM287.999 541.001
h119c57.333 0 98.333 -12 123 -36c18.667 -18 28 -42.667 28 -74c0 -37.333 -11.5 -56.333 -34.5 -57s-34.5 -12.667 -34.5 -36l3 -9l76 -144c6.66699 -13.333 2.66699 -20 -12 -20h-70c-12 0 -20.333 4 -25 12l-68 136c-2 4.66699 -6.33301 7 -13 7h-12
c-4.66699 0 -7 -2 -7 -6v-130c0 -12.667 -7.33301 -19 -22 -19h-51c-5.33301 0 -10.5 1 -15.5 3s-7.5 7.33301 -7.5 16v338c0 8.66699 2.16699 14 6.5 16s9.83301 3 16.5 3zM360.999 463.001l-0.000976562 -63.001c0 -7.33301 3.33301 -11 10 -11h29
c17.333 0 30.833 3.83301 40.5 11.5s14.5 17.834 14.5 30.501c0 10 -3 18.333 -9 25c-9.33301 10.667 -24.666 16 -45.999 16h-27c-8 0 -12 -3 -12 -9z" />
    <glyph glyph-name="macron" unicode="&#xaf;" horiz-adv-x="288" 
d="M70 35l0.000976562 630c0 12 1.33301 20 4 24c5.33301 7.33301 15.666 11 30.999 11h78c15.333 0 25 -2.83301 29 -8.5s6 -14.5 6 -26.5v-630c0 -15.333 -2.83301 -25 -8.5 -29s-14.5 -6 -26.5 -6h-78c-15.333 -0 -25 2.83301 -29 8.5s-6 14.5 -6 26.5zM7.00098 768v61
c0 12 2.5 19.667 7.5 23s11.833 5 20.5 5h61c8.66699 0 15.5 -1.66699 20.5 -5s7.5 -11 7.5 -23v-61c0 -8.66699 -1.66699 -15.5 -5 -20.5s-11 -7.5 -23 -7.5h-61c-8.66699 0 -15.5 1.66699 -20.5 5s-7.5 11 -7.5 23zM164.001 768v61c0 12 2.5 19.667 7.5 23
s11.833 5 20.5 5h61c8.66699 0 15.5 -1.66699 20.5 -5s7.5 -11 7.5 -23v-61c0 -12 -2.5 -19.667 -7.5 -23s-11.833 -5 -20.5 -5h-61c-8.66699 0 -15.5 1.66699 -20.5 5s-7.5 11 -7.5 23z" />
    <glyph glyph-name="degree" unicode="&#xb0;" horiz-adv-x="300" 
d="M50 805c0 28 9.66699 51.667 29 71s43 29 71 29s51.667 -9.66699 71 -29s29 -43 29 -71s-9.66699 -51.667 -29 -71s-43 -29 -71 -29s-51.667 9.66699 -71 29s-29 43 -29 71zM100 805c0 -13.333 5 -25 15 -35s21.667 -15 35 -15s25 5 35 15s15 21.667 15 35s-5 25 -15 35
s-21.667 15 -35 15s-25 -5 -35 -15s-15 -21.667 -15 -35z" />
    <glyph glyph-name="plusminus" unicode="&#xb1;" horiz-adv-x="536" 
d="M220 397l0.00195312 142c0 12 3 19.667 9 23s12.333 5 19 5h40c7.33301 0 12.666 -1 15.999 -3c8 -4.66699 12 -13 12 -25v-142h142c7.33301 0 12.666 -1 15.999 -3c8 -4.66699 12 -13 12 -25v-40c0 -12 -3 -19.667 -9 -23s-12.333 -5 -19 -5h-142v-73
c0 -12 -3 -19.667 -9 -23s-12.333 -5 -19 -5h-40c-12 0 -19.667 3 -23 9s-5 12.333 -5 19v73h-142c-12 0 -19.667 3 -23 9s-5 12.333 -5 19v40c0 12 3 19.667 9 23s12.333 5 19 5h142zM78.002 176l380.001 0.000976562c7.33301 0 12.666 -1 15.999 -3
c8 -4.66699 12 -13 12 -25v-40c0 -12 -3 -19.667 -9 -23s-12.333 -5 -19 -5h-380c-12 0 -19.667 3 -23 9s-5 12.333 -5 19v40c0 7.33301 1 12.666 3 15.999c4.66699 8 13 12 25 12z" />
    <glyph glyph-name="twosuperior" unicode="&#xb2;" horiz-adv-x="228" 
d="M40 35l0.000976562 630.001c0 12 1.33301 20 4 24c5.33301 7.33301 15.666 11 30.999 11h78c15.333 0 25 -2.83301 29 -8.5s6 -14.5 6 -26.5v-630c0 -15.333 -2.83301 -25 -8.5 -29s-14.5 -6 -26.5 -6h-78c-12 0 -20 1.33301 -24 4
c-7.33301 5.33301 -11 15.666 -11 30.999z" />
    <glyph glyph-name="threesuperior" unicode="&#xb3;" horiz-adv-x="216" 
d="M176 687v-61c0 -8.66699 -1.66699 -15.5 -5 -20.5s-11 -7.5 -23 -7.5h-80c-12 0 -19.667 2.5 -23 7.5s-5 11.833 -5 20.5v61c0 8.66699 1.66699 15.5 5 20.5s11 7.5 23 7.5h80c8.66699 0 15.5 -1.66699 20.5 -5s7.5 -11 7.5 -23zM176 528v-500
c0 -12 -2.5 -19.667 -7.5 -23s-11.833 -5 -20.5 -5h-80c-12 0 -19.667 2.5 -23 7.5s-5 11.833 -5 20.5v500c0 12 2.5 19.667 7.5 23s11.833 5 20.5 5h80c8.66699 0 15.5 -1.66699 20.5 -5s7.5 -11 7.5 -23z" />
    <glyph glyph-name="acute" unicode="&#xb4;" horiz-adv-x="366" 
d="M176 430v-402c0 -12 -2.5 -19.667 -7.5 -23s-11.833 -5 -20.5 -5h-80c-12 0 -19.667 2.5 -23 7.5s-5 11.833 -5 20.5v500c0 12 2.5 19.667 7.5 23s11.833 5 20.5 5h144c5.33301 0 8 2.66699 8 8v51c0 8.66699 1.66699 15.5 5 20.5s11 7.5 23 7.5h80
c12 0 19.667 -2.5 23 -7.5s5 -11.833 5 -20.5v-149c0 -12 -2.5 -19.667 -7.5 -23s-11.833 -5 -20.5 -5h-140c-8 0 -12 -2.66699 -12 -8z" />
    <glyph glyph-name="mu" unicode="&#xb5;" 
d="M408 528v-500c0 -12 -2.5 -19.667 -7.5 -23s-11.833 -5 -20.5 -5h-89c-5.33301 -0 -9.83301 1.83301 -13.5 5.5s-5.5 8.16699 -5.5 13.5c0 6 -1.16699 9.16699 -3.5 9.5s-4.16602 0.5 -5.49902 0.5c-6 0 -14.167 -6.16699 -24.5 -18.5s-23.833 -18.5 -40.5 -18.5
c-6.66699 0 -14 1.66699 -22 5v-113c0 -12 -2.5 -19.667 -7.5 -23s-11.833 -5 -20.5 -5h-80c-12 0 -19.667 2.5 -23 7.5s-5 11.833 -5 20.5v644c0 12 2.5 19.667 7.5 23s11.833 5 20.5 5h80c8.66699 0 15.5 -1.66699 20.5 -5s7.5 -11 7.5 -23v-358
c0 -13.333 4.16699 -24.5 12.5 -33.5s19.833 -13.5 34.5 -13.5c21.333 0 35.666 9.33301 42.999 28c4 10.667 6 26 6 46v331c0 12 2.5 19.667 7.5 23s11.833 5 20.5 5h80c8.66699 0 15.5 -1.66699 20.5 -5s7.5 -11 7.5 -23z" />
    <glyph glyph-name="paragraph" unicode="&#xb6;" horiz-adv-x="517" 
d="M192 700l73 0.000976562c12 0 19.667 -2.5 23 -7.5s5 -11.833 5 -20.5v-788c0 -12 -2.5 -19.667 -7.5 -23s-11.833 -5 -20.5 -5h-39c-12 0 -19.667 2.5 -23 7.5s-5 11.833 -5 20.5v516h-28c-50 0 -88.667 17.667 -116 53c-22.667 29.333 -34 61.666 -34 96.999
c0 40 13.333 73.667 40 101c31.333 32.667 75.333 49 132 49zM382 -115.999v788c0 8.66699 1.66699 15.5 5 20.5s11 7.5 23 7.5h39c12 0 19.667 -2.5 23 -7.5s5 -11.833 5 -20.5v-788c0 -12 -2.5 -19.667 -7.5 -23s-11.833 -5 -20.5 -5h-39c-12 0 -19.667 2.5 -23 7.5
s-5 11.833 -5 20.5z" />
    <glyph glyph-name="periodcentered" unicode="&#xb7;" horiz-adv-x="280" 
d="M40 361c0 28 9.66699 51.667 29 71s43 29 71 29s51.667 -9.66699 71 -29s29 -43 29 -71s-9.66699 -51.667 -29 -71s-43 -29 -71 -29s-51.667 9.66699 -71 29s-29 43 -29 71z" />
    <glyph glyph-name="periodcentered" unicode="&#x2219;" horiz-adv-x="280" 
d="M40 361c0 28 9.66699 51.667 29 71s43 29 71 29s51.667 -9.66699 71 -29s29 -43 29 -71s-9.66699 -51.667 -29 -71s-43 -29 -71 -29s-51.667 9.66699 -71 29s-29 43 -29 71z" />
    <glyph glyph-name="cedilla" unicode="&#xb8;" horiz-adv-x="445" 
d="M186 687v-61c0 -8.66699 -1.66699 -15.5 -5 -20.5s-11 -7.5 -23 -7.5h-60c-12 0 -19.667 2.5 -23 7.5s-5 11.833 -5 20.5v61c0 8.66699 1.66699 15.5 5 20.5s11 7.5 23 7.5h60c8.66699 0 15.5 -1.66699 20.5 -5s7.5 -11 7.5 -23zM369 687v-61
c0 -12 -2.5 -19.667 -7.5 -23s-11.833 -5 -20.5 -5h-60c-12 0 -19.667 2.5 -23 7.5s-5 11.833 -5 20.5v61c0 12 2.5 19.667 7.5 23s11.833 5 20.5 5h60c8.66699 0 15.5 -1.66699 20.5 -5s7.5 -11 7.5 -23zM383 241l-200.996 -0.000976562
c-4.66699 0 -7.83398 -1.16699 -9.50098 -3.5s-2.5 -5.16602 -2.5 -8.49902v-34c0 -26.667 8.66699 -47.167 26 -61.5s41.333 -21.5 72 -21.5c21.333 0 40.666 1.5 57.999 4.5s35.666 7.83301 54.999 14.5c16.667 5.33301 25 0 25 -16v-80
c0 -5.33301 -1.16699 -9.5 -3.5 -12.5s-7.5 -6.16699 -15.5 -9.5c-22 -8 -44.333 -13.5 -67 -16.5s-43 -4.5 -61 -4.5c-58 0 -105 10.667 -141 32c-56 33.333 -84 90 -84 170v169c0 53.333 10.333 96 31 128c31.333 48.667 84.333 73 159 73
c45.333 0 82.666 -9.33301 111.999 -28c50 -32 75 -89.667 75 -173v-94c0 -8.66699 -1.66699 -15.5 -5 -20.5s-11 -7.5 -23 -7.5zM180.004 350.999h85c4 0 7.33301 3.33301 10 10v22c0 19.333 -2.33301 34 -7 44c-8.66699 18 -23.334 27 -44.001 27
c-17.333 0 -30.666 -5.83301 -39.999 -17.5s-14 -29.5 -14 -53.5v-22c0 -6.66699 3.33301 -10 10 -10z" />
    <glyph glyph-name="onesuperior" unicode="&#xb9;" horiz-adv-x="863" 
d="M525 495v-459.997c0 -12 -1.33301 -20 -4 -24c-5.33301 -7.33301 -15.666 -11 -30.999 -11h-69c-8.66699 0 -15 1.66699 -19 5s-9.66699 13.666 -17 30.999l-137 330c-0.666992 1.33301 -2.66699 2.66602 -6 3.99902l-3 -4v-252c0 -39.333 -12.167 -69.5 -36.5 -90.5
s-59.833 -31.5 -106.5 -31.5c-22 0 -38.5 2.16699 -49.5 6.5s-16.5 12.166 -16.5 23.499v49c0 14 7 21 21 21h29c13.333 0 22 5.66699 26 17s6 26.666 6 45.999v510c0 12 1.33301 20 4 24c5.33301 7.33301 15.666 11 30.999 11h56c9.33301 0 16.666 -1 21.999 -3
s10 -7.66699 14 -17l150 -360c0 -1.33301 1.66699 -2.33301 5 -3l4 4v214c0 70 21 118 63 144c28.667 18 71.667 27 129 27c50 0 83.667 -2.83301 101 -8.5s26 -17.5 26 -35.5v-67c0 -11.333 -4 -17 -12 -17c-16.667 3.33301 -33.667 6.33301 -51 9s-32.666 4 -45.999 4
c-35.333 0 -59.333 -11.667 -72 -35c-7.33301 -13.333 -11 -33.666 -11 -60.999zM593 35.0029v28c0 15.333 2.83301 25 8.5 29s14.5 6 26.5 6h148c12 0 20 -1.33301 24 -4c7.33301 -5.33301 11 -15.666 11 -30.999v-28c0 -15.333 -2.83301 -25 -8.5 -29s-14.5 -6 -26.5 -6
h-148c-12 0 -20 1.33301 -24 4c-7.33301 5.33301 -11 15.666 -11 30.999zM703 503.003c43.333 0 72.5 -11.667 87.5 -35s22.5 -71.333 22.5 -144s-7.33301 -120.667 -22 -144s-44 -35 -88 -35c-43.333 0 -72.5 11.667 -87.5 35s-22.5 71.333 -22.5 144
s7.33301 120.667 22 144s44 35 88 35zM703 421.003c-9.33301 0 -15.5 -5.83105 -18.5 -17.498s-4.5 -27.167 -4.5 -46.5v-17.5c0 -5.66699 0.333008 -10.834 1 -15.501c0 -39.333 0.833008 -65.333 2.5 -78s8.16699 -19 19.5 -19c8.66699 0 14.5 6.16699 17.5 18.5
s4.5 29.166 4.5 50.499v28v19c0 34 -1.66699 55.5 -5 64.5s-9 13.5 -17 13.5z" />
    <glyph glyph-name="ordmasculine" unicode="&#xba;" horiz-adv-x="370" 
d="M166 227l0.00195312 -30.001c0 -23.333 3.33301 -41 10 -53c12 -21.333 34 -32 66 -32l45 5c4.66699 0.666992 10.667 1.83398 18 3.50098s13 2.5 17 2.5c7.33301 0 12.166 -2 14.499 -6s3.5 -8.66699 3.5 -14v-73c0 -12 -4.33301 -20.333 -13 -25
c-15.333 -8.66699 -47 -13 -95 -13c-88.667 0 -148 25.333 -178 76c-16 27.333 -24 70 -24 128v172c0 58.667 10.667 102.667 32 132c31.333 42.667 88 64 170 64c48 0 79.667 -4.33301 95 -13c8.66699 -4.66699 13 -13 13 -25v-73c0 -13.333 -6 -20 -18 -20
c-10.667 0 -23.834 1.83301 -39.501 5.5s-29.167 5.5 -40.5 5.5c-26 0 -45.167 -6.5 -57.5 -19.5s-18.5 -29.167 -18.5 -48.5v-9c0 -7.33301 3.66699 -11 11 -11h101c12 0 19.667 -2.5 23 -7.5s5 -11.833 5 -20.5v-62c0 -8.66699 -1.66699 -15.5 -5 -20.5s-11 -7.5 -23 -7.5
h-101c-7.33301 0 -11 -3.66699 -11 -11z" />
    <glyph glyph-name="guillemotright" unicode="&#xbb;" horiz-adv-x="538" 
d="M483 285l-89.001 -155.002c-5.33301 -9.33301 -8.66602 -14.666 -9.99902 -15.999c-4.66699 -4.66699 -12 -7 -22 -7h-77c-6 0 -10.333 2 -13 6s-4 8 -4 12c0 4.66699 1.33301 9.33398 4 14.001l81 146c3.33301 5.33301 5 10.333 5 15s-1.66699 9.66699 -5 15l-81 146
c-2.66699 3.33301 -4 8 -4 14c0 12 5.66699 18 17 18h77c7.33301 0 13 -1.16699 17 -3.5s9 -8.83301 15 -19.5l89 -155c3.33301 -5.33301 5 -10.333 5 -15s-1.66699 -9.66699 -5 -15zM264.999 284.998l-89.001 -155.002
c-5.33301 -9.33301 -8.66602 -14.666 -9.99902 -15.999c-4.66699 -4.66699 -12 -7 -22 -7h-77c-6 0 -10.333 2 -13 6s-4 8 -4 12c0 4.66699 1.33301 9.33398 4 14.001l81 146c3.33301 5.33301 5 10.333 5 15s-1.66699 9.66699 -5 15l-81 146c-2.66699 3.33301 -4 8 -4 14
c0 12 5.66699 18 17 18h77c7.33301 0 13 -1.16699 17 -3.5s9 -8.83301 15 -19.5l89 -155c3.33301 -5.33301 5 -10.333 5 -15s-1.66699 -9.66699 -5 -15z" />
    <glyph glyph-name="onequarter" unicode="&#xbc;" horiz-adv-x="225" 
d="M-20 -118v64c0 12 4.33301 18 13 18l16 -3l17 -3c9.33301 0 17 2.33301 23 7s9 12 9 22c0 4.66699 -0.333008 8.66699 -1 12s-3.16699 12 -7.5 26s-6.5 27 -6.5 39v464c0 12 2.5 19.667 7.5 23s11.833 5 20.5 5h80c8.66699 0 15.5 -1.66699 20.5 -5s7.5 -11 7.5 -23v-467
c0 -18.667 3 -37 9 -55c4 -11.333 7 -21.5 9 -30.5s3 -19.833 3 -32.5c0 -23.333 -6.66699 -42.333 -20 -57c-22.667 -24.667 -61.667 -37 -117 -37c-12 0 -24.5 0.666992 -37.5 2s-23.833 3.33301 -32.5 6s-13 11 -13 25zM179 687v-61c0 -8.66699 -1.66699 -15.5 -5 -20.5
s-11 -7.5 -23 -7.5h-80c-8.66699 0 -15.5 1.66699 -20.5 5s-7.5 11 -7.5 23v61c0 8.66699 1.66699 15.5 5 20.5s11 7.5 23 7.5h80c8.66699 0 15.5 -1.66699 20.5 -5s7.5 -11 7.5 -23z" />
    <glyph glyph-name="onehalf" unicode="&#xbd;" horiz-adv-x="520" 
d="M52 39l-0.00195312 90.002c0 8 2.33301 13.5 7 16.5s9.33398 4.5 14.001 4.5c6.66699 0 12.667 -0.666992 18 -2c14 -4 28 -7.66699 42 -11c6 -1.33301 18.833 -3.16602 38.5 -5.49902s33.167 -3.5 40.5 -3.5c29.333 0 52.5 6.16699 69.5 18.5s25.5 29.166 25.5 50.499
c0 31.333 -19.333 60.666 -58 87.999l-62 40c-49.333 32.667 -83 60.334 -101 83.001c-24 30 -36 67.333 -36 112c0 61.333 20.667 108 62 140s97.333 48 168 48c30.667 0 61 -2.66699 91 -8c45.333 -8 68 -19.667 68 -35v-90v-7c-2 -8 -7.66699 -12 -17 -12l-48 9
c-27.333 5.33301 -44.5 8.5 -51.5 9.5s-17.5 1.5 -31.5 1.5c-27.333 0 -47.166 -4.33301 -59.499 -13s-18.5 -19.334 -18.5 -32.001c0 -22.667 37.667 -58.334 113 -107.001c44 -29.333 76 -57 96 -83c32 -41.333 48 -90 48 -146c0 -62.667 -21.833 -112.167 -65.5 -148.5
s-103.5 -54.5 -179.5 -54.5c-24.667 0 -52.667 1.83301 -84 5.5s-54.333 8.5 -69 14.5c-8.66699 3.33301 -14.167 7.33301 -16.5 12s-3.5 9.66699 -3.5 15z" />
    <glyph glyph-name="threequarters" unicode="&#xbe;" horiz-adv-x="385" 
d="M20 41l-0.000976562 64.999c0 16 5.33301 24 16 24c3.33301 0 12.5 -2.16699 27.5 -6.5s32 -8.16602 51 -11.499s34.833 -5 47.5 -5c20.667 0 35.667 4.33301 45 13s14 19.334 14 32.001c0 18.667 -13.667 38 -41 58c-20 13.333 -34 23 -42 29
c-34.667 24.667 -59.667 46 -75 64c-28 32.667 -42 69.334 -42 110.001c0 38.667 11 71 33 97c30 36 77.333 54 142 54c50.667 0 87.834 -4.33301 111.501 -13s35.5 -21.334 35.5 -38.001v-63v-9c-2 -8 -8.33301 -12 -19 -12c-32 0 -54.667 4.33301 -68 13
c-7.33301 4.66699 -22.333 7 -45 7c-16.667 0 -28.167 -3.5 -34.5 -10.5s-9.5 -14.5 -9.5 -22.5c0 -17.333 16 -37 48 -59l45 -30c34.667 -25.333 59.667 -48.333 75 -69c21.333 -29.333 32 -64 32 -104c0 -50.667 -17.667 -90.334 -53 -119.001s-82.333 -43 -141 -43
c-64.667 0 -109 6.66699 -133 20c-13.333 7.33301 -20 17 -20 29z" />
    <glyph glyph-name="questiondown" unicode="&#xbf;" horiz-adv-x="273" 
d="M7 626v61c0 8.66699 1.66699 15.5 5 20.5s11 7.5 23 7.5h55c12 0 19.667 -2.5 23 -7.5s5 -11.833 5 -20.5v-61c0 -8.66699 -1.66699 -15.5 -5 -20.5s-11 -7.5 -23 -7.5h-55c-8.66699 0 -15.5 1.66699 -20.5 5s-7.5 11 -7.5 23zM266 687v-61
c0 -8.66699 -1.66699 -15.5 -5 -20.5s-11 -7.5 -23 -7.5h-55c-8.66699 0 -15.5 1.66699 -20.5 5s-7.5 11 -7.5 23v61c0 12 2.5 19.667 7.5 23s11.833 5 20.5 5h55c8.66699 0 15.5 -1.66699 20.5 -5s7.5 -11 7.5 -23zM204 528v-500c0 -8.66699 -1.66699 -15.5 -5 -20.5
s-11 -7.5 -23 -7.5h-80c-12 0 -19.667 2.5 -23 7.5s-5 11.833 -5 20.5v500c0 12 2.5 19.667 7.5 23s11.833 5 20.5 5h80c8.66699 0 15.5 -1.66699 20.5 -5s7.5 -11 7.5 -23z" />
    <glyph glyph-name="Agrave" unicode="&#xc0;" horiz-adv-x="526" 
d="M196 700l125.999 -0.000976562c8.66699 0 15.5 -1.66699 20.5 -5s9.16699 -11 12.5 -23l162 -642c1.33301 -4 2 -8.33301 2 -13c0 -11.333 -7.33301 -17 -22 -17h-98c-10 0 -17.167 2.66699 -21.5 8s-7.5 12 -9.5 20l-20 76c-2.66699 10 -9.33398 15 -20.001 15h-137
c-11.333 0 -18 -5 -20 -15l-19 -79c-1.33301 -6.66699 -4.16602 -12.5 -8.49902 -17.5s-11.166 -7.5 -20.499 -7.5h-97c-12.667 0 -19 6.33301 -19 19v6c1.33301 2.66699 2 4.33398 2 5.00098l154 642c2.66699 12 6.5 19.667 11.5 23s12.167 5 21.5 5zM217.999 252.999
l83.0029 -0.000976562c7.33301 0 9.66602 5 6.99902 15l-44 177c-0.666992 2.66699 -1.83398 4.83398 -3.50098 6.50098l-3.5 3.5c-4 -4 -6.33301 -7.33301 -7 -10l-39 -177c-2.66699 -10 -0.333984 -15 6.99902 -15z" />
    <glyph glyph-name="Agrave" unicode="&#x410;" horiz-adv-x="526" 
d="M196 700l125.999 -0.000976562c8.66699 0 15.5 -1.66699 20.5 -5s9.16699 -11 12.5 -23l162 -642c1.33301 -4 2 -8.33301 2 -13c0 -11.333 -7.33301 -17 -22 -17h-98c-10 0 -17.167 2.66699 -21.5 8s-7.5 12 -9.5 20l-20 76c-2.66699 10 -9.33398 15 -20.001 15h-137
c-11.333 0 -18 -5 -20 -15l-19 -79c-1.33301 -6.66699 -4.16602 -12.5 -8.49902 -17.5s-11.166 -7.5 -20.499 -7.5h-97c-12.667 0 -19 6.33301 -19 19v6c1.33301 2.66699 2 4.33398 2 5.00098l154 642c2.66699 12 6.5 19.667 11.5 23s12.167 5 21.5 5zM217.999 252.999
l83.0029 -0.000976562c7.33301 0 9.66602 5 6.99902 15l-44 177c-0.666992 2.66699 -1.83398 4.83398 -3.50098 6.50098l-3.5 3.5c-4 -4 -6.33301 -7.33301 -7 -10l-39 -177c-2.66699 -10 -0.333984 -15 6.99902 -15z" />
    <glyph glyph-name="Aacute" unicode="&#xc1;" horiz-adv-x="542" 
d="M436 700c9.33301 0 14.666 -2.16699 15.999 -6.5s2 -8.83301 2 -13.5v-90c0 -13.333 -6 -20 -18 -20h-234c-9.33301 0 -14 -3.66699 -14 -11v-95c0 -9.33301 3.66699 -14 11 -14h46c102 0 175 -27.667 219 -83c29.333 -37.333 44 -84.333 44 -141
c0 -66 -22.5 -120.167 -67.5 -162.5s-107.167 -63.5 -186.5 -63.5h-179c-15.333 0 -25.666 4 -30.999 12c-2.66699 4 -4 11.667 -4 23v630c0 10.667 1.83301 19.167 5.5 25.5s13.5 9.5 29.5 9.5h361zM188 308v-164.999c0 -8.66699 4.33301 -13 13 -13h50
c27.333 0 50.333 8.66699 69 26s28 39.666 28 66.999c0 28 -8.5 51.167 -25.5 69.5s-40.833 27.5 -71.5 27.5h-50c-8.66699 0 -13 -4 -13 -12z" />
    <glyph glyph-name="Aacute" unicode="&#x411;" horiz-adv-x="542" 
d="M436 700c9.33301 0 14.666 -2.16699 15.999 -6.5s2 -8.83301 2 -13.5v-90c0 -13.333 -6 -20 -18 -20h-234c-9.33301 0 -14 -3.66699 -14 -11v-95c0 -9.33301 3.66699 -14 11 -14h46c102 0 175 -27.667 219 -83c29.333 -37.333 44 -84.333 44 -141
c0 -66 -22.5 -120.167 -67.5 -162.5s-107.167 -63.5 -186.5 -63.5h-179c-15.333 0 -25.666 4 -30.999 12c-2.66699 4 -4 11.667 -4 23v630c0 10.667 1.83301 19.167 5.5 25.5s13.5 9.5 29.5 9.5h361zM188 308v-164.999c0 -8.66699 4.33301 -13 13 -13h50
c27.333 0 50.333 8.66699 69 26s28 39.666 28 66.999c0 28 -8.5 51.167 -25.5 69.5s-40.833 27.5 -71.5 27.5h-50c-8.66699 0 -13 -4 -13 -12z" />
    <glyph glyph-name="Acircumflex" unicode="&#xc2;" horiz-adv-x="549" 
d="M40 34l-0.00195312 638.001c0 11.333 2.33301 18.833 7 22.5s12.334 5.5 23.001 5.5h193c76.667 0 134.334 -17.667 173.001 -53c34 -31.333 51 -72.666 51 -123.999c0 -32 -8 -60.333 -24 -85s-39.667 -43.334 -71 -56.001v-4c38 -12.667 67.833 -34.667 89.5 -66
s32.5 -68.333 32.5 -111c0 -58.667 -16.667 -105.334 -50 -140.001c-39.333 -40.667 -99.333 -61 -180 -61h-214c-20 -0 -30 11.333 -30 34zM238.998 435.001c31.333 0 54.667 6.5 70 19.5s23 29.167 23 48.5c0 18.667 -6 33.667 -18 45c-16 14.667 -41.333 22 -76 22h-32
c-12 0 -18 -4.66699 -18 -14v-109c0 -8 6.33301 -12 19 -12h32zM200.999 130.001h46c35.333 0 62 8.16699 80 24.5s27 36.833 27 61.5s-8 45 -24 61c-19.333 18.667 -47 28 -83 28h-43c-7.33301 0 -11.833 -1.66699 -13.5 -5s-2.5 -7.33301 -2.5 -12v-146
c0 -8 4.33301 -12 13 -12z" />
    <glyph glyph-name="Acircumflex" unicode="&#x412;" horiz-adv-x="549" 
d="M40 34l-0.00195312 638.001c0 11.333 2.33301 18.833 7 22.5s12.334 5.5 23.001 5.5h193c76.667 0 134.334 -17.667 173.001 -53c34 -31.333 51 -72.666 51 -123.999c0 -32 -8 -60.333 -24 -85s-39.667 -43.334 -71 -56.001v-4c38 -12.667 67.833 -34.667 89.5 -66
s32.5 -68.333 32.5 -111c0 -58.667 -16.667 -105.334 -50 -140.001c-39.333 -40.667 -99.333 -61 -180 -61h-214c-20 -0 -30 11.333 -30 34zM238.998 435.001c31.333 0 54.667 6.5 70 19.5s23 29.167 23 48.5c0 18.667 -6 33.667 -18 45c-16 14.667 -41.333 22 -76 22h-32
c-12 0 -18 -4.66699 -18 -14v-109c0 -8 6.33301 -12 19 -12h32zM200.999 130.001h46c35.333 0 62 8.16699 80 24.5s27 36.833 27 61.5s-8 45 -24 61c-19.333 18.667 -47 28 -83 28h-43c-7.33301 0 -11.833 -1.66699 -13.5 -5s-2.5 -7.33301 -2.5 -12v-146
c0 -8 4.33301 -12 13 -12z" />
    <glyph glyph-name="Atilde" unicode="&#xc3;" horiz-adv-x="440" 
d="M72 700l329 -0.000976562c10.667 0 19 -1.66699 25 -5s9 -7.66602 9 -12.999v-90c0 -16 -7.66699 -24 -23 -24h-211c-8.66699 0 -13 -4.33301 -13 -13v-518c0 -16.667 -2 -27 -6 -31s-11 -6 -21 -6h-93c-8 -0 -14.667 2.33301 -20 7s-8 12.667 -8 24v639
c0 10 3.66699 17.5 11 22.5s14.333 7.5 21 7.5z" />
    <glyph glyph-name="Atilde" unicode="&#x413;" horiz-adv-x="440" 
d="M72 700l329 -0.000976562c10.667 0 19 -1.66699 25 -5s9 -7.66602 9 -12.999v-90c0 -16 -7.66699 -24 -23 -24h-211c-8.66699 0 -13 -4.33301 -13 -13v-518c0 -16.667 -2 -27 -6 -31s-11 -6 -21 -6h-93c-8 -0 -14.667 2.33301 -20 7s-8 12.667 -8 24v639
c0 10 3.66699 17.5 11 22.5s14.333 7.5 21 7.5z" />
    <glyph glyph-name="Adieresis" unicode="&#xc4;" horiz-adv-x="580" 
d="M169 700h297.001c15.333 0 25 -2.83301 29 -8.5s6 -14.5 6 -26.5v-521c0 -6.66699 0.5 -10.667 1.5 -12s4.5 -2 10.5 -2h22c12 0 20 -1.33301 24 -4c7.33301 -5.33301 11 -15.666 11 -30.999v-189c0 -15.333 -2.83301 -25 -8.5 -29s-14.5 -6 -26.5 -6h-73
c-15.333 0 -25 2.83301 -29 8.5s-6 14.5 -6 26.5v79c0 10 -5.33301 15 -16 15h-243c-12 0 -18 -6.33301 -18 -19v-75c0 -15.333 -2.83301 -25 -8.5 -29s-14.5 -6 -26.5 -6h-73c-15.333 0 -25 2.83301 -29 8.5s-6 14.5 -6 26.5v189c0 15.333 2.83301 25 8.5 29s14.5 6 26.5 6
h9c10 0 18.667 10.667 26 32c3.33301 9.33301 7.33301 26.333 12 51c15.333 72 26.666 145 33.999 219c5.33301 55.333 8 108.666 8 159.999l3 79c0 14 2.66699 22.333 8 25s14.333 4 27 4zM353.001 144v414c0 8 -4 12 -12 12h-50c-8.66699 0 -13 -4 -13 -12l-5 -62
c0 -102.667 -6 -173.667 -18 -213c-14 -46 -25 -92 -33 -138v-8c1.33301 -4.66699 6 -7 14 -7h103c9.33301 0 14 4.66699 14 14z" />
    <glyph glyph-name="Adieresis" unicode="&#x414;" horiz-adv-x="580" 
d="M169 700h297.001c15.333 0 25 -2.83301 29 -8.5s6 -14.5 6 -26.5v-521c0 -6.66699 0.5 -10.667 1.5 -12s4.5 -2 10.5 -2h22c12 0 20 -1.33301 24 -4c7.33301 -5.33301 11 -15.666 11 -30.999v-189c0 -15.333 -2.83301 -25 -8.5 -29s-14.5 -6 -26.5 -6h-73
c-15.333 0 -25 2.83301 -29 8.5s-6 14.5 -6 26.5v79c0 10 -5.33301 15 -16 15h-243c-12 0 -18 -6.33301 -18 -19v-75c0 -15.333 -2.83301 -25 -8.5 -29s-14.5 -6 -26.5 -6h-73c-15.333 0 -25 2.83301 -29 8.5s-6 14.5 -6 26.5v189c0 15.333 2.83301 25 8.5 29s14.5 6 26.5 6
h9c10 0 18.667 10.667 26 32c3.33301 9.33301 7.33301 26.333 12 51c15.333 72 26.666 145 33.999 219c5.33301 55.333 8 108.666 8 159.999l3 79c0 14 2.66699 22.333 8 25s14.333 4 27 4zM353.001 144v414c0 8 -4 12 -12 12h-50c-8.66699 0 -13 -4 -13 -12l-5 -62
c0 -102.667 -6 -173.667 -18 -213c-14 -46 -25 -92 -33 -138v-8c1.33301 -4.66699 6 -7 14 -7h103c9.33301 0 14 4.66699 14 14z" />
    <glyph glyph-name="Aring" unicode="&#xc5;" horiz-adv-x="486" 
d="M40 35l0.000976562 630c0 12 1.33301 20 4 24c5.33301 7.33301 15.666 11 30.999 11h328c15.333 0 25 -2.83301 29 -8.5s6 -14.5 6 -26.5v-71c0 -7.33301 -2.5 -13.166 -7.5 -17.499s-12.833 -6.5 -23.5 -6.5h-201c-12 0 -18 -5.33301 -18 -16v-105
c0 -12 3.66699 -18 11 -18h158c6.66699 0 12.167 -1.66699 16.5 -5s6.5 -8 6.5 -14v-91c0 -13.333 -6.66699 -20 -20 -20h-159c-8.66699 0 -13 -5.66699 -13 -17v-142c0 -8 3.66699 -12 11 -12h225c11.333 0 18.666 -2.16699 21.999 -6.5s5 -10.5 5 -18.5v-70
c0 -12 -1.33301 -20 -4 -24c-5.33301 -7.33301 -15.666 -11 -30.999 -11h-341c-12 0 -20 1.33301 -24 4c-7.33301 5.33301 -11 15.666 -11 30.999z" />
    <glyph glyph-name="Aring" unicode="&#x415;" horiz-adv-x="486" 
d="M40 35l0.000976562 630c0 12 1.33301 20 4 24c5.33301 7.33301 15.666 11 30.999 11h328c15.333 0 25 -2.83301 29 -8.5s6 -14.5 6 -26.5v-71c0 -7.33301 -2.5 -13.166 -7.5 -17.499s-12.833 -6.5 -23.5 -6.5h-201c-12 0 -18 -5.33301 -18 -16v-105
c0 -12 3.66699 -18 11 -18h158c6.66699 0 12.167 -1.66699 16.5 -5s6.5 -8 6.5 -14v-91c0 -13.333 -6.66699 -20 -20 -20h-159c-8.66699 0 -13 -5.66699 -13 -17v-142c0 -8 3.66699 -12 11 -12h225c11.333 0 18.666 -2.16699 21.999 -6.5s5 -10.5 5 -18.5v-70
c0 -12 -1.33301 -20 -4 -24c-5.33301 -7.33301 -15.666 -11 -30.999 -11h-341c-12 0 -20 1.33301 -24 4c-7.33301 5.33301 -11 15.666 -11 30.999z" />
    <glyph glyph-name="AE" unicode="&#xc6;" horiz-adv-x="808" 
d="M443 0l-77.999 -0.000976562c-15.333 0 -25 2.83301 -29 8.5s-6 14.5 -6 26.5v246c0 12 -6 18 -18 18h-33c-18 0 -33.333 -5 -46 -15c-20 -15.333 -30 -40.333 -30 -75v-174c0 -12 -1.33301 -20 -4 -24c-5.33301 -7.33301 -15.666 -11 -30.999 -11h-78
c-15.333 0 -25 2.83301 -29 8.5s-6 14.5 -6 26.5v213c0 30.667 6.66699 56.667 20 78c8 12.667 18.667 24 32 34l22 13c4.66699 2.66699 7 4.66699 7 6c0 2 -1.5 4 -4.5 6s-6.5 3.66699 -10.5 5c-12.667 6.66699 -22 16.834 -28 30.501s-9 28.167 -9 43.5v82
c0 17.333 -2 27.833 -6 31.5s-10.667 5.5 -20 5.5h-9c-12.667 0 -20.667 3.16699 -24 9.5s-5 14.833 -5 25.5v53c0 8.66699 2 15 6 19c6.66699 6.66699 18.334 10 35.001 10h61c25.333 0 45.666 -5.33301 60.999 -16c26.667 -18.667 40 -52.667 40 -102v-65
c0 -26 2.66699 -44.667 8 -56c8 -17.333 23 -26 45 -26h36c12 0 18 6 18 18v212c0 12 1.33301 20 4 24c5.33301 7.33301 15.666 11 30.999 11h78c15.333 0 25 -2.83301 29 -8.5s6 -14.5 6 -26.5v-212c0 -12 6 -18 18 -18h36c21.333 0 36 8.33301 44 25
c6 12.667 9 31.667 9 57v65c0 49.333 13 83.333 39 102c14.667 10.667 35.334 16 62.001 16h61c16.667 0 27.667 -2.66699 33 -8s8 -12.333 8 -21v-53c0 -9.33301 -1.33301 -16.666 -4 -21.999c-4.66699 -8.66699 -13 -13 -25 -13h-9
c-8.66699 0 -14.334 -1.33301 -17.001 -4c-6 -5.33301 -9 -16.333 -9 -33v-82c0 -16.667 -2.83301 -31.5 -8.5 -44.5s-15.167 -22.833 -28.5 -29.5c-10 -4 -15 -7.66699 -15 -11c0 -1.33301 4.16699 -4.33301 12.5 -9s13.833 -8 16.5 -10c8 -6 15.333 -13 22 -21
c20 -24.667 30 -55 30 -91v-213c0 -15.333 -2.83301 -25 -8.5 -29s-14.5 -6 -26.5 -6h-78c-12 0 -20 1.33301 -24 4c-7.33301 5.33301 -11 15.666 -11 30.999v174c0 35.333 -9.66699 60.333 -29 75c-12.667 10 -28.334 15 -47.001 15h-33c-12 0 -18 -6 -18 -18v-246
c0 -15.333 -2.83301 -25 -8.5 -29s-14.5 -6 -26.5 -6z" />
    <glyph glyph-name="AE" unicode="&#x416;" horiz-adv-x="808" 
d="M443 0l-77.999 -0.000976562c-15.333 0 -25 2.83301 -29 8.5s-6 14.5 -6 26.5v246c0 12 -6 18 -18 18h-33c-18 0 -33.333 -5 -46 -15c-20 -15.333 -30 -40.333 -30 -75v-174c0 -12 -1.33301 -20 -4 -24c-5.33301 -7.33301 -15.666 -11 -30.999 -11h-78
c-15.333 0 -25 2.83301 -29 8.5s-6 14.5 -6 26.5v213c0 30.667 6.66699 56.667 20 78c8 12.667 18.667 24 32 34l22 13c4.66699 2.66699 7 4.66699 7 6c0 2 -1.5 4 -4.5 6s-6.5 3.66699 -10.5 5c-12.667 6.66699 -22 16.834 -28 30.501s-9 28.167 -9 43.5v82
c0 17.333 -2 27.833 -6 31.5s-10.667 5.5 -20 5.5h-9c-12.667 0 -20.667 3.16699 -24 9.5s-5 14.833 -5 25.5v53c0 8.66699 2 15 6 19c6.66699 6.66699 18.334 10 35.001 10h61c25.333 0 45.666 -5.33301 60.999 -16c26.667 -18.667 40 -52.667 40 -102v-65
c0 -26 2.66699 -44.667 8 -56c8 -17.333 23 -26 45 -26h36c12 0 18 6 18 18v212c0 12 1.33301 20 4 24c5.33301 7.33301 15.666 11 30.999 11h78c15.333 0 25 -2.83301 29 -8.5s6 -14.5 6 -26.5v-212c0 -12 6 -18 18 -18h36c21.333 0 36 8.33301 44 25
c6 12.667 9 31.667 9 57v65c0 49.333 13 83.333 39 102c14.667 10.667 35.334 16 62.001 16h61c16.667 0 27.667 -2.66699 33 -8s8 -12.333 8 -21v-53c0 -9.33301 -1.33301 -16.666 -4 -21.999c-4.66699 -8.66699 -13 -13 -25 -13h-9
c-8.66699 0 -14.334 -1.33301 -17.001 -4c-6 -5.33301 -9 -16.333 -9 -33v-82c0 -16.667 -2.83301 -31.5 -8.5 -44.5s-15.167 -22.833 -28.5 -29.5c-10 -4 -15 -7.66699 -15 -11c0 -1.33301 4.16699 -4.33301 12.5 -9s13.833 -8 16.5 -10c8 -6 15.333 -13 22 -21
c20 -24.667 30 -55 30 -91v-213c0 -15.333 -2.83301 -25 -8.5 -29s-14.5 -6 -26.5 -6h-78c-12 0 -20 1.33301 -24 4c-7.33301 5.33301 -11 15.666 -11 30.999v174c0 35.333 -9.66699 60.333 -29 75c-12.667 10 -28.334 15 -47.001 15h-33c-12 0 -18 -6 -18 -18v-246
c0 -15.333 -2.83301 -25 -8.5 -29s-14.5 -6 -26.5 -6z" />
    <glyph glyph-name="Ccedilla" unicode="&#xc7;" horiz-adv-x="445" 
d="M40 593l-0.00292969 80c0 12 6.33301 20.333 19 25c18 6.66699 56 10 114 10c64.667 0 113.667 -9.33301 147 -28c53.333 -30 80 -85.333 80 -166c0 -43.333 -8.66699 -77.666 -26 -102.999c-12 -17.333 -27.667 -30.666 -47 -39.999c35.333 -14.667 59.333 -41 72 -79
c8 -24 12 -56.333 12 -97c0 -60 -11 -105 -33 -135c-33.333 -45.333 -95.333 -68 -186 -68c-68.667 0 -112.167 3.33301 -130.5 10s-27.5 17.667 -27.5 33v89c0 12.667 5.66699 19 17 19c4.66699 0 10.667 -0.833008 18 -2.5s15.833 -3.5 25.5 -5.5
s19.834 -3.66699 30.501 -5s22.334 -2 35.001 -2c36 0 61.667 11.333 77 34c9.33301 14 14 31.333 14 52c0 38.667 -11.667 65.667 -35 81c-15.333 10 -34 15 -56 15h-44c-12 0 -20 1.33301 -24 4c-7.33301 5.33301 -11 15.666 -11 30.999v63c0 12 1.33301 20 4 24
c5.33301 7.33301 15.666 11 30.999 11h51c22.667 0 40.834 5 54.501 15s20.5 25.333 20.5 46c0 20 -6 35.667 -18 47c-16 15.333 -42.667 23 -80 23c-11.333 0 -20.166 -0.166992 -26.499 -0.5s-15.5 -1.5 -27.5 -3.5l-30 -4c-7.33301 0 -12.5 1.66699 -15.5 5
s-4.5 10.666 -4.5 21.999z" />
    <glyph glyph-name="Ccedilla" unicode="&#x417;" horiz-adv-x="445" 
d="M40 593l-0.00292969 80c0 12 6.33301 20.333 19 25c18 6.66699 56 10 114 10c64.667 0 113.667 -9.33301 147 -28c53.333 -30 80 -85.333 80 -166c0 -43.333 -8.66699 -77.666 -26 -102.999c-12 -17.333 -27.667 -30.666 -47 -39.999c35.333 -14.667 59.333 -41 72 -79
c8 -24 12 -56.333 12 -97c0 -60 -11 -105 -33 -135c-33.333 -45.333 -95.333 -68 -186 -68c-68.667 0 -112.167 3.33301 -130.5 10s-27.5 17.667 -27.5 33v89c0 12.667 5.66699 19 17 19c4.66699 0 10.667 -0.833008 18 -2.5s15.833 -3.5 25.5 -5.5
s19.834 -3.66699 30.501 -5s22.334 -2 35.001 -2c36 0 61.667 11.333 77 34c9.33301 14 14 31.333 14 52c0 38.667 -11.667 65.667 -35 81c-15.333 10 -34 15 -56 15h-44c-12 0 -20 1.33301 -24 4c-7.33301 5.33301 -11 15.666 -11 30.999v63c0 12 1.33301 20 4 24
c5.33301 7.33301 15.666 11 30.999 11h51c22.667 0 40.834 5 54.501 15s20.5 25.333 20.5 46c0 20 -6 35.667 -18 47c-16 15.333 -42.667 23 -80 23c-11.333 0 -20.166 -0.166992 -26.499 -0.5s-15.5 -1.5 -27.5 -3.5l-30 -4c-7.33301 0 -12.5 1.66699 -15.5 5
s-4.5 10.666 -4.5 21.999z" />
    <glyph glyph-name="Egrave" unicode="&#xc8;" horiz-adv-x="517" 
d="M151 0l-76 0.000976562c-12 0 -20 1.33301 -24 4c-7.33301 5.33301 -11 15.666 -11 30.999v630c0 12 1.33301 20 4 24c5.33301 7.33301 15.666 11 30.999 11h78c15.333 0 25 -2.83301 29 -8.5s6 -14.5 6 -26.5v-327l134 327c6 14.667 11.5 24.167 16.5 28.5
s12.5 6.5 22.5 6.5h81c15.333 0 25 -2.83301 29 -8.5s6 -14.5 6 -26.5v-630c0 -12 -1.33301 -20 -4 -24c-5.33301 -7.33301 -15.666 -11 -30.999 -11h-78c-15.333 -0 -25 2.83301 -29 8.5s-6 14.5 -6 26.5v343l-132 -343c-5.33301 -14.667 -11.5 -24.167 -18.5 -28.5
s-16.167 -6.5 -27.5 -6.5z" />
    <glyph glyph-name="Egrave" unicode="&#x418;" horiz-adv-x="517" 
d="M151 0l-76 0.000976562c-12 0 -20 1.33301 -24 4c-7.33301 5.33301 -11 15.666 -11 30.999v630c0 12 1.33301 20 4 24c5.33301 7.33301 15.666 11 30.999 11h78c15.333 0 25 -2.83301 29 -8.5s6 -14.5 6 -26.5v-327l134 327c6 14.667 11.5 24.167 16.5 28.5
s12.5 6.5 22.5 6.5h81c15.333 0 25 -2.83301 29 -8.5s6 -14.5 6 -26.5v-630c0 -12 -1.33301 -20 -4 -24c-5.33301 -7.33301 -15.666 -11 -30.999 -11h-78c-15.333 -0 -25 2.83301 -29 8.5s-6 14.5 -6 26.5v343l-132 -343c-5.33301 -14.667 -11.5 -24.167 -18.5 -28.5
s-16.167 -6.5 -27.5 -6.5z" />
    <glyph glyph-name="Eacute" unicode="&#xc9;" horiz-adv-x="517" 
d="M343 746h-169.999c-20 0 -35.833 6.83301 -47.5 20.5s-17.5 28.5 -17.5 44.5v14c0 3.33301 0.666992 6.5 2 9.5s4.66602 4.5 9.99902 4.5h61c9.33301 0 14 -4.66699 14 -14c0 -12.667 11.333 -19 34 -19h58c22.667 0 34 6.33301 34 19c0 9.33301 4.66699 14 14 14h61
c4.66699 0 7.66699 -1.5 9 -4.5s2.33301 -6.16699 3 -9.5v-14c0 -16 -5.66699 -30.833 -17 -44.5s-27.333 -20.5 -48 -20.5zM151.001 0l-76 0.000976562c-12 0 -20 1.33301 -24 4c-7.33301 5.33301 -11 15.666 -11 30.999v630c0 12 1.33301 20 4 24
c5.33301 7.33301 15.666 11 30.999 11h78c15.333 0 25 -2.83301 29 -8.5s6 -14.5 6 -26.5v-327l134 327c6 14.667 11.5 24.167 16.5 28.5s12.5 6.5 22.5 6.5h81c15.333 0 25 -2.83301 29 -8.5s6 -14.5 6 -26.5v-630c0 -12 -1.33301 -20 -4 -24
c-5.33301 -7.33301 -15.666 -11 -30.999 -11h-78c-15.333 -0 -25 2.83301 -29 8.5s-6 14.5 -6 26.5v343l-132 -343c-5.33301 -14.667 -11.5 -24.167 -18.5 -28.5s-16.167 -6.5 -27.5 -6.5z" />
    <glyph glyph-name="Eacute" unicode="&#x419;" horiz-adv-x="517" 
d="M343 746h-169.999c-20 0 -35.833 6.83301 -47.5 20.5s-17.5 28.5 -17.5 44.5v14c0 3.33301 0.666992 6.5 2 9.5s4.66602 4.5 9.99902 4.5h61c9.33301 0 14 -4.66699 14 -14c0 -12.667 11.333 -19 34 -19h58c22.667 0 34 6.33301 34 19c0 9.33301 4.66699 14 14 14h61
c4.66699 0 7.66699 -1.5 9 -4.5s2.33301 -6.16699 3 -9.5v-14c0 -16 -5.66699 -30.833 -17 -44.5s-27.333 -20.5 -48 -20.5zM151.001 0l-76 0.000976562c-12 0 -20 1.33301 -24 4c-7.33301 5.33301 -11 15.666 -11 30.999v630c0 12 1.33301 20 4 24
c5.33301 7.33301 15.666 11 30.999 11h78c15.333 0 25 -2.83301 29 -8.5s6 -14.5 6 -26.5v-327l134 327c6 14.667 11.5 24.167 16.5 28.5s12.5 6.5 22.5 6.5h81c15.333 0 25 -2.83301 29 -8.5s6 -14.5 6 -26.5v-630c0 -12 -1.33301 -20 -4 -24
c-5.33301 -7.33301 -15.666 -11 -30.999 -11h-78c-15.333 -0 -25 2.83301 -29 8.5s-6 14.5 -6 26.5v343l-132 -343c-5.33301 -14.667 -11.5 -24.167 -18.5 -28.5s-16.167 -6.5 -27.5 -6.5z" />
    <glyph glyph-name="Ecircumflex" unicode="&#xca;" horiz-adv-x="522" 
d="M40 35l0.000976562 630.002c0 12 1.33301 20 4 24c5.33301 7.33301 15.666 11 30.999 11h78c15.333 0 25 -2.83301 29 -8.5s6 -14.5 6 -26.5v-216c0 -9.33301 4.66699 -14 14 -14h48c15.333 0 27.333 4.66699 36 14c11.333 12 17 31.667 17 59v74
c0 38 9.83301 67.167 29.5 87.5s45.167 30.5 76.5 30.5h67c8.66699 0 16 -2.5 22 -7.5s9 -12.167 9 -21.5v-63c0 -10 -2.5 -16.667 -7.5 -20s-9.83301 -5 -14.5 -5h-20c-8.66699 0 -14.5 -3.83301 -17.5 -11.5s-4.5 -16.167 -4.5 -25.5v-82c0 -22 -4.66699 -39.333 -14 -52
l-37 -31v-4c25.333 -12 45.666 -27.333 60.999 -46s23 -46.334 23 -83.001v-213c0 -12 -1.33301 -20 -4 -24c-5.33301 -7.33301 -15.666 -11 -30.999 -11h-78c-15.333 0 -25 2.83301 -29 8.5s-6 14.5 -6 26.5v165c0 32 -6.33301 56.5 -19 73.5s-32.667 25.5 -60 25.5h-49
c-8 0 -12 -5.33301 -12 -16v-248c0 -15.333 -2.83301 -25 -8.5 -29s-14.5 -6 -26.5 -6h-78c-12 0 -20 1.33301 -24 4c-7.33301 5.33301 -11 15.666 -11 30.999z" />
    <glyph glyph-name="Ecircumflex" unicode="&#x41a;" horiz-adv-x="522" 
d="M40 35l0.000976562 630.002c0 12 1.33301 20 4 24c5.33301 7.33301 15.666 11 30.999 11h78c15.333 0 25 -2.83301 29 -8.5s6 -14.5 6 -26.5v-216c0 -9.33301 4.66699 -14 14 -14h48c15.333 0 27.333 4.66699 36 14c11.333 12 17 31.667 17 59v74
c0 38 9.83301 67.167 29.5 87.5s45.167 30.5 76.5 30.5h67c8.66699 0 16 -2.5 22 -7.5s9 -12.167 9 -21.5v-63c0 -10 -2.5 -16.667 -7.5 -20s-9.83301 -5 -14.5 -5h-20c-8.66699 0 -14.5 -3.83301 -17.5 -11.5s-4.5 -16.167 -4.5 -25.5v-82c0 -22 -4.66699 -39.333 -14 -52
l-37 -31v-4c25.333 -12 45.666 -27.333 60.999 -46s23 -46.334 23 -83.001v-213c0 -12 -1.33301 -20 -4 -24c-5.33301 -7.33301 -15.666 -11 -30.999 -11h-78c-15.333 0 -25 2.83301 -29 8.5s-6 14.5 -6 26.5v165c0 32 -6.33301 56.5 -19 73.5s-32.667 25.5 -60 25.5h-49
c-8 0 -12 -5.33301 -12 -16v-248c0 -15.333 -2.83301 -25 -8.5 -29s-14.5 -6 -26.5 -6h-78c-12 0 -20 1.33301 -24 4c-7.33301 5.33301 -11 15.666 -11 30.999z" />
    <glyph glyph-name="Edieresis" unicode="&#xcb;" horiz-adv-x="570" 
d="M151 700l344 -0.000976562c15.333 0 25 -2.83301 29 -8.5s6 -14.5 6 -26.5v-630c0 -12 -1.33301 -20 -4 -24c-5.33301 -7.33301 -15.666 -11 -30.999 -11h-78c-15.333 0 -25 2.83301 -29 8.5s-6 14.5 -6 26.5v522c0 10 -6 15 -18 15h-86
c-2.66699 0 -5.5 -0.666992 -8.5 -2s-4.5 -4.66602 -4.5 -9.99902l-3 -117v-95c0 -78.667 -3 -137.334 -9 -176.001c-8.66699 -58 -25.667 -100.667 -51 -128c-29.333 -32 -72.333 -48 -129 -48c-27.333 0 -45.5 2 -54.5 6s-13.5 13 -13.5 27v86
c0 7.33301 1.33301 12.833 4 16.5s9.33398 5.5 20.001 5.5h10c33.333 0 53.666 15 60.999 45c10 40.667 15 148.334 15 323.001l1 160c0 12 1.33301 20 4 24c5.33301 7.33301 15.666 11 30.999 11z" />
    <glyph glyph-name="Edieresis" unicode="&#x41b;" horiz-adv-x="570" 
d="M151 700l344 -0.000976562c15.333 0 25 -2.83301 29 -8.5s6 -14.5 6 -26.5v-630c0 -12 -1.33301 -20 -4 -24c-5.33301 -7.33301 -15.666 -11 -30.999 -11h-78c-15.333 0 -25 2.83301 -29 8.5s-6 14.5 -6 26.5v522c0 10 -6 15 -18 15h-86
c-2.66699 0 -5.5 -0.666992 -8.5 -2s-4.5 -4.66602 -4.5 -9.99902l-3 -117v-95c0 -78.667 -3 -137.334 -9 -176.001c-8.66699 -58 -25.667 -100.667 -51 -128c-29.333 -32 -72.333 -48 -129 -48c-27.333 0 -45.5 2 -54.5 6s-13.5 13 -13.5 27v86
c0 7.33301 1.33301 12.833 4 16.5s9.33398 5.5 20.001 5.5h10c33.333 0 53.666 15 60.999 45c10 40.667 15 148.334 15 323.001l1 160c0 12 1.33301 20 4 24c5.33301 7.33301 15.666 11 30.999 11z" />
    <glyph glyph-name="Igrave" unicode="&#xcc;" horiz-adv-x="636" 
d="M188 402l0.000976562 -366.999c0 -15.333 -2.83301 -25 -8.5 -29s-14.5 -6 -26.5 -6h-78c-12 0 -20 1.33301 -24 4c-7.33301 5.33301 -11 15.666 -11 30.999v630c0 12 1.33301 20 4 24c5.33301 7.33301 15.666 11 30.999 11h89c10 0 18.667 -3.33301 26 -10
c4 -3.33301 7.33301 -8 10 -14l108 -216c1.33301 -3.33301 3.16602 -7 5.49902 -11s4.5 -6 6.5 -6c2.66699 0 5.16699 2.5 7.5 7.5s3.5 7.83301 3.5 8.5l108 214c5.33301 10 11 17 17 21s13 6 21 6h84c15.333 0 25 -2.83301 29 -8.5s6 -14.5 6 -26.5v-630
c0 -15.333 -2.83301 -25 -8.5 -29s-14.5 -6 -26.5 -6h-78c-15.333 -0 -25 2.83301 -29 8.5s-6 14.5 -6 26.5v356c-1.33301 4 -2.66602 6 -3.99902 6l-3 -2l-78 -188c-4 -10.667 -8 -17.667 -12 -21s-9 -5 -15 -5h-34c-11.333 0 -20.333 8.66699 -27 26l-80 196
c-2.66699 -0.666992 -5 -1 -7 -1z" />
    <glyph glyph-name="Igrave" unicode="&#x41c;" horiz-adv-x="636" 
d="M188 402l0.000976562 -366.999c0 -15.333 -2.83301 -25 -8.5 -29s-14.5 -6 -26.5 -6h-78c-12 0 -20 1.33301 -24 4c-7.33301 5.33301 -11 15.666 -11 30.999v630c0 12 1.33301 20 4 24c5.33301 7.33301 15.666 11 30.999 11h89c10 0 18.667 -3.33301 26 -10
c4 -3.33301 7.33301 -8 10 -14l108 -216c1.33301 -3.33301 3.16602 -7 5.49902 -11s4.5 -6 6.5 -6c2.66699 0 5.16699 2.5 7.5 7.5s3.5 7.83301 3.5 8.5l108 214c5.33301 10 11 17 17 21s13 6 21 6h84c15.333 0 25 -2.83301 29 -8.5s6 -14.5 6 -26.5v-630
c0 -15.333 -2.83301 -25 -8.5 -29s-14.5 -6 -26.5 -6h-78c-15.333 -0 -25 2.83301 -29 8.5s-6 14.5 -6 26.5v356c-1.33301 4 -2.66602 6 -3.99902 6l-3 -2l-78 -188c-4 -10.667 -8 -17.667 -12 -21s-9 -5 -15 -5h-34c-11.333 0 -20.333 8.66699 -27 26l-80 196
c-2.66699 -0.666992 -5 -1 -7 -1z" />
    <glyph glyph-name="Iacute" unicode="&#xcd;" horiz-adv-x="516" 
d="M75 700l78.001 0.000976562c15.333 0 25 -2.83301 29 -8.5s6 -14.5 6 -26.5v-193c0 -6 0.833008 -10.667 2.5 -14s5.83398 -5 12.501 -5h109c3.33301 0 5.66602 0.333008 6.99902 1c6 3.33301 9 10 9 20v191c0 12 1.33301 20 4 24c5.33301 7.33301 15.666 11 30.999 11
h78c15.333 0 25 -2.83301 29 -8.5s6 -14.5 6 -26.5v-630c0 -12 -1.33301 -20 -4 -24c-5.33301 -7.33301 -15.666 -11 -30.999 -11h-78c-15.333 0 -25 2.83301 -29 8.5s-6 14.5 -6 26.5v262c0 10.667 -5.33301 16 -16 16h-109c-10 0 -15 -5 -15 -15v-263
c0 -15.333 -2.83301 -25 -8.5 -29s-14.5 -6 -26.5 -6h-78c-12 0 -20 1.33301 -24 4c-7.33301 5.33301 -11 15.666 -11 30.999v630c0 12 1.33301 20 4 24c5.33301 7.33301 15.666 11 30.999 11z" />
    <glyph glyph-name="Iacute" unicode="&#x41d;" horiz-adv-x="516" 
d="M75 700l78.001 0.000976562c15.333 0 25 -2.83301 29 -8.5s6 -14.5 6 -26.5v-193c0 -6 0.833008 -10.667 2.5 -14s5.83398 -5 12.501 -5h109c3.33301 0 5.66602 0.333008 6.99902 1c6 3.33301 9 10 9 20v191c0 12 1.33301 20 4 24c5.33301 7.33301 15.666 11 30.999 11
h78c15.333 0 25 -2.83301 29 -8.5s6 -14.5 6 -26.5v-630c0 -12 -1.33301 -20 -4 -24c-5.33301 -7.33301 -15.666 -11 -30.999 -11h-78c-15.333 0 -25 2.83301 -29 8.5s-6 14.5 -6 26.5v262c0 10.667 -5.33301 16 -16 16h-109c-10 0 -15 -5 -15 -15v-263
c0 -15.333 -2.83301 -25 -8.5 -29s-14.5 -6 -26.5 -6h-78c-12 0 -20 1.33301 -24 4c-7.33301 5.33301 -11 15.666 -11 30.999v630c0 12 1.33301 20 4 24c5.33301 7.33301 15.666 11 30.999 11z" />
    <glyph glyph-name="Icircumflex" unicode="&#xce;" horiz-adv-x="506" 
d="M35 255l-0.000976562 190.001c0 66.667 8.66699 118.667 26 156c33.333 71.333 97.333 107 192 107c88.667 0 150.334 -32 185.001 -96c22 -40.667 33 -96.334 33 -167.001v-190c0 -66 -8.66699 -117.667 -26 -155c-33.333 -72 -97.333 -108 -192 -108
c-74 0 -128.833 21.5 -164.5 64.5s-53.5 109.167 -53.5 198.5zM322.999 272.001v156c0 52 -3 87.333 -9 106c-9.33301 29.333 -29.666 44 -60.999 44s-51.666 -14.333 -60.999 -43c-6 -18.667 -9 -54.334 -9 -107.001v-156c0 -52 3 -87.333 9 -106
c9.33301 -29.333 29.666 -44 60.999 -44s51.666 14.333 60.999 43c6 18.667 9 54.334 9 107.001z" />
    <glyph glyph-name="Icircumflex" unicode="&#x41e;" horiz-adv-x="506" 
d="M35 255l-0.000976562 190.001c0 66.667 8.66699 118.667 26 156c33.333 71.333 97.333 107 192 107c88.667 0 150.334 -32 185.001 -96c22 -40.667 33 -96.334 33 -167.001v-190c0 -66 -8.66699 -117.667 -26 -155c-33.333 -72 -97.333 -108 -192 -108
c-74 0 -128.833 21.5 -164.5 64.5s-53.5 109.167 -53.5 198.5zM322.999 272.001v156c0 52 -3 87.333 -9 106c-9.33301 29.333 -29.666 44 -60.999 44s-51.666 -14.333 -60.999 -43c-6 -18.667 -9 -54.334 -9 -107.001v-156c0 -52 3 -87.333 9 -106
c9.33301 -29.333 29.666 -44 60.999 -44s51.666 14.333 60.999 43c6 18.667 9 54.334 9 107.001z" />
    <glyph glyph-name="Idieresis" unicode="&#xcf;" horiz-adv-x="516" 
d="M75 700l366 0.000976562c15.333 0 25 -2.83301 29 -8.5s6 -14.5 6 -26.5v-630c0 -12 -1.33301 -20 -4 -24c-5.33301 -7.33301 -15.666 -11 -30.999 -11h-78c-15.333 0 -25 2.83301 -29 8.5s-6 14.5 -6 26.5v521c0 10.667 -5.33301 16 -16 16h-109c-10 0 -15 -5 -15 -15
v-522c0 -15.333 -2.83301 -25 -8.5 -29s-14.5 -6 -26.5 -6h-78c-12 0 -20 1.33301 -24 4c-7.33301 5.33301 -11 15.666 -11 30.999v630c0 12 1.33301 20 4 24c5.33301 7.33301 15.666 11 30.999 11z" />
    <glyph glyph-name="Idieresis" unicode="&#x41f;" horiz-adv-x="516" 
d="M75 700l366 0.000976562c15.333 0 25 -2.83301 29 -8.5s6 -14.5 6 -26.5v-630c0 -12 -1.33301 -20 -4 -24c-5.33301 -7.33301 -15.666 -11 -30.999 -11h-78c-15.333 0 -25 2.83301 -29 8.5s-6 14.5 -6 26.5v521c0 10.667 -5.33301 16 -16 16h-109c-10 0 -15 -5 -15 -15
v-522c0 -15.333 -2.83301 -25 -8.5 -29s-14.5 -6 -26.5 -6h-78c-12 0 -20 1.33301 -24 4c-7.33301 5.33301 -11 15.666 -11 30.999v630c0 12 1.33301 20 4 24c5.33301 7.33301 15.666 11 30.999 11z" />
    <glyph glyph-name="Eth" unicode="&#xd0;" horiz-adv-x="528" 
d="M75 700l182.001 0.000976562c100 0 170.333 -26.333 211 -79c26.667 -34.667 40 -79.667 40 -135c0 -68 -22.167 -119 -66.5 -153s-102.5 -51 -174.5 -51h-64c-10 0 -15 -5 -15 -15v-232c0 -15.333 -2.83301 -25 -8.5 -29s-14.5 -6 -26.5 -6h-78c-12 0 -20 1.33301 -24 4
c-7.33301 5.33301 -11 15.666 -11 30.999v630c0 12 1.33301 20 4 24c5.33301 7.33301 15.666 11 30.999 11zM199.001 412.001h58c25.333 0 46.833 7.5 64.5 22.5s26.5 34.5 26.5 58.5c0 22.667 -6.33301 40.667 -19 54c-16 16.667 -40.333 25 -73 25h-55
c-8.66699 0 -13 -4.33301 -13 -13v-137c0 -6.66699 3.66699 -10 11 -10z" />
    <glyph glyph-name="Eth" unicode="&#x420;" horiz-adv-x="528" 
d="M75 700l182.001 0.000976562c100 0 170.333 -26.333 211 -79c26.667 -34.667 40 -79.667 40 -135c0 -68 -22.167 -119 -66.5 -153s-102.5 -51 -174.5 -51h-64c-10 0 -15 -5 -15 -15v-232c0 -15.333 -2.83301 -25 -8.5 -29s-14.5 -6 -26.5 -6h-78c-12 0 -20 1.33301 -24 4
c-7.33301 5.33301 -11 15.666 -11 30.999v630c0 12 1.33301 20 4 24c5.33301 7.33301 15.666 11 30.999 11zM199.001 412.001h58c25.333 0 46.833 7.5 64.5 22.5s26.5 34.5 26.5 58.5c0 22.667 -6.33301 40.667 -19 54c-16 16.667 -40.333 25 -73 25h-55
c-8.66699 0 -13 -4.33301 -13 -13v-137c0 -6.66699 3.66699 -10 11 -10z" />
    <glyph glyph-name="Ntilde" unicode="&#xd1;" horiz-adv-x="449" 
d="M404 677l-0.00292969 -92c0 -5.33301 -0.666992 -9.5 -2 -12.5s-4.66602 -4.5 -9.99902 -4.5c-15.333 3.33301 -31.166 6.5 -47.499 9.5s-31.166 4.5 -44.499 4.5c-45.333 0 -75 -14.333 -89 -43c-8.66699 -18 -13 -50.333 -13 -97v-169c0 -57.333 7.5 -95.5 22.5 -114.5
s43.833 -28.5 86.5 -28.5c24 0 40.333 2.16699 49 6.5s23 6.5 43 6.5c10 0 15 -6 15 -18v-89c0 -15.333 -8.16699 -26.5 -24.5 -33.5s-53.833 -10.5 -112.5 -10.5c-92 0 -155.667 24.667 -191 74c-24 34 -36 85.667 -36 155v284c0 59.333 14 105 42 137
c38 44 102.333 66 193 66c50 0 84 -3.33301 102 -10c11.333 -4 17 -11 17 -21z" />
    <glyph glyph-name="Ntilde" unicode="&#x421;" horiz-adv-x="449" 
d="M404 677l-0.00292969 -92c0 -5.33301 -0.666992 -9.5 -2 -12.5s-4.66602 -4.5 -9.99902 -4.5c-15.333 3.33301 -31.166 6.5 -47.499 9.5s-31.166 4.5 -44.499 4.5c-45.333 0 -75 -14.333 -89 -43c-8.66699 -18 -13 -50.333 -13 -97v-169c0 -57.333 7.5 -95.5 22.5 -114.5
s43.833 -28.5 86.5 -28.5c24 0 40.333 2.16699 49 6.5s23 6.5 43 6.5c10 0 15 -6 15 -18v-89c0 -15.333 -8.16699 -26.5 -24.5 -33.5s-53.833 -10.5 -112.5 -10.5c-92 0 -155.667 24.667 -191 74c-24 34 -36 85.667 -36 155v284c0 59.333 14 105 42 137
c38 44 102.333 66 193 66c50 0 84 -3.33301 102 -10c11.333 -4 17 -11 17 -21z" />
    <glyph glyph-name="Ograve" unicode="&#xd2;" horiz-adv-x="496" 
d="M27 700h442.999c8 0 13.5 -2.5 16.5 -7.5s4.5 -10.5 4.5 -16.5v-89c0 -14 -7 -21 -21 -21h-130c-12 0 -18 -6 -18 -18v-513c0 -12 -1.33301 -20 -4 -24c-5.33301 -7.33301 -15.666 -11 -30.999 -11h-78c-15.333 -0 -25 2.83301 -29 8.5s-6 14.5 -6 26.5v513
c0 12 -6 18 -18 18h-126c-16.667 0 -25 6.66699 -25 20v95c0 12.667 7.33301 19 22 19z" />
    <glyph glyph-name="Ograve" unicode="&#x422;" horiz-adv-x="496" 
d="M27 700h442.999c8 0 13.5 -2.5 16.5 -7.5s4.5 -10.5 4.5 -16.5v-89c0 -14 -7 -21 -21 -21h-130c-12 0 -18 -6 -18 -18v-513c0 -12 -1.33301 -20 -4 -24c-5.33301 -7.33301 -15.666 -11 -30.999 -11h-78c-15.333 -0 -25 2.83301 -29 8.5s-6 14.5 -6 26.5v513
c0 12 -6 18 -18 18h-126c-16.667 0 -25 6.66699 -25 20v95c0 12.667 7.33301 19 22 19z" />
    <glyph glyph-name="Oacute" unicode="&#xd3;" horiz-adv-x="530" 
d="M28 700h114.001c9.33301 0 16.333 -2.16699 21 -6.5s7.66699 -9.5 9 -15.5l86 -251c8 -23.333 13 -35 15 -35c4 0 8.33301 9.33301 13 28l6 25l72 234c2.66699 8.66699 6.66699 14.334 12 17.001s11 4 17 4h107c13.333 0 20 -5 20 -15v-6
c-1.33301 -2.66699 -2 -4.33398 -2 -5.00098l-155 -479c-26 -80.667 -58 -135.667 -96 -165c-32.667 -25.333 -79 -38 -139 -38h-16c-25.333 0 -43 1.33301 -53 4c-16 4.66699 -24 14 -24 28v87c0 7.33301 2.33301 12.333 7 15s10 4 16 4c24 0 40.167 -1.16699 48.5 -3.5
s16.166 -3.5 23.499 -3.5c15.333 0 29 5 41 15s18 22 18 36s-1 23.667 -3 29l-175 471c-2 5.33301 -1.83301 11 0.5 17s7.83301 9 16.5 9z" />
    <glyph glyph-name="Oacute" unicode="&#x423;" horiz-adv-x="530" 
d="M28 700h114.001c9.33301 0 16.333 -2.16699 21 -6.5s7.66699 -9.5 9 -15.5l86 -251c8 -23.333 13 -35 15 -35c4 0 8.33301 9.33301 13 28l6 25l72 234c2.66699 8.66699 6.66699 14.334 12 17.001s11 4 17 4h107c13.333 0 20 -5 20 -15v-6
c-1.33301 -2.66699 -2 -4.33398 -2 -5.00098l-155 -479c-26 -80.667 -58 -135.667 -96 -165c-32.667 -25.333 -79 -38 -139 -38h-16c-25.333 0 -43 1.33301 -53 4c-16 4.66699 -24 14 -24 28v87c0 7.33301 2.33301 12.333 7 15s10 4 16 4c24 0 40.167 -1.16699 48.5 -3.5
s16.166 -3.5 23.499 -3.5c15.333 0 29 5 41 15s18 22 18 36s-1 23.667 -3 29l-175 471c-2 5.33301 -1.83301 11 0.5 17s7.83301 9 16.5 9z" />
    <glyph glyph-name="Ocircumflex" unicode="&#xd4;" horiz-adv-x="724" 
d="M288 25l-0.000976562 45.002c0 4 -1.5 8.16699 -4.5 12.5s-6.16699 6.5 -9.5 6.5h-52c-48 0 -86.667 9.66699 -116 29c-50.667 33.333 -76 92.666 -76 177.999v137c0 60 18 107.333 54 142s82.667 52 140 52h50c9.33301 0 14 4.66699 14 14v39c0 12 1.33301 20 4 24
c5.33301 7.33301 15.666 11 30.999 11h78c15.333 0 25 -2.83301 29 -8.5s6 -14.5 6 -26.5v-39c0 -9.33301 4.66699 -14 14 -14h50c57.333 0 104 -17.333 140 -52s54 -82 54 -142v-137c0 -66.667 -15.667 -117.834 -47 -153.501s-79.666 -53.5 -144.999 -53.5h-52
c-3.33301 0 -6.5 -2.16699 -9.5 -6.5s-4.5 -8.5 -4.5 -12.5v-45c0 -12 -1.33301 -20 -4 -24c-5.33301 -7.33301 -15.666 -11 -30.999 -11h-78c-15.333 0 -25 2.83301 -29 8.5s-6 14.5 -6 26.5zM435.999 495.002v-274.999c0 -7.33301 3.66699 -11 11 -11h36
c42 0 63 32.333 63 97v104c0 39.333 -9 66.666 -27 81.999c-12 10 -26.667 15 -44 15h-28c-7.33301 0 -11 -4 -11 -12zM287.999 217.003l-0.000976562 277.999c0 8 -3.66699 12 -11 12h-28c-18 0 -32.333 -4.66699 -43 -14c-18.667 -16 -28 -43.667 -28 -83v-104
c0 -31.333 5.83301 -55.333 17.5 -72s26.834 -25 45.501 -25h36c2.66699 0.666992 5.16699 1.33398 7.5 2.00098s3.5 2.66699 3.5 6z" />
    <glyph glyph-name="Ocircumflex" unicode="&#x424;" horiz-adv-x="724" 
d="M288 25l-0.000976562 45.002c0 4 -1.5 8.16699 -4.5 12.5s-6.16699 6.5 -9.5 6.5h-52c-48 0 -86.667 9.66699 -116 29c-50.667 33.333 -76 92.666 -76 177.999v137c0 60 18 107.333 54 142s82.667 52 140 52h50c9.33301 0 14 4.66699 14 14v39c0 12 1.33301 20 4 24
c5.33301 7.33301 15.666 11 30.999 11h78c15.333 0 25 -2.83301 29 -8.5s6 -14.5 6 -26.5v-39c0 -9.33301 4.66699 -14 14 -14h50c57.333 0 104 -17.333 140 -52s54 -82 54 -142v-137c0 -66.667 -15.667 -117.834 -47 -153.501s-79.666 -53.5 -144.999 -53.5h-52
c-3.33301 0 -6.5 -2.16699 -9.5 -6.5s-4.5 -8.5 -4.5 -12.5v-45c0 -12 -1.33301 -20 -4 -24c-5.33301 -7.33301 -15.666 -11 -30.999 -11h-78c-15.333 0 -25 2.83301 -29 8.5s-6 14.5 -6 26.5zM435.999 495.002v-274.999c0 -7.33301 3.66699 -11 11 -11h36
c42 0 63 32.333 63 97v104c0 39.333 -9 66.666 -27 81.999c-12 10 -26.667 15 -44 15h-28c-7.33301 0 -11 -4 -11 -12zM287.999 217.003l-0.000976562 277.999c0 8 -3.66699 12 -11 12h-28c-18 0 -32.333 -4.66699 -43 -14c-18.667 -16 -28 -43.667 -28 -83v-104
c0 -31.333 5.83301 -55.333 17.5 -72s26.834 -25 45.501 -25h36c2.66699 0.666992 5.16699 1.33398 7.5 2.00098s3.5 2.66699 3.5 6z" />
    <glyph glyph-name="Otilde" unicode="&#xd5;" horiz-adv-x="514" 
d="M67 700l98.9961 -0.00195312c6.66699 0 13.334 -1.83301 20.001 -5.5s12 -10.167 16 -19.5l49 -114c3.33301 -6.66699 6 -10 8 -10c4.66699 4 7 6.66699 7 8l60 124c2 4 4 7 6 9c5.33301 5.33301 13.333 8 24 8h106c14.667 0 22 -6 22 -18
c0 -4.66699 -1.33301 -9.33398 -4 -14.001l-133 -277c-1.33301 -2.66699 -1.66602 -6 -0.999023 -10s2 -8.33301 4 -13l150 -335c2.66699 -5.33301 4 -10.666 4 -15.999c0 -11.333 -6.66699 -17 -20 -17h-102c-9.33301 0 -15.666 1 -18.999 3c-6.66699 4 -12.667 12 -18 24
l-81 168c-3.33301 5.33301 -5.66602 8 -6.99902 8c-2.66699 -0.666992 -5.66699 -4 -9 -10l-75 -163c-4 -8.66699 -7.66699 -14.667 -11 -18c-7.33301 -8 -16 -12 -26 -12h-107c-12.667 0 -19 6 -19 18c0 4 1.33301 9.33301 4 16l154 332c3.33301 6.66699 5 12.334 5 17.001
c0 2.66699 -0.666992 5.33398 -2 8.00098s-2.33301 5 -3 7l-119 273c-2 4 -3 8 -3 12c0 11.333 7 17 21 17z" />
    <glyph glyph-name="Otilde" unicode="&#x425;" horiz-adv-x="514" 
d="M67 700l98.9961 -0.00195312c6.66699 0 13.334 -1.83301 20.001 -5.5s12 -10.167 16 -19.5l49 -114c3.33301 -6.66699 6 -10 8 -10c4.66699 4 7 6.66699 7 8l60 124c2 4 4 7 6 9c5.33301 5.33301 13.333 8 24 8h106c14.667 0 22 -6 22 -18
c0 -4.66699 -1.33301 -9.33398 -4 -14.001l-133 -277c-1.33301 -2.66699 -1.66602 -6 -0.999023 -10s2 -8.33301 4 -13l150 -335c2.66699 -5.33301 4 -10.666 4 -15.999c0 -11.333 -6.66699 -17 -20 -17h-102c-9.33301 0 -15.666 1 -18.999 3c-6.66699 4 -12.667 12 -18 24
l-81 168c-3.33301 5.33301 -5.66602 8 -6.99902 8c-2.66699 -0.666992 -5.66699 -4 -9 -10l-75 -163c-4 -8.66699 -7.66699 -14.667 -11 -18c-7.33301 -8 -16 -12 -26 -12h-107c-12.667 0 -19 6 -19 18c0 4 1.33301 9.33301 4 16l154 332c3.33301 6.66699 5 12.334 5 17.001
c0 2.66699 -0.666992 5.33398 -2 8.00098s-2.33301 5 -3 7l-119 273c-2 4 -3 8 -3 12c0 11.333 7 17 21 17z" />
    <glyph glyph-name="Odieresis" unicode="&#xd6;" horiz-adv-x="550" 
d="M188 665l0.000976562 -520.001c0 -3.33301 1.33301 -6.66602 4 -9.99902s6.33398 -5 11.001 -5h109c10.667 0 16 5.33301 16 16v519c0 12 1.33301 20 4 24c5.33301 7.33301 15.666 11 30.999 11h78c15.333 0 25 -2.83301 29 -8.5s6 -14.167 6 -25.5v-522
c0 -6.66699 0.5 -10.667 1.5 -12s4.5 -2 10.5 -2h22c12 0 20 -1.33301 24 -4c7.33301 -5.33301 11 -15.666 11 -30.999v-189c0 -15.333 -2.83301 -25 -8.5 -29s-14.5 -6 -26.5 -6h-73c-15.333 0 -25 2.83301 -29 8.5s-6 14.5 -6 26.5v79c0 10 -5.33301 15 -16 15h-311
c-12 0 -20 1.33301 -24 4c-7.33301 5.33301 -11 15.666 -11 30.999v630c0 12 1.33301 20 4 24c5.33301 7.33301 15.666 11 30.999 11h78c15.333 0 25 -2.83301 29 -8.5s6 -14.5 6 -26.5z" />
    <glyph glyph-name="Odieresis" unicode="&#x426;" horiz-adv-x="550" 
d="M188 665l0.000976562 -520.001c0 -3.33301 1.33301 -6.66602 4 -9.99902s6.33398 -5 11.001 -5h109c10.667 0 16 5.33301 16 16v519c0 12 1.33301 20 4 24c5.33301 7.33301 15.666 11 30.999 11h78c15.333 0 25 -2.83301 29 -8.5s6 -14.167 6 -25.5v-522
c0 -6.66699 0.5 -10.667 1.5 -12s4.5 -2 10.5 -2h22c12 0 20 -1.33301 24 -4c7.33301 -5.33301 11 -15.666 11 -30.999v-189c0 -15.333 -2.83301 -25 -8.5 -29s-14.5 -6 -26.5 -6h-73c-15.333 0 -25 2.83301 -29 8.5s-6 14.5 -6 26.5v79c0 10 -5.33301 15 -16 15h-311
c-12 0 -20 1.33301 -24 4c-7.33301 5.33301 -11 15.666 -11 30.999v630c0 12 1.33301 20 4 24c5.33301 7.33301 15.666 11 30.999 11h78c15.333 0 25 -2.83301 29 -8.5s6 -14.5 6 -26.5z" />
    <glyph glyph-name="multiply" unicode="&#xd7;" horiz-adv-x="487" 
d="M30 393l0.00292969 272.001c0 12 1.33301 20 4 24c5.33301 7.33301 15.666 11 30.999 11h78c15.333 0 25 -2.83301 29 -8.5s6 -14.5 6 -26.5v-237c0 -26 6.66699 -44.667 20 -56c10 -8.66699 23.667 -13 41 -13c24 0 40.667 9.33301 50 28
c6.66699 13.333 10 30.666 10 51.999v226c0 12 1.33301 20 4 24c5.33301 7.33301 15.666 11 30.999 11h78c15.333 0 25 -2.83301 29 -8.5s6 -14.5 6 -26.5v-630c0 -15.333 -2.83301 -25 -8.5 -29s-14.5 -6 -26.5 -6h-78c-15.333 -0 -25 2.83301 -29 8.5s-6 14.5 -6 26.5v199
c0 6.66699 -2 10 -6 10c-13.333 -6 -29.333 -11.667 -48 -17s-37.334 -8 -56.001 -8c-44 0 -79.333 11 -106 33c-35.333 29.333 -53 76.333 -53 141z" />
    <glyph glyph-name="multiply" unicode="&#x427;" horiz-adv-x="487" 
d="M30 393l0.00292969 272.001c0 12 1.33301 20 4 24c5.33301 7.33301 15.666 11 30.999 11h78c15.333 0 25 -2.83301 29 -8.5s6 -14.5 6 -26.5v-237c0 -26 6.66699 -44.667 20 -56c10 -8.66699 23.667 -13 41 -13c24 0 40.667 9.33301 50 28
c6.66699 13.333 10 30.666 10 51.999v226c0 12 1.33301 20 4 24c5.33301 7.33301 15.666 11 30.999 11h78c15.333 0 25 -2.83301 29 -8.5s6 -14.5 6 -26.5v-630c0 -15.333 -2.83301 -25 -8.5 -29s-14.5 -6 -26.5 -6h-78c-15.333 -0 -25 2.83301 -29 8.5s-6 14.5 -6 26.5v199
c0 6.66699 -2 10 -6 10c-13.333 -6 -29.333 -11.667 -48 -17s-37.334 -8 -56.001 -8c-44 0 -79.333 11 -106 33c-35.333 29.333 -53 76.333 -53 141z" />
    <glyph glyph-name="Oslash" unicode="&#xd8;" horiz-adv-x="792" 
d="M40 35l0.000976562 629.999c0 12 1.33301 20 4 24c5.33301 7.33301 15.666 11 30.999 11h78c15.333 0 25 -2.83301 29 -8.5s6 -14.5 6 -26.5v-520c0 -3.33301 1.33301 -6.66602 4 -9.99902s6.33398 -5 11.001 -5h103c10.667 0 16 5.33301 16 16v519c0 12 1.33301 20 4 24
c5.33301 7.33301 15.666 11 30.999 11h78c15.333 0 25 -2.83301 29 -8.5s6 -14.5 6 -26.5v-520c0 -3.33301 1.33301 -6.66602 4 -9.99902s6.33398 -5 11.001 -5h103c10.667 0 16 5.33301 16 16v519c0 12 1.33301 20 4 24c5.33301 7.33301 15.666 11 30.999 11h78
c15.333 0 25 -2.83301 29 -8.5s6 -14.167 6 -25.5v-631c0 -15.333 -2.83301 -25 -8.5 -29s-14.5 -6 -26.5 -6h-642c-12 0 -20 1.33301 -24 4c-7.33301 5.33301 -11 15.666 -11 30.999z" />
    <glyph glyph-name="Oslash" unicode="&#x428;" horiz-adv-x="792" 
d="M40 35l0.000976562 629.999c0 12 1.33301 20 4 24c5.33301 7.33301 15.666 11 30.999 11h78c15.333 0 25 -2.83301 29 -8.5s6 -14.5 6 -26.5v-520c0 -3.33301 1.33301 -6.66602 4 -9.99902s6.33398 -5 11.001 -5h103c10.667 0 16 5.33301 16 16v519c0 12 1.33301 20 4 24
c5.33301 7.33301 15.666 11 30.999 11h78c15.333 0 25 -2.83301 29 -8.5s6 -14.5 6 -26.5v-520c0 -3.33301 1.33301 -6.66602 4 -9.99902s6.33398 -5 11.001 -5h103c10.667 0 16 5.33301 16 16v519c0 12 1.33301 20 4 24c5.33301 7.33301 15.666 11 30.999 11h78
c15.333 0 25 -2.83301 29 -8.5s6 -14.167 6 -25.5v-631c0 -15.333 -2.83301 -25 -8.5 -29s-14.5 -6 -26.5 -6h-642c-12 0 -20 1.33301 -24 4c-7.33301 5.33301 -11 15.666 -11 30.999z" />
    <glyph glyph-name="Ugrave" unicode="&#xd9;" horiz-adv-x="826" 
d="M40 35v629.999c0 12 1.33301 20 4 24c5.33301 7.33301 15.666 11 30.999 11h78c15.333 0 25 -2.83301 29 -8.5s6 -14.5 6 -26.5v-520c0 -3.33301 1.33301 -6.66602 4 -9.99902s6.33398 -5 11.001 -5h103c10.667 0 16 5.33301 16 16v519c0 12 1.33301 20 4 24
c5.33301 7.33301 15.666 11 30.999 11h78c15.333 0 25 -2.83301 29 -8.5s6 -14.5 6 -26.5v-520c0 -3.33301 1.33301 -6.66602 4 -9.99902s6.33398 -5 11.001 -5h103c10.667 0 16 5.33301 16 16v519c0 12 1.33301 20 4 24c5.33301 7.33301 15.666 11 30.999 11h78
c15.333 0 25 -2.83301 29 -8.5s6 -14.167 6 -25.5v-522c0 -6.66699 0.5 -10.667 1.5 -12s4.5 -2 10.5 -2h22c12 0 20 -1.33301 24 -4c7.33301 -5.33301 11 -15.666 11 -30.999v-189c0 -12 -1.33301 -20 -4 -24c-5.33301 -7.33301 -15.666 -11 -30.999 -11h-73
c-12 0 -20 1.33301 -24 4c-7.33301 5.33301 -11 15.666 -11 30.999v79c0 10 -5.33301 15 -16 15h-587c-12 0 -20 1.33301 -24 4c-7.33301 5.33301 -11 15.666 -11 30.999z" />
    <glyph glyph-name="Ugrave" unicode="&#x429;" horiz-adv-x="826" 
d="M40 35v629.999c0 12 1.33301 20 4 24c5.33301 7.33301 15.666 11 30.999 11h78c15.333 0 25 -2.83301 29 -8.5s6 -14.5 6 -26.5v-520c0 -3.33301 1.33301 -6.66602 4 -9.99902s6.33398 -5 11.001 -5h103c10.667 0 16 5.33301 16 16v519c0 12 1.33301 20 4 24
c5.33301 7.33301 15.666 11 30.999 11h78c15.333 0 25 -2.83301 29 -8.5s6 -14.5 6 -26.5v-520c0 -3.33301 1.33301 -6.66602 4 -9.99902s6.33398 -5 11.001 -5h103c10.667 0 16 5.33301 16 16v519c0 12 1.33301 20 4 24c5.33301 7.33301 15.666 11 30.999 11h78
c15.333 0 25 -2.83301 29 -8.5s6 -14.167 6 -25.5v-522c0 -6.66699 0.5 -10.667 1.5 -12s4.5 -2 10.5 -2h22c12 0 20 -1.33301 24 -4c7.33301 -5.33301 11 -15.666 11 -30.999v-189c0 -12 -1.33301 -20 -4 -24c-5.33301 -7.33301 -15.666 -11 -30.999 -11h-73
c-12 0 -20 1.33301 -24 4c-7.33301 5.33301 -11 15.666 -11 30.999v79c0 10 -5.33301 15 -16 15h-587c-12 0 -20 1.33301 -24 4c-7.33301 5.33301 -11 15.666 -11 30.999z" />
    <glyph glyph-name="Uacute" unicode="&#xda;" horiz-adv-x="675" 
d="M168 35l0.000976562 537.001h-123c-12 0 -20 1.33301 -24 4c-7.33301 5.33301 -11 15.666 -11 30.999v58c0 12 1.33301 20 4 24c5.33301 7.33301 15.666 11 30.999 11h236c15.333 0 25 -2.83301 29 -8.5s6 -14.5 6 -26.5v-203c0 -8 4 -12 12 -12h74
c74 0 131.333 -21 172 -63s61 -98.667 61 -170c0 -85.333 -29 -145.666 -87 -180.999c-40 -24 -93 -36 -159 -36h-186c-12 0 -20 1.33301 -24 4c-7.33301 5.33301 -11 15.666 -11 30.999zM316.001 305.001v-154.001c0 -9.33301 4.33301 -14 13 -14h65
c23.333 0 42.5 9.33301 57.5 28s22.5 40.334 22.5 65.001c0 25.333 -8.16699 46.5 -24.5 63.5s-38.833 25.5 -67.5 25.5h-52c-9.33301 0 -14 -4.66699 -14 -14z" />
    <glyph glyph-name="Uacute" unicode="&#x42a;" horiz-adv-x="675" 
d="M168 35l0.000976562 537.001h-123c-12 0 -20 1.33301 -24 4c-7.33301 5.33301 -11 15.666 -11 30.999v58c0 12 1.33301 20 4 24c5.33301 7.33301 15.666 11 30.999 11h236c15.333 0 25 -2.83301 29 -8.5s6 -14.5 6 -26.5v-203c0 -8 4 -12 12 -12h74
c74 0 131.333 -21 172 -63s61 -98.667 61 -170c0 -85.333 -29 -145.666 -87 -180.999c-40 -24 -93 -36 -159 -36h-186c-12 0 -20 1.33301 -24 4c-7.33301 5.33301 -11 15.666 -11 30.999zM316.001 305.001v-154.001c0 -9.33301 4.33301 -14 13 -14h65
c23.333 0 42.5 9.33301 57.5 28s22.5 40.334 22.5 65.001c0 25.333 -8.16699 46.5 -24.5 63.5s-38.833 25.5 -67.5 25.5h-52c-9.33301 0 -14 -4.66699 -14 -14z" />
    <glyph glyph-name="Ucircumflex" unicode="&#xdb;" horiz-adv-x="755" 
d="M50 35l0.000976562 629.999c0 12 1.33301 20 4 24c5.33301 7.33301 15.666 11 30.999 11h78c15.333 0 25 -2.83301 29 -8.5s6 -14.5 6 -26.5v-203c0 -8 4 -12 12 -12h74c74 0 131.333 -21 172 -63s61 -98.667 61 -170c0 -85.333 -29 -145.666 -87 -180.999
c-40 -24 -93 -36 -159 -36h-186c-15.333 -0 -25 2.83301 -29 8.5s-6 14.5 -6 26.5zM198.001 304.999v-154.001c0 -9.33301 4.33301 -14 13 -14h65c23.333 0 42.5 9.33301 57.5 28s22.5 40.334 22.5 65.001s-8.33301 45.667 -25 63s-39 26 -67 26h-52
c-9.33301 0 -14 -4.66699 -14 -14zM557.001 34.998l0.000976562 630c0 12 1.33301 20 4 24c5.33301 7.33301 15.666 11 30.999 11h78c12 0 20 -1.33301 24 -4c7.33301 -5.33301 11 -15.666 11 -30.999v-630c0 -15.333 -2.83301 -25 -8.5 -29s-14.5 -6 -26.5 -6h-78
c-12 0 -20 1.33301 -24 4c-7.33301 5.33301 -11 15.666 -11 30.999z" />
    <glyph glyph-name="Ucircumflex" unicode="&#x42b;" horiz-adv-x="755" 
d="M50 35l0.000976562 629.999c0 12 1.33301 20 4 24c5.33301 7.33301 15.666 11 30.999 11h78c15.333 0 25 -2.83301 29 -8.5s6 -14.5 6 -26.5v-203c0 -8 4 -12 12 -12h74c74 0 131.333 -21 172 -63s61 -98.667 61 -170c0 -85.333 -29 -145.666 -87 -180.999
c-40 -24 -93 -36 -159 -36h-186c-15.333 -0 -25 2.83301 -29 8.5s-6 14.5 -6 26.5zM198.001 304.999v-154.001c0 -9.33301 4.33301 -14 13 -14h65c23.333 0 42.5 9.33301 57.5 28s22.5 40.334 22.5 65.001s-8.33301 45.667 -25 63s-39 26 -67 26h-52
c-9.33301 0 -14 -4.66699 -14 -14zM557.001 34.998l0.000976562 630c0 12 1.33301 20 4 24c5.33301 7.33301 15.666 11 30.999 11h78c12 0 20 -1.33301 24 -4c7.33301 -5.33301 11 -15.666 11 -30.999v-630c0 -15.333 -2.83301 -25 -8.5 -29s-14.5 -6 -26.5 -6h-78
c-12 0 -20 1.33301 -24 4c-7.33301 5.33301 -11 15.666 -11 30.999z" />
    <glyph glyph-name="Udieresis" unicode="&#xdc;" horiz-adv-x="542" 
d="M50 35l0.000976562 629.999c0 12 1.33301 20 4 24c5.33301 7.33301 15.666 11 30.999 11h78c15.333 0 25 -2.83301 29 -8.5s6 -14.5 6 -26.5v-203c0 -8 4 -12 12 -12h74c74 0 131.333 -21 172 -63s61 -98.667 61 -170c0 -85.333 -29 -145.666 -87 -180.999
c-40 -24 -93 -36 -159 -36h-186c-15.333 -0 -25 2.83301 -29 8.5s-6 14.5 -6 26.5zM198.001 304.999v-154.001c0 -9.33301 4.33301 -14 13 -14h65c23.333 0 42.5 9.33301 57.5 28s22.5 40.334 22.5 65.001s-8.33301 45.667 -25 63s-39 26 -67 26h-52
c-9.33301 0 -14 -4.66699 -14 -14z" />
    <glyph glyph-name="Udieresis" unicode="&#x42c;" horiz-adv-x="542" 
d="M50 35l0.000976562 629.999c0 12 1.33301 20 4 24c5.33301 7.33301 15.666 11 30.999 11h78c15.333 0 25 -2.83301 29 -8.5s6 -14.5 6 -26.5v-203c0 -8 4 -12 12 -12h74c74 0 131.333 -21 172 -63s61 -98.667 61 -170c0 -85.333 -29 -145.666 -87 -180.999
c-40 -24 -93 -36 -159 -36h-186c-15.333 -0 -25 2.83301 -29 8.5s-6 14.5 -6 26.5zM198.001 304.999v-154.001c0 -9.33301 4.33301 -14 13 -14h65c23.333 0 42.5 9.33301 57.5 28s22.5 40.334 22.5 65.001s-8.33301 45.667 -25 63s-39 26 -67 26h-52
c-9.33301 0 -14 -4.66699 -14 -14z" />
    <glyph glyph-name="Yacute" unicode="&#xdd;" horiz-adv-x="443" 
d="M44 586l-0.00195312 86.001c0 15.333 10.167 25.166 30.5 29.499s54.5 6.5 102.5 6.5c98 0 163.333 -26 196 -78c20 -32 30 -86.333 30 -163v-215c0 -111.333 -22.333 -185.333 -67 -222c-30.667 -25.333 -85.334 -38 -164.001 -38c-56 0 -93.667 4.33301 -113 13
c-12.667 5.33301 -19 14.333 -19 27v91c0.666992 4 1.33398 6.66699 2.00098 8c3.33301 6 9.33301 9 18 9l40 -5c8 -1.33301 15.833 -2.33301 23.5 -3s18.5 -1 32.5 -1c33.333 0 56.333 5 69 15c20 15.333 30 47 30 95v57c0 10 -4.66699 15 -14 15h-146
c-13.333 0 -20 7.33301 -20 22v98c0 13.333 6.66699 20 20 20h146c9.33301 0 14 5.33301 14 16v24c0 32.667 -7.16699 55.5 -21.5 68.5s-36.166 19.5 -65.499 19.5c-22 0 -36.333 -1 -43 -3c-19.333 -6 -40.666 -9 -63.999 -9c-4 0 -7.83301 1 -11.5 3s-5.5 6.66699 -5.5 14
z" />
    <glyph glyph-name="Yacute" unicode="&#x42d;" horiz-adv-x="443" 
d="M44 586l-0.00195312 86.001c0 15.333 10.167 25.166 30.5 29.499s54.5 6.5 102.5 6.5c98 0 163.333 -26 196 -78c20 -32 30 -86.333 30 -163v-215c0 -111.333 -22.333 -185.333 -67 -222c-30.667 -25.333 -85.334 -38 -164.001 -38c-56 0 -93.667 4.33301 -113 13
c-12.667 5.33301 -19 14.333 -19 27v91c0.666992 4 1.33398 6.66699 2.00098 8c3.33301 6 9.33301 9 18 9l40 -5c8 -1.33301 15.833 -2.33301 23.5 -3s18.5 -1 32.5 -1c33.333 0 56.333 5 69 15c20 15.333 30 47 30 95v57c0 10 -4.66699 15 -14 15h-146
c-13.333 0 -20 7.33301 -20 22v98c0 13.333 6.66699 20 20 20h146c9.33301 0 14 5.33301 14 16v24c0 32.667 -7.16699 55.5 -21.5 68.5s-36.166 19.5 -65.499 19.5c-22 0 -36.333 -1 -43 -3c-19.333 -6 -40.666 -9 -63.999 -9c-4 0 -7.83301 1 -11.5 3s-5.5 6.66699 -5.5 14
z" />
    <glyph glyph-name="Thorn" unicode="&#xde;" horiz-adv-x="776" 
d="M213 453l62.999 0.00195312c9.33301 0 14 4.66699 14 14v6c0 89.333 26 153.666 78 192.999c37.333 28 84 42 140 42c88.667 0 150.334 -32 185.001 -96c22 -40.667 33 -96.334 33 -167.001v-190c0 -66 -8.66699 -117.667 -26 -155c-33.333 -72 -97.333 -108 -192 -108
c-74 0 -128.833 21.5 -164.5 64.5s-53.5 109.167 -53.5 198.5v44c0 9.33301 -5 14 -15 14h-62c-10 0 -15 -5 -15 -15v-263c0 -15.333 -2.83301 -25 -8.5 -29s-14.5 -6 -26.5 -6h-78c-15.333 -0 -25 2.83301 -29 8.5s-6 14.5 -6 26.5v630c0 12 1.33301 20 4 24
c5.33301 7.33301 15.666 11 30.999 11h78c15.333 0 25 -2.83301 29 -8.5s6 -14.5 6 -26.5v-193c0 -6 0.833008 -10.667 2.5 -14s5.83398 -5 12.501 -5zM577.999 272.002v156c0 52 -3 87.333 -9 106c-9.33301 29.333 -29.666 44 -60.999 44s-51.666 -14.333 -60.999 -43
c-6 -18.667 -9 -54.334 -9 -107.001v-156c0 -52 3 -87.333 9 -106c9.33301 -29.333 29.666 -44 60.999 -44s51.666 14.333 60.999 43c6 18.667 9 54.334 9 107.001z" />
    <glyph glyph-name="Thorn" unicode="&#x42e;" horiz-adv-x="776" 
d="M213 453l62.999 0.00195312c9.33301 0 14 4.66699 14 14v6c0 89.333 26 153.666 78 192.999c37.333 28 84 42 140 42c88.667 0 150.334 -32 185.001 -96c22 -40.667 33 -96.334 33 -167.001v-190c0 -66 -8.66699 -117.667 -26 -155c-33.333 -72 -97.333 -108 -192 -108
c-74 0 -128.833 21.5 -164.5 64.5s-53.5 109.167 -53.5 198.5v44c0 9.33301 -5 14 -15 14h-62c-10 0 -15 -5 -15 -15v-263c0 -15.333 -2.83301 -25 -8.5 -29s-14.5 -6 -26.5 -6h-78c-15.333 -0 -25 2.83301 -29 8.5s-6 14.5 -6 26.5v630c0 12 1.33301 20 4 24
c5.33301 7.33301 15.666 11 30.999 11h78c15.333 0 25 -2.83301 29 -8.5s6 -14.5 6 -26.5v-193c0 -6 0.833008 -10.667 2.5 -14s5.83398 -5 12.501 -5zM577.999 272.002v156c0 52 -3 87.333 -9 106c-9.33301 29.333 -29.666 44 -60.999 44s-51.666 -14.333 -60.999 -43
c-6 -18.667 -9 -54.334 -9 -107.001v-156c0 -52 3 -87.333 9 -106c9.33301 -29.333 29.666 -44 60.999 -44s51.666 14.333 60.999 43c6 18.667 9 54.334 9 107.001z" />
    <glyph glyph-name="germandbls" unicode="&#xdf;" horiz-adv-x="545" 
d="M285 700l184.998 0.00195312c15.333 0 25 -2.83301 29 -8.5s6 -14.5 6 -26.5v-630c0 -15.333 -2.83301 -25 -8.5 -29s-14.5 -6 -26.5 -6h-78c-15.333 0 -25 2.83301 -29 8.5s-6 14.5 -6 26.5v248c0 8 -3.66699 12 -11 12h-19c-9.33301 0 -16.333 -4.66699 -21 -14
l-119 -260c-3.33301 -8 -7.16602 -13.5 -11.499 -16.5s-13.166 -4.5 -26.499 -4.5h-104c-16 0 -24 7.66699 -24 23c0 3.33301 1 7.66602 3 12.999l129 270c3.33301 6.66699 5 12 5 16s-4 8 -12 12c-14 6.66699 -23.333 11.667 -28 15c-28 21.333 -48.333 47 -61 77
c-10 24 -15 50 -15 78c0 51.333 17.333 94.666 52 129.999c43.333 44 107 66 191 66zM356.998 437.002v118c0 11.333 -5.66699 17 -17 17h-44c-32 0 -56 -8.33301 -72 -25c-13.333 -14 -20 -31.333 -20 -52c0 -23.333 8.33301 -42 25 -56s39 -21 67 -21h45
c10.667 0 16 6.33301 16 19z" />
    <glyph glyph-name="germandbls" unicode="&#x42f;" horiz-adv-x="545" 
d="M285 700l184.998 0.00195312c15.333 0 25 -2.83301 29 -8.5s6 -14.5 6 -26.5v-630c0 -15.333 -2.83301 -25 -8.5 -29s-14.5 -6 -26.5 -6h-78c-15.333 0 -25 2.83301 -29 8.5s-6 14.5 -6 26.5v248c0 8 -3.66699 12 -11 12h-19c-9.33301 0 -16.333 -4.66699 -21 -14
l-119 -260c-3.33301 -8 -7.16602 -13.5 -11.499 -16.5s-13.166 -4.5 -26.499 -4.5h-104c-16 0 -24 7.66699 -24 23c0 3.33301 1 7.66602 3 12.999l129 270c3.33301 6.66699 5 12 5 16s-4 8 -12 12c-14 6.66699 -23.333 11.667 -28 15c-28 21.333 -48.333 47 -61 77
c-10 24 -15 50 -15 78c0 51.333 17.333 94.666 52 129.999c43.333 44 107 66 191 66zM356.998 437.002v118c0 11.333 -5.66699 17 -17 17h-44c-32 0 -56 -8.33301 -72 -25c-13.333 -14 -20 -31.333 -20 -52c0 -23.333 8.33301 -42 25 -56s39 -21 67 -21h45
c10.667 0 16 6.33301 16 19z" />
    <glyph glyph-name="agrave" unicode="&#xe0;" horiz-adv-x="435" 
d="M395 406l0.000976562 -371c0 -10.667 -1 -18 -3 -22c-4.66699 -8.66699 -13.667 -13 -27 -13h-84c-12.667 -0 -19 5.33301 -19 16c0 4.66699 -2.66699 7 -8 7c-4.66699 -2 -7.66699 -3.66699 -9 -5c-8.66699 -8 -20.834 -14.333 -36.501 -19s-30.834 -7 -45.501 -7
c-38.667 0 -70.334 14 -95.001 42c-27.333 31.333 -41 75.666 -41 132.999c0 68 22 121 66 159c26 22 69.667 44.333 131 67l25 9c6.66699 2.66699 10 8 10 16c0 14 -6.16699 23.667 -18.5 29s-27.5 8 -45.5 8c-18.667 0 -33 -1 -43 -3
c-11.333 -3.33301 -21.166 -6 -29.499 -8s-14.833 -4 -19.5 -6c-12.667 -4.66699 -20.667 -7 -24 -7c-12.667 0 -19 6 -19 18v62c0 12.667 7.33301 23.334 22 32.001c24.667 14 66.334 21 125.001 21c76 0 128.667 -17.333 158 -52c20 -24 30 -59.333 30 -106zM259.001 150
v128.002c0 3.33301 -1.33301 5.66602 -4 6.99902s-6 0.666016 -10 -2.00098l-17 -11c-20 -12.667 -34 -24.667 -42 -36c-11.333 -16 -17 -36.333 -17 -61c0 -18.667 3.5 -33.667 10.5 -45s18.167 -17 33.5 -17c13.333 0 24.333 3.66699 33 11s13 16 13 26z" />
    <glyph glyph-name="agrave" unicode="&#x430;" horiz-adv-x="435" 
d="M395 406l0.000976562 -371c0 -10.667 -1 -18 -3 -22c-4.66699 -8.66699 -13.667 -13 -27 -13h-84c-12.667 -0 -19 5.33301 -19 16c0 4.66699 -2.66699 7 -8 7c-4.66699 -2 -7.66699 -3.66699 -9 -5c-8.66699 -8 -20.834 -14.333 -36.501 -19s-30.834 -7 -45.501 -7
c-38.667 0 -70.334 14 -95.001 42c-27.333 31.333 -41 75.666 -41 132.999c0 68 22 121 66 159c26 22 69.667 44.333 131 67l25 9c6.66699 2.66699 10 8 10 16c0 14 -6.16699 23.667 -18.5 29s-27.5 8 -45.5 8c-18.667 0 -33 -1 -43 -3
c-11.333 -3.33301 -21.166 -6 -29.499 -8s-14.833 -4 -19.5 -6c-12.667 -4.66699 -20.667 -7 -24 -7c-12.667 0 -19 6 -19 18v62c0 12.667 7.33301 23.334 22 32.001c24.667 14 66.334 21 125.001 21c76 0 128.667 -17.333 158 -52c20 -24 30 -59.333 30 -106zM259.001 150
v128.002c0 3.33301 -1.33301 5.66602 -4 6.99902s-6 0.666016 -10 -2.00098l-17 -11c-20 -12.667 -34 -24.667 -42 -36c-11.333 -16 -17 -36.333 -17 -61c0 -18.667 3.5 -33.667 10.5 -45s18.167 -17 33.5 -17c13.333 0 24.333 3.66699 33 11s13 16 13 26z" />
    <glyph glyph-name="aacute" unicode="&#xe1;" horiz-adv-x="449" 
d="M308 704l90.999 -0.00488281c10.667 0 16 -4.66699 16 -14c0 -35.333 -14.333 -60.333 -43 -75c-18.667 -9.33301 -46.667 -15.666 -84 -18.999s-63.666 -7 -78.999 -11c-28 -7.33301 -42 -18.333 -42 -33c0 -1.33301 0.666992 -2.33301 2 -3l4 -2
c11.333 0 21 2.16699 29 6.5s22.333 6.5 43 6.5c56 0 98.167 -18.167 126.5 -54.5s42.5 -84.166 42.5 -143.499v-169c0 -54.667 -10 -97.667 -30 -129c-30.667 -48 -84 -72 -160 -72c-74 0 -126.667 24 -158 72c-21.333 32.667 -32 75.667 -32 129v191
c0 76.667 9.66699 133 29 169c31.333 58.667 94.333 98.667 189 120c14 2.66699 23.333 5.33398 28 8.00098s8.16699 5.83398 10.5 9.50098s4.5 6.83398 6.5 9.50098s5.66699 4 11 4zM169.999 381.995v-212c0 -24.667 5.66699 -42.334 17 -53.001
c9.33301 -8.66699 21.666 -13 36.999 -13c14.667 0 26.667 4.33301 36 13c12 11.333 18 29 18 53v212c0 24.667 -5.16699 41.834 -15.5 51.501s-23.166 14.5 -38.499 14.5c-14.667 0 -26.667 -4.33301 -36 -13c-12 -11.333 -18 -29 -18 -53z" />
    <glyph glyph-name="aacute" unicode="&#x431;" horiz-adv-x="449" 
d="M308 704l90.999 -0.00488281c10.667 0 16 -4.66699 16 -14c0 -35.333 -14.333 -60.333 -43 -75c-18.667 -9.33301 -46.667 -15.666 -84 -18.999s-63.666 -7 -78.999 -11c-28 -7.33301 -42 -18.333 -42 -33c0 -1.33301 0.666992 -2.33301 2 -3l4 -2
c11.333 0 21 2.16699 29 6.5s22.333 6.5 43 6.5c56 0 98.167 -18.167 126.5 -54.5s42.5 -84.166 42.5 -143.499v-169c0 -54.667 -10 -97.667 -30 -129c-30.667 -48 -84 -72 -160 -72c-74 0 -126.667 24 -158 72c-21.333 32.667 -32 75.667 -32 129v191
c0 76.667 9.66699 133 29 169c31.333 58.667 94.333 98.667 189 120c14 2.66699 23.333 5.33398 28 8.00098s8.16699 5.83398 10.5 9.50098s4.5 6.83398 6.5 9.50098s5.66699 4 11 4zM169.999 381.995v-212c0 -24.667 5.66699 -42.334 17 -53.001
c9.33301 -8.66699 21.666 -13 36.999 -13c14.667 0 26.667 4.33301 36 13c12 11.333 18 29 18 53v212c0 24.667 -5.16699 41.834 -15.5 51.501s-23.166 14.5 -38.499 14.5c-14.667 0 -26.667 -4.33301 -36 -13c-12 -11.333 -18 -29 -18 -53z" />
    <glyph glyph-name="acircumflex" unicode="&#xe2;" horiz-adv-x="454" 
d="M40 28v499.999c0 12 2.5 19.667 7.5 23s11.833 5 20.5 5h175c51.333 0 91.333 -14 120 -42c25.333 -25.333 38 -56.666 38 -93.999c0 -28 -7.33301 -52.333 -22 -73c-8.66699 -12.667 -20.667 -24 -36 -34c-2 -1.33301 -3.33301 -2.5 -4 -3.5s0 -1.83301 2 -2.5l22 -12
c18 -10.667 32 -25 42 -43c12.667 -22 19 -49.667 19 -83c0 -55.333 -17.333 -97.333 -52 -126s-84 -43 -148 -43h-161c-7.33301 -0 -13 2.33301 -17 7s-6 11.667 -6 21zM176 438.999l0.000976562 -78c0 -6.66699 3.33301 -10 10 -10h23
c15.333 0 27.166 4.83301 35.499 14.5s12.5 21.5 12.5 35.5s-4.83301 25.5 -14.5 34.5s-22.5 13.5 -38.5 13.5h-18c-6.66699 0 -10 -3.33301 -10 -10zM176.001 230.999v-111.999c0 -8 3 -12 9 -12h23c22.667 0 40 6.66699 52 20s18 29.666 18 48.999c0 18 -6 34 -18 48
s-28.333 21 -49 21h-23c-4.66699 0 -7.66699 -1.5 -9 -4.5s-2.33301 -6.16699 -3 -9.5z" />
    <glyph glyph-name="acircumflex" unicode="&#x432;" horiz-adv-x="454" 
d="M40 28v499.999c0 12 2.5 19.667 7.5 23s11.833 5 20.5 5h175c51.333 0 91.333 -14 120 -42c25.333 -25.333 38 -56.666 38 -93.999c0 -28 -7.33301 -52.333 -22 -73c-8.66699 -12.667 -20.667 -24 -36 -34c-2 -1.33301 -3.33301 -2.5 -4 -3.5s0 -1.83301 2 -2.5l22 -12
c18 -10.667 32 -25 42 -43c12.667 -22 19 -49.667 19 -83c0 -55.333 -17.333 -97.333 -52 -126s-84 -43 -148 -43h-161c-7.33301 -0 -13 2.33301 -17 7s-6 11.667 -6 21zM176 438.999l0.000976562 -78c0 -6.66699 3.33301 -10 10 -10h23
c15.333 0 27.166 4.83301 35.499 14.5s12.5 21.5 12.5 35.5s-4.83301 25.5 -14.5 34.5s-22.5 13.5 -38.5 13.5h-18c-6.66699 0 -10 -3.33301 -10 -10zM176.001 230.999v-111.999c0 -8 3 -12 9 -12h23c22.667 0 40 6.66699 52 20s18 29.666 18 48.999c0 18 -6 34 -18 48
s-28.333 21 -49 21h-23c-4.66699 0 -7.66699 -1.5 -9 -4.5s-2.33301 -6.16699 -3 -9.5z" />
    <glyph glyph-name="atilde" unicode="&#xe3;" horiz-adv-x="361" 
d="M176 427v-399c0 -12 -2.5 -19.667 -7.5 -23s-11.833 -5 -20.5 -5h-80c-12 0 -19.667 2.5 -23 7.5s-5 11.833 -5 20.5v500c0 12 2.5 19.667 7.5 23s11.833 5 20.5 5h260c8.66699 0 15.5 -1.66699 20.5 -5s7.5 -11 7.5 -23v-65c0 -8.66699 -1.66699 -15.5 -5 -20.5
s-11 -7.5 -23 -7.5h-140c-8 0 -12 -2.66699 -12 -8z" />
    <glyph glyph-name="atilde" unicode="&#x433;" horiz-adv-x="361" 
d="M176 427v-399c0 -12 -2.5 -19.667 -7.5 -23s-11.833 -5 -20.5 -5h-80c-12 0 -19.667 2.5 -23 7.5s-5 11.833 -5 20.5v500c0 12 2.5 19.667 7.5 23s11.833 5 20.5 5h260c8.66699 0 15.5 -1.66699 20.5 -5s7.5 -11 7.5 -23v-65c0 -8.66699 -1.66699 -15.5 -5 -20.5
s-11 -7.5 -23 -7.5h-140c-8 0 -12 -2.66699 -12 -8z" />
    <glyph glyph-name="adieresis" unicode="&#xe4;" horiz-adv-x="483" 
d="M138 556h258c8.66699 0 15.5 -1.66699 20.5 -5s7.5 -11 7.5 -23v-403c0 -10 4.33301 -15 13 -15h10c8.66699 0 15.5 -1.66699 20.5 -5s7.5 -11 7.5 -23v-170c0 -12 -2.5 -19.667 -7.5 -23s-11.833 -5 -20.5 -5h-74c-12 0 -19.667 2.5 -23 7.5s-5 11.833 -5 20.5v72
c0 10.667 -5.33301 16 -16 16h-178c-10.667 0 -16 -5.33301 -16 -16v-72c0 -12 -2.5 -19.667 -7.5 -23s-11.833 -5 -20.5 -5h-74c-8.66699 0 -15.5 1.66699 -20.5 5s-7.5 11 -7.5 23v170c0 8.66699 1.83301 15.5 5.5 20.5s8.83398 7.5 15.501 7.5h11
c12.667 0 21.667 7.33301 27 22c1.33301 3.33301 3.66602 12.333 6.99902 27c12.667 50 22.167 102.667 28.5 158s9.5 116.333 9.5 183l1 28c0 8.66699 1.66699 15.5 5 20.5s11 7.5 23 7.5zM277 442h-33.999c-6.66699 0 -10.334 -3.66699 -11.001 -11l-2 -33
c0 -88.667 -4 -156 -12 -202l-26 -78c3.33301 -5.33301 6.33301 -8 9 -8h75c8 0 12 4.66699 12 14v306c0 8 -3.66699 12 -11 12z" />
    <glyph glyph-name="adieresis" unicode="&#x434;" horiz-adv-x="483" 
d="M138 556h258c8.66699 0 15.5 -1.66699 20.5 -5s7.5 -11 7.5 -23v-403c0 -10 4.33301 -15 13 -15h10c8.66699 0 15.5 -1.66699 20.5 -5s7.5 -11 7.5 -23v-170c0 -12 -2.5 -19.667 -7.5 -23s-11.833 -5 -20.5 -5h-74c-12 0 -19.667 2.5 -23 7.5s-5 11.833 -5 20.5v72
c0 10.667 -5.33301 16 -16 16h-178c-10.667 0 -16 -5.33301 -16 -16v-72c0 -12 -2.5 -19.667 -7.5 -23s-11.833 -5 -20.5 -5h-74c-8.66699 0 -15.5 1.66699 -20.5 5s-7.5 11 -7.5 23v170c0 8.66699 1.83301 15.5 5.5 20.5s8.83398 7.5 15.501 7.5h11
c12.667 0 21.667 7.33301 27 22c1.33301 3.33301 3.66602 12.333 6.99902 27c12.667 50 22.167 102.667 28.5 158s9.5 116.333 9.5 183l1 28c0 8.66699 1.66699 15.5 5 20.5s11 7.5 23 7.5zM277 442h-33.999c-6.66699 0 -10.334 -3.66699 -11.001 -11l-2 -33
c0 -88.667 -4 -156 -12 -202l-26 -78c3.33301 -5.33301 6.33301 -8 9 -8h75c8 0 12 4.66699 12 14v306c0 8 -3.66699 12 -11 12z" />
    <glyph glyph-name="aring" unicode="&#xe5;" horiz-adv-x="452" 
d="M389 241l-200.996 -0.000976562c-4.66699 0 -7.83398 -1.16699 -9.50098 -3.5s-2.5 -5.16602 -2.5 -8.49902v-34c0 -26.667 8.66699 -47.167 26 -61.5s41.333 -21.5 72 -21.5c21.333 0 40.666 1.5 57.999 4.5s35.666 7.83301 54.999 14.5c16.667 5.33301 25 0 25 -16v-80
c0 -5.33301 -1.16699 -9.5 -3.5 -12.5s-7.5 -6.16699 -15.5 -9.5c-22 -8 -44.333 -13.5 -67 -16.5s-43 -4.5 -61 -4.5c-58 0 -105 10.667 -141 32c-56 33.333 -84 90 -84 170v169c0 53.333 10.333 96 31 128c31.333 48.667 84.333 73 159 73
c45.333 0 82.666 -9.33301 111.999 -28c50 -32 75 -89.667 75 -173v-94c0 -12 -2.5 -19.667 -7.5 -23s-11.833 -5 -20.5 -5zM186.004 350.999h85c4 0 7.33301 3.33301 10 10v22c0 19.333 -2.33301 34 -7 44c-8.66699 18 -23.334 27 -44.001 27
c-17.333 0 -30.666 -5.83301 -39.999 -17.5s-14 -29.5 -14 -53.5v-22c0 -6.66699 3.33301 -10 10 -10z" />
    <glyph glyph-name="aring" unicode="&#x435;" horiz-adv-x="452" 
d="M389 241l-200.996 -0.000976562c-4.66699 0 -7.83398 -1.16699 -9.50098 -3.5s-2.5 -5.16602 -2.5 -8.49902v-34c0 -26.667 8.66699 -47.167 26 -61.5s41.333 -21.5 72 -21.5c21.333 0 40.666 1.5 57.999 4.5s35.666 7.83301 54.999 14.5c16.667 5.33301 25 0 25 -16v-80
c0 -5.33301 -1.16699 -9.5 -3.5 -12.5s-7.5 -6.16699 -15.5 -9.5c-22 -8 -44.333 -13.5 -67 -16.5s-43 -4.5 -61 -4.5c-58 0 -105 10.667 -141 32c-56 33.333 -84 90 -84 170v169c0 53.333 10.333 96 31 128c31.333 48.667 84.333 73 159 73
c45.333 0 82.666 -9.33301 111.999 -28c50 -32 75 -89.667 75 -173v-94c0 -12 -2.5 -19.667 -7.5 -23s-11.833 -5 -20.5 -5zM186.004 350.999h85c4 0 7.33301 3.33301 10 10v22c0 19.333 -2.33301 34 -7 44c-8.66699 18 -23.334 27 -44.001 27
c-17.333 0 -30.666 -5.83301 -39.999 -17.5s-14 -29.5 -14 -53.5v-22c0 -6.66699 3.33301 -10 10 -10z" />
    <glyph glyph-name="ae" unicode="&#xe6;" horiz-adv-x="662" 
d="M371 0l-79.9971 -0.00390625c-8.66699 0 -15.5 1.66699 -20.5 5s-7.5 11 -7.5 23v197c0 8 -4 12 -12 12h-23c-14.667 0 -25.667 -4.33301 -33 -13c-10 -11.333 -15 -28.666 -15 -51.999v-144c0 -12 -2.5 -19.667 -7.5 -23s-11.833 -5 -20.5 -5h-80
c-8.66699 0 -15.5 1.66699 -20.5 5s-7.5 11 -7.5 23v171c0 27.333 7 48 21 62l46 37c0 2 -2.66699 4.83301 -8 8.5s-9 6.83398 -11 9.50098c-10.667 11.333 -16 29.666 -16 54.999v67c0 14.667 -5.33301 22 -16 22h-8c-4 0 -7 0.333008 -9 1
c-8.66699 2.66699 -13 9.66699 -13 21v46c0 12 2.5 19.667 7.5 23s11.833 5 20.5 5h53c26.667 0 49.167 -8.5 67.5 -25.5s27.5 -40.167 27.5 -69.5v-65c0 -20 4.33301 -34 13 -42c5.33301 -4.66699 12.666 -7 21.999 -7h10c8 0 12 4 12 12v169c0 12 2.5 19.667 7.5 23
s11.833 5 20.5 5h80c8.66699 0 15.5 -1.66699 20.5 -5s7.5 -11 7.5 -23v-169c0 -8 4 -12 12 -12h10c12 0 20.833 4.5 26.5 13.5s8.5 20.833 8.5 35.5v65c0 29.333 8.83301 52.5 26.5 69.5s40.5 25.5 68.5 25.5h53c8.66699 0 15.5 -1.66699 20.5 -5s7.5 -11 7.5 -23v-46
c0 -7.33301 -1.83301 -12.833 -5.5 -16.5s-9.16699 -5.5 -16.5 -5.5h-8c-10.667 0 -16 -7.33301 -16 -22v-67c0 -13.333 -1.16699 -24.166 -3.5 -32.499s-6.5 -15.833 -12.5 -22.5c-6.66699 -6 -13 -12 -19 -18c0 -3.33301 11.167 -12.166 33.5 -26.499
s33.5 -38.5 33.5 -72.5v-171c0 -12 -2.5 -19.667 -7.5 -23s-11.833 -5 -20.5 -5h-80c-8.66699 0 -15.5 1.66699 -20.5 5s-7.5 11 -7.5 23v144c0 23.333 -4.33301 40 -13 50s-20.334 15 -35.001 15h-23c-4.66699 0 -7.83398 -1.16699 -9.50098 -3.5
s-2.5 -5.16602 -2.5 -8.49902v-197c0 -12 -2.5 -19.667 -7.5 -23s-11.833 -5 -20.5 -5z" />
    <glyph glyph-name="ae" unicode="&#x436;" horiz-adv-x="662" 
d="M371 0l-79.9971 -0.00390625c-8.66699 0 -15.5 1.66699 -20.5 5s-7.5 11 -7.5 23v197c0 8 -4 12 -12 12h-23c-14.667 0 -25.667 -4.33301 -33 -13c-10 -11.333 -15 -28.666 -15 -51.999v-144c0 -12 -2.5 -19.667 -7.5 -23s-11.833 -5 -20.5 -5h-80
c-8.66699 0 -15.5 1.66699 -20.5 5s-7.5 11 -7.5 23v171c0 27.333 7 48 21 62l46 37c0 2 -2.66699 4.83301 -8 8.5s-9 6.83398 -11 9.50098c-10.667 11.333 -16 29.666 -16 54.999v67c0 14.667 -5.33301 22 -16 22h-8c-4 0 -7 0.333008 -9 1
c-8.66699 2.66699 -13 9.66699 -13 21v46c0 12 2.5 19.667 7.5 23s11.833 5 20.5 5h53c26.667 0 49.167 -8.5 67.5 -25.5s27.5 -40.167 27.5 -69.5v-65c0 -20 4.33301 -34 13 -42c5.33301 -4.66699 12.666 -7 21.999 -7h10c8 0 12 4 12 12v169c0 12 2.5 19.667 7.5 23
s11.833 5 20.5 5h80c8.66699 0 15.5 -1.66699 20.5 -5s7.5 -11 7.5 -23v-169c0 -8 4 -12 12 -12h10c12 0 20.833 4.5 26.5 13.5s8.5 20.833 8.5 35.5v65c0 29.333 8.83301 52.5 26.5 69.5s40.5 25.5 68.5 25.5h53c8.66699 0 15.5 -1.66699 20.5 -5s7.5 -11 7.5 -23v-46
c0 -7.33301 -1.83301 -12.833 -5.5 -16.5s-9.16699 -5.5 -16.5 -5.5h-8c-10.667 0 -16 -7.33301 -16 -22v-67c0 -13.333 -1.16699 -24.166 -3.5 -32.499s-6.5 -15.833 -12.5 -22.5c-6.66699 -6 -13 -12 -19 -18c0 -3.33301 11.167 -12.166 33.5 -26.499
s33.5 -38.5 33.5 -72.5v-171c0 -12 -2.5 -19.667 -7.5 -23s-11.833 -5 -20.5 -5h-80c-8.66699 0 -15.5 1.66699 -20.5 5s-7.5 11 -7.5 23v144c0 23.333 -4.33301 40 -13 50s-20.334 15 -35.001 15h-23c-4.66699 0 -7.83398 -1.16699 -9.50098 -3.5
s-2.5 -5.16602 -2.5 -8.49902v-197c0 -12 -2.5 -19.667 -7.5 -23s-11.833 -5 -20.5 -5z" />
    <glyph glyph-name="ccedilla" unicode="&#xe7;" horiz-adv-x="368" 
d="M57 270l-0.00195312 54c0 8.66699 1.66699 15.5 5 20.5s11 7.5 23 7.5h32c24 0 40.5 5.16699 49.5 15.5s13.5 23.166 13.5 38.499c0 12 -3.66699 22 -11 30c-10.667 12 -27 18 -49 18c-8.66699 0 -17 -0.5 -25 -1.5s-18 -2.83301 -30 -5.5l-17 -3
c-10 0 -15 6.66699 -15 20v63c0 10.667 5.33301 18.167 16 22.5s26.834 7.83301 48.501 10.5s38.834 4 51.501 4c63.333 0 109.666 -15.333 138.999 -46c23.333 -24 35 -56.667 35 -98c0 -26 -3.83301 -46.167 -11.5 -60.5s-18.167 -26.5 -31.5 -36.5l-14.5 -9.5
c-3.66699 -2.33301 -5.5 -4.5 -5.5 -6.5s4 -5.33301 12 -10s12.333 -7.33398 13 -8.00098c15.333 -11.333 27.333 -24.666 36 -39.999c13.333 -23.333 20 -51 20 -83c0 -45.333 -12 -82.666 -36 -111.999c-33.333 -41.333 -86.666 -62 -159.999 -62c-38.667 0 -68 3 -88 9
s-30 17.333 -30 34v71c0 12 5.66699 18 17 18c21.333 0 36 -2 44 -6s19.667 -6 35 -6c26 0 45.333 7.33301 58 22c9.33301 10.667 14 24 14 40s-4 29.667 -12 41c-13.333 18 -35.333 27 -66 27h-32c-12 0 -19.667 2.5 -23 7.5s-5 11.833 -5 20.5z" />
    <glyph glyph-name="ccedilla" unicode="&#x437;" horiz-adv-x="368" 
d="M57 270l-0.00195312 54c0 8.66699 1.66699 15.5 5 20.5s11 7.5 23 7.5h32c24 0 40.5 5.16699 49.5 15.5s13.5 23.166 13.5 38.499c0 12 -3.66699 22 -11 30c-10.667 12 -27 18 -49 18c-8.66699 0 -17 -0.5 -25 -1.5s-18 -2.83301 -30 -5.5l-17 -3
c-10 0 -15 6.66699 -15 20v63c0 10.667 5.33301 18.167 16 22.5s26.834 7.83301 48.501 10.5s38.834 4 51.501 4c63.333 0 109.666 -15.333 138.999 -46c23.333 -24 35 -56.667 35 -98c0 -26 -3.83301 -46.167 -11.5 -60.5s-18.167 -26.5 -31.5 -36.5l-14.5 -9.5
c-3.66699 -2.33301 -5.5 -4.5 -5.5 -6.5s4 -5.33301 12 -10s12.333 -7.33398 13 -8.00098c15.333 -11.333 27.333 -24.666 36 -39.999c13.333 -23.333 20 -51 20 -83c0 -45.333 -12 -82.666 -36 -111.999c-33.333 -41.333 -86.666 -62 -159.999 -62c-38.667 0 -68 3 -88 9
s-30 17.333 -30 34v71c0 12 5.66699 18 17 18c21.333 0 36 -2 44 -6s19.667 -6 35 -6c26 0 45.333 7.33301 58 22c9.33301 10.667 14 24 14 40s-4 29.667 -12 41c-13.333 18 -35.333 27 -66 27h-32c-12 0 -19.667 2.5 -23 7.5s-5 11.833 -5 20.5z" />
    <glyph glyph-name="egrave" unicode="&#xe8;" horiz-adv-x="456" 
d="M149 0h-81.0029c-12 0 -19.667 2.5 -23 7.5s-5 11.833 -5 20.5v500c0 12 2.5 19.667 7.5 23s11.833 5 20.5 5h75c8.66699 0 15.5 -1.66699 20.5 -5s7.5 -11 7.5 -23v-230c0 -5.33301 1.66699 -8 5 -8c2.66699 0 4.66699 1.66699 6 5l90 233
c4.66699 12 9.83398 19.667 15.501 23s12.834 5 21.501 5h79c8.66699 0 15.5 -1.66699 20.5 -5s7.5 -11 7.5 -23v-500c0 -12 -2.5 -19.667 -7.5 -23s-11.833 -5 -20.5 -5h-75c-8.66699 0 -15.5 1.66699 -20.5 5s-7.5 11 -7.5 23v229c-1.33301 4.66699 -3 7 -5 7
c-3.33301 0 -5.66602 -2.33301 -6.99902 -7l-90 -232c-4 -10 -8.83301 -16.667 -14.5 -20s-12.167 -5 -19.5 -5z" />
    <glyph glyph-name="egrave" unicode="&#x438;" horiz-adv-x="456" 
d="M149 0h-81.0029c-12 0 -19.667 2.5 -23 7.5s-5 11.833 -5 20.5v500c0 12 2.5 19.667 7.5 23s11.833 5 20.5 5h75c8.66699 0 15.5 -1.66699 20.5 -5s7.5 -11 7.5 -23v-230c0 -5.33301 1.66699 -8 5 -8c2.66699 0 4.66699 1.66699 6 5l90 233
c4.66699 12 9.83398 19.667 15.501 23s12.834 5 21.501 5h79c8.66699 0 15.5 -1.66699 20.5 -5s7.5 -11 7.5 -23v-500c0 -12 -2.5 -19.667 -7.5 -23s-11.833 -5 -20.5 -5h-75c-8.66699 0 -15.5 1.66699 -20.5 5s-7.5 11 -7.5 23v229c-1.33301 4.66699 -3 7 -5 7
c-3.33301 0 -5.66602 -2.33301 -6.99902 -7l-90 -232c-4 -10 -8.83301 -16.667 -14.5 -20s-12.167 -5 -19.5 -5z" />
    <glyph glyph-name="eacute" unicode="&#xe9;" horiz-adv-x="456" 
d="M300 598l-144 -0.000976562c-18 0 -32.167 5.5 -42.5 16.5s-15.5 25.167 -15.5 42.5v19c0 8 3.66699 12 11 12h55c8 0 12 -4 12 -12v-6c0 -7.33301 3.16699 -12.166 9.5 -14.499s13.5 -3.5 21.5 -3.5h42c10 0 17.667 1 23 3s8 7 8 15v6c0 8 4 12 12 12h55
c7.33301 0 11 -4 11 -12v-19c0 -17.333 -5.16699 -31.5 -15.5 -42.5s-24.5 -16.5 -42.5 -16.5zM149 -0.000976562h-81.0029c-12 0 -19.667 2.5 -23 7.5s-5 11.833 -5 20.5v500c0 12 2.5 19.667 7.5 23s11.833 5 20.5 5h75c8.66699 0 15.5 -1.66699 20.5 -5s7.5 -11 7.5 -23
v-230c0 -5.33301 1.66699 -8 5 -8c2.66699 0 4.66699 1.66699 6 5l90 233c4.66699 12 9.83398 19.667 15.501 23s12.834 5 21.501 5h79c8.66699 0 15.5 -1.66699 20.5 -5s7.5 -11 7.5 -23v-500c0 -12 -2.5 -19.667 -7.5 -23s-11.833 -5 -20.5 -5h-75
c-8.66699 0 -15.5 1.66699 -20.5 5s-7.5 11 -7.5 23v229c-1.33301 4.66699 -3 7 -5 7c-3.33301 0 -5.66602 -2.33301 -6.99902 -7l-90 -232c-4 -10 -8.83301 -16.667 -14.5 -20s-12.167 -5 -19.5 -5z" />
    <glyph glyph-name="eacute" unicode="&#x439;" horiz-adv-x="456" 
d="M300 598l-144 -0.000976562c-18 0 -32.167 5.5 -42.5 16.5s-15.5 25.167 -15.5 42.5v19c0 8 3.66699 12 11 12h55c8 0 12 -4 12 -12v-6c0 -7.33301 3.16699 -12.166 9.5 -14.499s13.5 -3.5 21.5 -3.5h42c10 0 17.667 1 23 3s8 7 8 15v6c0 8 4 12 12 12h55
c7.33301 0 11 -4 11 -12v-19c0 -17.333 -5.16699 -31.5 -15.5 -42.5s-24.5 -16.5 -42.5 -16.5zM149 -0.000976562h-81.0029c-12 0 -19.667 2.5 -23 7.5s-5 11.833 -5 20.5v500c0 12 2.5 19.667 7.5 23s11.833 5 20.5 5h75c8.66699 0 15.5 -1.66699 20.5 -5s7.5 -11 7.5 -23
v-230c0 -5.33301 1.66699 -8 5 -8c2.66699 0 4.66699 1.66699 6 5l90 233c4.66699 12 9.83398 19.667 15.501 23s12.834 5 21.501 5h79c8.66699 0 15.5 -1.66699 20.5 -5s7.5 -11 7.5 -23v-500c0 -12 -2.5 -19.667 -7.5 -23s-11.833 -5 -20.5 -5h-75
c-8.66699 0 -15.5 1.66699 -20.5 5s-7.5 11 -7.5 23v229c-1.33301 4.66699 -3 7 -5 7c-3.33301 0 -5.66602 -2.33301 -6.99902 -7l-90 -232c-4 -10 -8.83301 -16.667 -14.5 -20s-12.167 -5 -19.5 -5z" />
    <glyph glyph-name="ecircumflex" unicode="&#xea;" horiz-adv-x="439" 
d="M148 0l-79.998 0.000976562c-12 0 -19.667 2.5 -23 7.5s-5 11.833 -5 20.5v500c0 12 2.5 19.667 7.5 23s11.833 5 20.5 5h80c8.66699 0 15.5 -1.66699 20.5 -5s7.5 -11 7.5 -23v-169c0 -8 4 -12 12 -12h10c12 0 20.833 4.5 26.5 13.5s8.5 20.833 8.5 35.5v65
c0 30.667 8.5 54.167 25.5 70.5s40.167 24.5 69.5 24.5h53c8.66699 0 15.5 -1.66699 20.5 -5s7.5 -11 7.5 -23v-46c0 -7.33301 -1.83301 -12.833 -5.5 -16.5s-9.16699 -5.5 -16.5 -5.5h-8c-10.667 0 -16 -7.33301 -16 -22v-67c0 -10.667 -1.16699 -20.834 -3.5 -30.501
s-6.16602 -17.834 -11.499 -24.501c-2.66699 -2.66699 -6.5 -5.66699 -11.5 -9s-7.5 -6.33301 -7.5 -9c17.333 -8.66699 32.666 -20.667 45.999 -36s20 -36.333 20 -63v-171c0 -12 -2.5 -19.667 -7.5 -23s-11.833 -5 -20.5 -5h-80c-8.66699 0 -15.5 1.66699 -20.5 5
s-7.5 11 -7.5 23v144c0 23.333 -4.33301 40 -13 50s-20.334 15 -35.001 15h-23c-4.66699 0 -7.83398 -1.16699 -9.50098 -3.5s-2.5 -5.16602 -2.5 -8.49902v-197c0 -12 -2.5 -19.667 -7.5 -23s-11.833 -5 -20.5 -5z" />
    <glyph glyph-name="ecircumflex" unicode="&#x43a;" horiz-adv-x="439" 
d="M148 0l-79.998 0.000976562c-12 0 -19.667 2.5 -23 7.5s-5 11.833 -5 20.5v500c0 12 2.5 19.667 7.5 23s11.833 5 20.5 5h80c8.66699 0 15.5 -1.66699 20.5 -5s7.5 -11 7.5 -23v-169c0 -8 4 -12 12 -12h10c12 0 20.833 4.5 26.5 13.5s8.5 20.833 8.5 35.5v65
c0 30.667 8.5 54.167 25.5 70.5s40.167 24.5 69.5 24.5h53c8.66699 0 15.5 -1.66699 20.5 -5s7.5 -11 7.5 -23v-46c0 -7.33301 -1.83301 -12.833 -5.5 -16.5s-9.16699 -5.5 -16.5 -5.5h-8c-10.667 0 -16 -7.33301 -16 -22v-67c0 -10.667 -1.16699 -20.834 -3.5 -30.501
s-6.16602 -17.834 -11.499 -24.501c-2.66699 -2.66699 -6.5 -5.66699 -11.5 -9s-7.5 -6.33301 -7.5 -9c17.333 -8.66699 32.666 -20.667 45.999 -36s20 -36.333 20 -63v-171c0 -12 -2.5 -19.667 -7.5 -23s-11.833 -5 -20.5 -5h-80c-8.66699 0 -15.5 1.66699 -20.5 5
s-7.5 11 -7.5 23v144c0 23.333 -4.33301 40 -13 50s-20.334 15 -35.001 15h-23c-4.66699 0 -7.83398 -1.16699 -9.50098 -3.5s-2.5 -5.16602 -2.5 -8.49902v-197c0 -12 -2.5 -19.667 -7.5 -23s-11.833 -5 -20.5 -5z" />
    <glyph glyph-name="edieresis" unicode="&#xeb;" horiz-adv-x="475" 
d="M130 556h277c8.66699 0 15.5 -1.66699 20.5 -5s7.5 -11 7.5 -23v-500c0 -8.66699 -1.66699 -15.5 -5 -20.5s-11 -7.5 -23 -7.5h-80c-8.66699 0 -15.5 1.66699 -20.5 5s-7.5 11 -7.5 23v398c0 8.66699 -4.33301 13 -13 13h-43c-6.66699 0 -10 -3.66699 -10 -11l-2 -88
c0 -128 -9 -214.333 -27 -259c-24 -59.333 -73.667 -89 -149 -89c-19.333 0 -33.333 1.33301 -42 4s-13 9.66699 -13 21v62c0 12 2.5 19.667 7.5 23s11.833 5 20.5 5h11c25.333 0 41.833 18 49.5 54s11.5 102.333 11.5 199l2 168c0 8.66699 1.66699 15.5 5 20.5
s11 7.5 23 7.5z" />
    <glyph glyph-name="edieresis" unicode="&#x43b;" horiz-adv-x="475" 
d="M130 556h277c8.66699 0 15.5 -1.66699 20.5 -5s7.5 -11 7.5 -23v-500c0 -8.66699 -1.66699 -15.5 -5 -20.5s-11 -7.5 -23 -7.5h-80c-8.66699 0 -15.5 1.66699 -20.5 5s-7.5 11 -7.5 23v398c0 8.66699 -4.33301 13 -13 13h-43c-6.66699 0 -10 -3.66699 -10 -11l-2 -88
c0 -128 -9 -214.333 -27 -259c-24 -59.333 -73.667 -89 -149 -89c-19.333 0 -33.333 1.33301 -42 4s-13 9.66699 -13 21v62c0 12 2.5 19.667 7.5 23s11.833 5 20.5 5h11c25.333 0 41.833 18 49.5 54s11.5 102.333 11.5 199l2 168c0 8.66699 1.66699 15.5 5 20.5
s11 7.5 23 7.5z" />
    <glyph glyph-name="igrave" unicode="&#xec;" horiz-adv-x="526" 
d="M171 250l-0.00292969 -222c0 -12 -2.5 -19.667 -7.5 -23s-11.833 -5 -20.5 -5h-75c-12 0 -19.667 2.5 -23 7.5s-5 11.833 -5 20.5v500c0 12 2.5 19.667 7.5 23s11.833 5 20.5 5h75c8.66699 0 14.834 -0.833008 18.501 -2.5s7.16699 -7.16699 10.5 -16.5l82 -198
c2 -6.66699 5 -10 9 -10c3.33301 0 6 3.33301 8 10l84 200c4 8.66699 7.5 13.667 10.5 15s8.83301 2 17.5 2h75c8.66699 0 15.5 -1.66699 20.5 -5s7.5 -11 7.5 -23v-500c0 -8.66699 -1.66699 -15.5 -5 -20.5s-11 -7.5 -23 -7.5h-75c-8.66699 0 -15.5 1.66699 -20.5 5
s-7.5 11 -7.5 23v220c-1.33301 4.66699 -2.66602 7 -3.99902 7c-4.66699 -4 -7 -6.66699 -7 -8l-45 -98c-3.33301 -7.33301 -6.33301 -12.666 -9 -15.999c-4.66699 -6 -10.667 -9 -18 -9h-18c-6.66699 0 -12.667 3 -18 9c-2.66699 3.33301 -5.66699 8.66602 -9 15.999
l-46 101c-1.33301 4 -3.66602 6 -6.99902 6z" />
    <glyph glyph-name="igrave" unicode="&#x43c;" horiz-adv-x="526" 
d="M171 250l-0.00292969 -222c0 -12 -2.5 -19.667 -7.5 -23s-11.833 -5 -20.5 -5h-75c-12 0 -19.667 2.5 -23 7.5s-5 11.833 -5 20.5v500c0 12 2.5 19.667 7.5 23s11.833 5 20.5 5h75c8.66699 0 14.834 -0.833008 18.501 -2.5s7.16699 -7.16699 10.5 -16.5l82 -198
c2 -6.66699 5 -10 9 -10c3.33301 0 6 3.33301 8 10l84 200c4 8.66699 7.5 13.667 10.5 15s8.83301 2 17.5 2h75c8.66699 0 15.5 -1.66699 20.5 -5s7.5 -11 7.5 -23v-500c0 -8.66699 -1.66699 -15.5 -5 -20.5s-11 -7.5 -23 -7.5h-75c-8.66699 0 -15.5 1.66699 -20.5 5
s-7.5 11 -7.5 23v220c-1.33301 4.66699 -2.66602 7 -3.99902 7c-4.66699 -4 -7 -6.66699 -7 -8l-45 -98c-3.33301 -7.33301 -6.33301 -12.666 -9 -15.999c-4.66699 -6 -10.667 -9 -18 -9h-18c-6.66699 0 -12.667 3 -18 9c-2.66699 3.33301 -5.66699 8.66602 -9 15.999
l-46 101c-1.33301 4 -3.66602 6 -6.99902 6z" />
    <glyph glyph-name="iacute" unicode="&#xed;" horiz-adv-x="446" 
d="M40 28v500c0 12 2.5 19.667 7.5 23s11.833 5 20.5 5h80c8.66699 0 15.5 -1.66699 20.5 -5s7.5 -11 7.5 -23v-160c0 -8 4 -12 12 -12h70c8 0 12 4 12 12v160c0 12 2.5 19.667 7.5 23s11.833 5 20.5 5h80c8.66699 0 15.5 -1.66699 20.5 -5s7.5 -11 7.5 -23v-500
c0 -8.66699 -1.66699 -15.5 -5 -20.5s-11 -7.5 -23 -7.5h-80c-8.66699 0 -15.5 1.66699 -20.5 5s-7.5 11 -7.5 23v198c0 8 -4 12 -12 12h-70c-8 0 -12 -4 -12 -12v-198c0 -12 -2.5 -19.667 -7.5 -23s-11.833 -5 -20.5 -5h-80c-12 0 -19.667 2.5 -23 7.5s-5 11.833 -5 20.5z
" />
    <glyph glyph-name="iacute" unicode="&#x43d;" horiz-adv-x="446" 
d="M40 28v500c0 12 2.5 19.667 7.5 23s11.833 5 20.5 5h80c8.66699 0 15.5 -1.66699 20.5 -5s7.5 -11 7.5 -23v-160c0 -8 4 -12 12 -12h70c8 0 12 4 12 12v160c0 12 2.5 19.667 7.5 23s11.833 5 20.5 5h80c8.66699 0 15.5 -1.66699 20.5 -5s7.5 -11 7.5 -23v-500
c0 -8.66699 -1.66699 -15.5 -5 -20.5s-11 -7.5 -23 -7.5h-80c-8.66699 0 -15.5 1.66699 -20.5 5s-7.5 11 -7.5 23v198c0 8 -4 12 -12 12h-70c-8 0 -12 -4 -12 -12v-198c0 -12 -2.5 -19.667 -7.5 -23s-11.833 -5 -20.5 -5h-80c-12 0 -19.667 2.5 -23 7.5s-5 11.833 -5 20.5z
" />
    <glyph glyph-name="icircumflex" unicode="&#xee;" 
d="M34 193v170c0 54 10.333 97 31 129c30.667 48 83.667 72 159 72c74.667 0 127.667 -24 159 -72c20.667 -32 31 -75 31 -129v-170c0 -54 -10.333 -97 -31 -129c-30.667 -48 -83.667 -72 -159 -72c-74.667 0 -127.667 24 -159 72c-20.667 32 -31 75 -31 129zM170 386v-216
c0 -24.667 5.66699 -42.334 17 -53.001c9.33301 -8.66699 21.666 -13 36.999 -13c14.667 0 26.667 4.33301 36 13c12 11.333 18 29 18 53v216c0 24.667 -5.16699 41.834 -15.5 51.501s-23.166 14.5 -38.499 14.5c-14.667 0 -26.667 -4.33301 -36 -13
c-12 -11.333 -18 -29 -18 -53z" />
    <glyph glyph-name="icircumflex" unicode="&#x43e;" 
d="M34 193v170c0 54 10.333 97 31 129c30.667 48 83.667 72 159 72c74.667 0 127.667 -24 159 -72c20.667 -32 31 -75 31 -129v-170c0 -54 -10.333 -97 -31 -129c-30.667 -48 -83.667 -72 -159 -72c-74.667 0 -127.667 24 -159 72c-20.667 32 -31 75 -31 129zM170 386v-216
c0 -24.667 5.66699 -42.334 17 -53.001c9.33301 -8.66699 21.666 -13 36.999 -13c14.667 0 26.667 4.33301 36 13c12 11.333 18 29 18 53v216c0 24.667 -5.16699 41.834 -15.5 51.501s-23.166 14.5 -38.499 14.5c-14.667 0 -26.667 -4.33301 -36 -13
c-12 -11.333 -18 -29 -18 -53z" />
    <glyph glyph-name="idieresis" unicode="&#xef;" horiz-adv-x="444" 
d="M176 429l-0.000976562 -401c0 -12 -2.5 -19.667 -7.5 -23s-11.833 -5 -20.5 -5h-80c-12 0 -19.667 2.5 -23 7.5s-5 11.833 -5 20.5v500c0 12 2.5 19.667 7.5 23s11.833 5 20.5 5h308c8.66699 0 15.5 -1.66699 20.5 -5s7.5 -11 7.5 -23v-500c0 -12 -2.5 -19.667 -7.5 -23
s-11.833 -5 -20.5 -5h-80c-8.66699 0 -15.5 1.66699 -20.5 5s-7.5 11 -7.5 23v401c0 7.33301 -3 11 -9 11h-74c-3.33301 0 -5.66602 -1.16699 -6.99902 -3.5s-2 -4.83301 -2 -7.5z" />
    <glyph glyph-name="idieresis" unicode="&#x43f;" horiz-adv-x="444" 
d="M176 429l-0.000976562 -401c0 -12 -2.5 -19.667 -7.5 -23s-11.833 -5 -20.5 -5h-80c-12 0 -19.667 2.5 -23 7.5s-5 11.833 -5 20.5v500c0 12 2.5 19.667 7.5 23s11.833 5 20.5 5h308c8.66699 0 15.5 -1.66699 20.5 -5s7.5 -11 7.5 -23v-500c0 -12 -2.5 -19.667 -7.5 -23
s-11.833 -5 -20.5 -5h-80c-8.66699 0 -15.5 1.66699 -20.5 5s-7.5 11 -7.5 23v401c0 7.33301 -3 11 -9 11h-74c-3.33301 0 -5.66602 -1.16699 -6.99902 -3.5s-2 -4.83301 -2 -7.5z" />
    <glyph glyph-name="eth" unicode="&#xf0;" horiz-adv-x="452" 
d="M40 -116v643.999c0 12 2.5 19.667 7.5 23s11.833 5 20.5 5h91c12 0 18 -4.66699 18 -14v-8c0 -3.33301 3 -5.66602 9 -6.99902c10 10 22.833 18.667 38.5 26s34.5 11 56.5 11c56 0 94 -23.333 114 -70c11.333 -26.667 17 -65.667 17 -117v-202c0 -50 -7 -89 -21 -117
c-22 -44 -61 -66 -117 -66c-22.667 0 -41 3 -55 9l-38 21c-3.33301 -2.66699 -5 -5 -5 -7v-131c0 -12 -2.5 -19.667 -7.5 -23s-11.833 -5 -20.5 -5h-80c-12 0 -19.667 2.5 -23 7.5s-5 11.833 -5 20.5zM176 375.999v-196c0 -17.333 2.33301 -31 7 -41
c8 -16.667 22 -25 42 -25s34 8.33301 42 25c4.66699 10 7 23.667 7 41v196c0 17.333 -2.33301 31 -7 41c-8 16.667 -22 25 -42 25s-34 -8.33301 -42 -25c-4.66699 -10 -7 -23.667 -7 -41z" />
    <glyph glyph-name="eth" unicode="&#x440;" horiz-adv-x="452" 
d="M40 -116v643.999c0 12 2.5 19.667 7.5 23s11.833 5 20.5 5h91c12 0 18 -4.66699 18 -14v-8c0 -3.33301 3 -5.66602 9 -6.99902c10 10 22.833 18.667 38.5 26s34.5 11 56.5 11c56 0 94 -23.333 114 -70c11.333 -26.667 17 -65.667 17 -117v-202c0 -50 -7 -89 -21 -117
c-22 -44 -61 -66 -117 -66c-22.667 0 -41 3 -55 9l-38 21c-3.33301 -2.66699 -5 -5 -5 -7v-131c0 -12 -2.5 -19.667 -7.5 -23s-11.833 -5 -20.5 -5h-80c-12 0 -19.667 2.5 -23 7.5s-5 11.833 -5 20.5zM176 375.999v-196c0 -17.333 2.33301 -31 7 -41
c8 -16.667 22 -25 42 -25s34 8.33301 42 25c4.66699 10 7 23.667 7 41v196c0 17.333 -2.33301 31 -7 41c-8 16.667 -22 25 -42 25s-34 -8.33301 -42 -25c-4.66699 -10 -7 -23.667 -7 -41z" />
    <glyph glyph-name="ntilde" unicode="&#xf1;" horiz-adv-x="375" 
d="M171 352l0.00195312 -148.001c0 -23.333 3.33301 -41 10 -53c12 -21.333 34 -32 66 -32l45 5c4.66699 0.666992 10.667 1.83398 18 3.50098s13 2.5 17 2.5c7.33301 0 12.166 -2 14.499 -6s3.5 -8.66699 3.5 -14v-80c0 -12 -4.33301 -20.333 -13 -25
c-15.333 -8.66699 -47 -13 -95 -13c-88.667 0 -148 25.333 -178 76c-16 27.333 -24 70 -24 128v172c0 58.667 10.667 102.667 32 132c31.333 42.667 88 64 170 64c48 0 79.667 -4.33301 95 -13c8.66699 -4.66699 13 -13 13 -25v-80c0 -13.333 -6 -20 -18 -20
c-11.333 0 -24.833 1.83301 -40.5 5.5s-28.834 5.5 -39.501 5.5c-30.667 0 -52 -9.33301 -64 -28c-8 -12.667 -12 -31.667 -12 -57z" />
    <glyph glyph-name="ntilde" unicode="&#x441;" horiz-adv-x="375" 
d="M171 352l0.00195312 -148.001c0 -23.333 3.33301 -41 10 -53c12 -21.333 34 -32 66 -32l45 5c4.66699 0.666992 10.667 1.83398 18 3.50098s13 2.5 17 2.5c7.33301 0 12.166 -2 14.499 -6s3.5 -8.66699 3.5 -14v-80c0 -12 -4.33301 -20.333 -13 -25
c-15.333 -8.66699 -47 -13 -95 -13c-88.667 0 -148 25.333 -178 76c-16 27.333 -24 70 -24 128v172c0 58.667 10.667 102.667 32 132c31.333 42.667 88 64 170 64c48 0 79.667 -4.33301 95 -13c8.66699 -4.66699 13 -13 13 -25v-80c0 -13.333 -6 -20 -18 -20
c-11.333 0 -24.833 1.83301 -40.5 5.5s-28.834 5.5 -39.501 5.5c-30.667 0 -52 -9.33301 -64 -28c-8 -12.667 -12 -31.667 -12 -57z" />
    <glyph glyph-name="ograve" unicode="&#xf2;" horiz-adv-x="372" 
d="M254 426v-398c0 -12 -2.5 -19.667 -7.5 -23s-11.833 -5 -20.5 -5h-80c-8.66699 0 -15.5 1.66699 -20.5 5s-7.5 11 -7.5 23v398c0 8 -4 12 -12 12h-74c-8.66699 0 -15.5 1.66699 -20.5 5s-7.5 11 -7.5 23v62c0 12 2.5 19.667 7.5 23s11.833 5 20.5 5h308
c8.66699 0 15.5 -1.66699 20.5 -5s7.5 -11 7.5 -23v-62c0 -8.66699 -1.66699 -15.5 -5 -20.5s-11 -7.5 -23 -7.5h-74c-8 0 -12 -4 -12 -12z" />
    <glyph glyph-name="ograve" unicode="&#x442;" horiz-adv-x="372" 
d="M254 426v-398c0 -12 -2.5 -19.667 -7.5 -23s-11.833 -5 -20.5 -5h-80c-8.66699 0 -15.5 1.66699 -20.5 5s-7.5 11 -7.5 23v398c0 8 -4 12 -12 12h-74c-8.66699 0 -15.5 1.66699 -20.5 5s-7.5 11 -7.5 23v62c0 12 2.5 19.667 7.5 23s11.833 5 20.5 5h308
c8.66699 0 15.5 -1.66699 20.5 -5s7.5 -11 7.5 -23v-62c0 -8.66699 -1.66699 -15.5 -5 -20.5s-11 -7.5 -23 -7.5h-74c-8 0 -12 -4 -12 -12z" />
    <glyph glyph-name="oacute" unicode="&#xf3;" horiz-adv-x="413" 
d="M25 556l96.002 -0.000976562c10.667 0 17.667 -2.16699 21 -6.5s6 -11.166 8 -20.499l48 -236c0.666992 -4 1.66699 -9.33301 3 -16s4.66602 -10 9.99902 -10c4.66699 0 8.66699 8.66699 12 26l43 236c2.66699 18 12.334 27 29.001 27h94c14.667 0 22 -5 22 -15
c0 -2.66699 -0.666992 -6.66699 -2 -12l-113 -513c-14.667 -66 -37.334 -110.333 -68.001 -133c-28 -20.667 -65.667 -31 -113 -31c-42 0 -70 4 -84 12c-7.33301 4 -11 11.667 -11 23v75c0 12.667 6 19 18 19c5.33301 0 13.666 -1.66699 24.999 -5
c4 -0.666992 8 -1.5 12 -2.5s9.33301 -1.5 16 -1.5c14 0 23.5 2.66699 28.5 8s7.5 13 7.5 23c0 8 -1 15 -3 21l-118 505c-4 18 2.33301 27 19 27z" />
    <glyph glyph-name="oacute" unicode="&#x443;" horiz-adv-x="413" 
d="M25 556l96.002 -0.000976562c10.667 0 17.667 -2.16699 21 -6.5s6 -11.166 8 -20.499l48 -236c0.666992 -4 1.66699 -9.33301 3 -16s4.66602 -10 9.99902 -10c4.66699 0 8.66699 8.66699 12 26l43 236c2.66699 18 12.334 27 29.001 27h94c14.667 0 22 -5 22 -15
c0 -2.66699 -0.666992 -6.66699 -2 -12l-113 -513c-14.667 -66 -37.334 -110.333 -68.001 -133c-28 -20.667 -65.667 -31 -113 -31c-42 0 -70 4 -84 12c-7.33301 4 -11 11.667 -11 23v75c0 12.667 6 19 18 19c5.33301 0 13.666 -1.66699 24.999 -5
c4 -0.666992 8 -1.5 12 -2.5s9.33301 -1.5 16 -1.5c14 0 23.5 2.66699 28.5 8s7.5 13 7.5 23c0 8 -1 15 -3 21l-118 505c-4 18 2.33301 27 19 27z" />
    <glyph glyph-name="ocircumflex" unicode="&#xf4;" horiz-adv-x="648" 
d="M364 -144h-79.999c-12 0 -19.667 2.5 -23 7.5s-5 11.833 -5 20.5v127c0 3.33301 -0.666992 5.66602 -2 6.99902l-3 3c-20.667 0 -32.334 -4.83301 -35.001 -14.5s-19.667 -14.5 -51 -14.5c-53.333 0 -90.333 22.333 -111 67c-13.333 28.667 -20 68.667 -20 120v198
c0 50.667 6.66699 90.334 20 119.001c20.667 45.333 57.667 68 111 68c31.333 0 48.333 -4.83301 51 -14.5s14.334 -14.5 35.001 -14.5c3.33301 4 5 7.33301 5 10v127c0 12 2.5 19.667 7.5 23s11.833 5 20.5 5h80c12 0 19.667 -2.5 23 -7.5s5 -11.833 5 -20.5v-127
c0 -3.33301 0.666992 -5.66602 2 -6.99902l3 -3c14 0 24.167 4.83301 30.5 14.5s24.833 14.5 55.5 14.5c34 0 61 -9 81 -27c33.333 -30 50 -83.333 50 -160v-198c0 -50.667 -6.66699 -90.334 -20 -119.001c-20.667 -45.333 -57.667 -68 -111 -68
c-31.333 0 -48.333 4.83301 -51 14.5s-14.334 14.5 -35.001 14.5c-3.33301 -4 -5 -7.33301 -5 -10v-127c0 -12 -2.5 -19.667 -7.5 -23s-11.833 -5 -20.5 -5zM474.001 180v196c0 23.333 -3.5 40.166 -10.5 50.499s-17.167 15.5 -30.5 15.5s-23.5 -5.16699 -30.5 -15.5
s-10.5 -27.166 -10.5 -50.499v-196c0 -23.333 3.5 -40.166 10.5 -50.499s17.167 -15.5 30.5 -15.5s23.5 5.16699 30.5 15.5s10.5 27.166 10.5 50.499zM256.001 180v196c0 23.333 -3.5 40.166 -10.5 50.499s-17.167 15.5 -30.5 15.5s-23.5 -5.16699 -30.5 -15.5
s-10.5 -27.166 -10.5 -50.499v-196c0 -23.333 3.5 -40.166 10.5 -50.499s17.167 -15.5 30.5 -15.5s23.5 5.16699 30.5 15.5s10.5 27.166 10.5 50.499z" />
    <glyph glyph-name="ocircumflex" unicode="&#x444;" horiz-adv-x="648" 
d="M364 -144h-79.999c-12 0 -19.667 2.5 -23 7.5s-5 11.833 -5 20.5v127c0 3.33301 -0.666992 5.66602 -2 6.99902l-3 3c-20.667 0 -32.334 -4.83301 -35.001 -14.5s-19.667 -14.5 -51 -14.5c-53.333 0 -90.333 22.333 -111 67c-13.333 28.667 -20 68.667 -20 120v198
c0 50.667 6.66699 90.334 20 119.001c20.667 45.333 57.667 68 111 68c31.333 0 48.333 -4.83301 51 -14.5s14.334 -14.5 35.001 -14.5c3.33301 4 5 7.33301 5 10v127c0 12 2.5 19.667 7.5 23s11.833 5 20.5 5h80c12 0 19.667 -2.5 23 -7.5s5 -11.833 5 -20.5v-127
c0 -3.33301 0.666992 -5.66602 2 -6.99902l3 -3c14 0 24.167 4.83301 30.5 14.5s24.833 14.5 55.5 14.5c34 0 61 -9 81 -27c33.333 -30 50 -83.333 50 -160v-198c0 -50.667 -6.66699 -90.334 -20 -119.001c-20.667 -45.333 -57.667 -68 -111 -68
c-31.333 0 -48.333 4.83301 -51 14.5s-14.334 14.5 -35.001 14.5c-3.33301 -4 -5 -7.33301 -5 -10v-127c0 -12 -2.5 -19.667 -7.5 -23s-11.833 -5 -20.5 -5zM474.001 180v196c0 23.333 -3.5 40.166 -10.5 50.499s-17.167 15.5 -30.5 15.5s-23.5 -5.16699 -30.5 -15.5
s-10.5 -27.166 -10.5 -50.499v-196c0 -23.333 3.5 -40.166 10.5 -50.499s17.167 -15.5 30.5 -15.5s23.5 5.16699 30.5 15.5s10.5 27.166 10.5 50.499zM256.001 180v196c0 23.333 -3.5 40.166 -10.5 50.499s-17.167 15.5 -30.5 15.5s-23.5 -5.16699 -30.5 -15.5
s-10.5 -27.166 -10.5 -50.499v-196c0 -23.333 3.5 -40.166 10.5 -50.499s17.167 -15.5 30.5 -15.5s23.5 5.16699 30.5 15.5s10.5 27.166 10.5 50.499z" />
    <glyph glyph-name="otilde" unicode="&#xf5;" horiz-adv-x="429" 
d="M43 556l95 -0.000976562c15.333 0 27 -8.33301 35 -25l36 -80c4 -7.33301 7.33301 -11 10 -11c3.33301 0 6.66602 4 9.99902 12l36 79c7.33301 16.667 18.333 25 33 25h100c14 0 21 -4 21 -12c0 -3.33301 -1.33301 -7.66602 -4 -12.999l-112 -228
c-4 -6.66699 -6 -12 -6 -16l6 -14l117 -246c2.66699 -6.66699 4 -12 4 -16c0 -4.66699 -2.16699 -7.66699 -6.5 -9s-10.5 -2 -18.5 -2h-90c-7.33301 0 -13.5 1.16699 -18.5 3.5s-8.5 5.83301 -10.5 10.5l-57 124c-3.33301 4.66699 -5.66602 7 -6.99902 7l-6 -7l-52 -110
c-5.33301 -11.333 -11 -18.833 -17 -22.5s-13.333 -5.5 -22 -5.5h-96c-12 -0 -18 5.33301 -18 16c0 4 1 8 3 12l123 251l4 12l-6 16l-106 224c-2 4 -3 7.66699 -3 11c0 6 2.66699 9.83301 8 11.5s10.333 2.5 15 2.5z" />
    <glyph glyph-name="otilde" unicode="&#x445;" horiz-adv-x="429" 
d="M43 556l95 -0.000976562c15.333 0 27 -8.33301 35 -25l36 -80c4 -7.33301 7.33301 -11 10 -11c3.33301 0 6.66602 4 9.99902 12l36 79c7.33301 16.667 18.333 25 33 25h100c14 0 21 -4 21 -12c0 -3.33301 -1.33301 -7.66602 -4 -12.999l-112 -228
c-4 -6.66699 -6 -12 -6 -16l6 -14l117 -246c2.66699 -6.66699 4 -12 4 -16c0 -4.66699 -2.16699 -7.66699 -6.5 -9s-10.5 -2 -18.5 -2h-90c-7.33301 0 -13.5 1.16699 -18.5 3.5s-8.5 5.83301 -10.5 10.5l-57 124c-3.33301 4.66699 -5.66602 7 -6.99902 7l-6 -7l-52 -110
c-5.33301 -11.333 -11 -18.833 -17 -22.5s-13.333 -5.5 -22 -5.5h-96c-12 -0 -18 5.33301 -18 16c0 4 1 8 3 12l123 251l4 12l-6 16l-106 224c-2 4 -3 7.66699 -3 11c0 6 2.66699 9.83301 8 11.5s10.333 2.5 15 2.5z" />
    <glyph glyph-name="odieresis" unicode="&#xf6;" horiz-adv-x="469" 
d="M68 0c-12 0 -19.667 2.5 -23 7.5s-5 11.833 -5 20.5v500c0 12 2.5 19.667 7.5 23s11.833 5 20.5 5h80c8.66699 0 15.5 -1.66699 20.5 -5s7.5 -11 7.5 -23v-406c0 -8 4 -12 12 -12h70c8 0 12 4 12 12v406c0 12 2.5 19.667 7.5 23s11.833 5 20.5 5h80
c8.66699 0 15.5 -1.66699 20.5 -5s7.5 -11 7.5 -23v-403c0 -10 4.33301 -15 13 -15h14c8.66699 0 15.5 -1.66699 20.5 -5s7.5 -11 7.5 -23v-170c0 -8.66699 -1.66699 -15.5 -5 -20.5s-11 -7.5 -23 -7.5h-74c-8.66699 0 -15.5 1.66699 -20.5 5s-7.5 11 -7.5 23v72
c0 10.667 -5.33301 16 -16 16h-247z" />
    <glyph glyph-name="odieresis" unicode="&#x446;" horiz-adv-x="469" 
d="M68 0c-12 0 -19.667 2.5 -23 7.5s-5 11.833 -5 20.5v500c0 12 2.5 19.667 7.5 23s11.833 5 20.5 5h80c8.66699 0 15.5 -1.66699 20.5 -5s7.5 -11 7.5 -23v-406c0 -8 4 -12 12 -12h70c8 0 12 4 12 12v406c0 12 2.5 19.667 7.5 23s11.833 5 20.5 5h80
c8.66699 0 15.5 -1.66699 20.5 -5s7.5 -11 7.5 -23v-403c0 -10 4.33301 -15 13 -15h14c8.66699 0 15.5 -1.66699 20.5 -5s7.5 -11 7.5 -23v-170c0 -8.66699 -1.66699 -15.5 -5 -20.5s-11 -7.5 -23 -7.5h-74c-8.66699 0 -15.5 1.66699 -20.5 5s-7.5 11 -7.5 23v72
c0 10.667 -5.33301 16 -16 16h-247z" />
    <glyph glyph-name="divide" unicode="&#xf7;" horiz-adv-x="433" 
d="M27 337v191c0 12 2.5 19.667 7.5 23s11.833 5 20.5 5h80c8.66699 0 15.5 -1.66699 20.5 -5s7.5 -11 7.5 -23v-180c0 -13.333 1.66699 -23.666 5 -30.999c8 -17.333 22 -26 42 -26c31.333 0 47 17.333 47 52v185c0 12 2.5 19.667 7.5 23s11.833 5 20.5 5h80
c8.66699 0 15.5 -1.66699 20.5 -5s7.5 -11 7.5 -23v-500c0 -12 -2.5 -19.667 -7.5 -23s-11.833 -5 -20.5 -5h-80c-12 0 -19.667 2.5 -23 7.5s-5 11.833 -5 20.5v148c0 1.33301 -1.66699 3.33301 -5 6c-0.666992 0 -1.33398 0.333008 -2.00098 1
c-13.333 -4 -27.666 -7.66699 -42.999 -11s-31 -5 -47 -5c-55.333 0 -93.333 20.333 -114 61c-12.667 25.333 -19 61.666 -19 108.999z" />
    <glyph glyph-name="divide" unicode="&#x447;" horiz-adv-x="433" 
d="M27 337v191c0 12 2.5 19.667 7.5 23s11.833 5 20.5 5h80c8.66699 0 15.5 -1.66699 20.5 -5s7.5 -11 7.5 -23v-180c0 -13.333 1.66699 -23.666 5 -30.999c8 -17.333 22 -26 42 -26c31.333 0 47 17.333 47 52v185c0 12 2.5 19.667 7.5 23s11.833 5 20.5 5h80
c8.66699 0 15.5 -1.66699 20.5 -5s7.5 -11 7.5 -23v-500c0 -12 -2.5 -19.667 -7.5 -23s-11.833 -5 -20.5 -5h-80c-12 0 -19.667 2.5 -23 7.5s-5 11.833 -5 20.5v148c0 1.33301 -1.66699 3.33301 -5 6c-0.666992 0 -1.33398 0.333008 -2.00098 1
c-13.333 -4 -27.666 -7.66699 -42.999 -11s-31 -5 -47 -5c-55.333 0 -93.333 20.333 -114 61c-12.667 25.333 -19 61.666 -19 108.999z" />
    <glyph glyph-name="oslash" unicode="&#xf8;" horiz-adv-x="662" 
d="M68 556h80c8.66699 0 15.5 -1.66699 20.5 -5s7.5 -11 7.5 -23v-406c0 -8 4 -12 12 -12h63c8 0 12 4 12 12v406c0 12 2.5 19.667 7.5 23s11.833 5 20.5 5h80c8.66699 0 15.5 -1.66699 20.5 -5s7.5 -11 7.5 -23v-403c0 -10 4.33301 -15 13 -15h62c8 0 12 4 12 12v406
c0 12 2.5 19.667 7.5 23s11.833 5 20.5 5h80c8.66699 0 15.5 -1.66699 20.5 -5s7.5 -11 7.5 -23v-500c0 -8.66699 -1.66699 -15.5 -5 -20.5s-11 -7.5 -23 -7.5h-526c-12 0 -19.667 2.5 -23 7.5s-5 11.833 -5 20.5v500c0 12 2.5 19.667 7.5 23s11.833 5 20.5 5z" />
    <glyph glyph-name="oslash" unicode="&#x448;" horiz-adv-x="662" 
d="M68 556h80c8.66699 0 15.5 -1.66699 20.5 -5s7.5 -11 7.5 -23v-406c0 -8 4 -12 12 -12h63c8 0 12 4 12 12v406c0 12 2.5 19.667 7.5 23s11.833 5 20.5 5h80c8.66699 0 15.5 -1.66699 20.5 -5s7.5 -11 7.5 -23v-403c0 -10 4.33301 -15 13 -15h62c8 0 12 4 12 12v406
c0 12 2.5 19.667 7.5 23s11.833 5 20.5 5h80c8.66699 0 15.5 -1.66699 20.5 -5s7.5 -11 7.5 -23v-500c0 -8.66699 -1.66699 -15.5 -5 -20.5s-11 -7.5 -23 -7.5h-526c-12 0 -19.667 2.5 -23 7.5s-5 11.833 -5 20.5v500c0 12 2.5 19.667 7.5 23s11.833 5 20.5 5z" />
    <glyph glyph-name="ugrave" unicode="&#xf9;" horiz-adv-x="685" 
d="M68 556h80c8.66699 0 15.5 -1.66699 20.5 -5s7.5 -11 7.5 -23v-406c0 -8 4 -12 12 -12h63c8 0 12 4 12 12v406c0 12 2.5 19.667 7.5 23s11.833 5 20.5 5h80c8.66699 0 15.5 -1.66699 20.5 -5s7.5 -11 7.5 -23v-403c0 -10 4.33301 -15 13 -15h62c8 0 12 4 12 12v406
c0 12 2.5 19.667 7.5 23s11.833 5 20.5 5h80c8.66699 0 15.5 -1.66699 20.5 -5s7.5 -11 7.5 -23v-403c0 -10 4.33301 -15 13 -15h14c8.66699 0 15.5 -1.66699 20.5 -5s7.5 -11 7.5 -23v-170c0 -8.66699 -1.66699 -15.5 -5 -20.5s-11 -7.5 -23 -7.5h-74
c-8.66699 0 -15.5 1.66699 -20.5 5s-7.5 11 -7.5 23v72c0 10.667 -5.33301 16 -16 16h-463c-12 0 -19.667 2.5 -23 7.5s-5 11.833 -5 20.5v500c0 12 2.5 19.667 7.5 23s11.833 5 20.5 5z" />
    <glyph glyph-name="ugrave" unicode="&#x449;" horiz-adv-x="685" 
d="M68 556h80c8.66699 0 15.5 -1.66699 20.5 -5s7.5 -11 7.5 -23v-406c0 -8 4 -12 12 -12h63c8 0 12 4 12 12v406c0 12 2.5 19.667 7.5 23s11.833 5 20.5 5h80c8.66699 0 15.5 -1.66699 20.5 -5s7.5 -11 7.5 -23v-403c0 -10 4.33301 -15 13 -15h62c8 0 12 4 12 12v406
c0 12 2.5 19.667 7.5 23s11.833 5 20.5 5h80c8.66699 0 15.5 -1.66699 20.5 -5s7.5 -11 7.5 -23v-403c0 -10 4.33301 -15 13 -15h14c8.66699 0 15.5 -1.66699 20.5 -5s7.5 -11 7.5 -23v-170c0 -8.66699 -1.66699 -15.5 -5 -20.5s-11 -7.5 -23 -7.5h-74
c-8.66699 0 -15.5 1.66699 -20.5 5s-7.5 11 -7.5 23v72c0 10.667 -5.33301 16 -16 16h-463c-12 0 -19.667 2.5 -23 7.5s-5 11.833 -5 20.5v500c0 12 2.5 19.667 7.5 23s11.833 5 20.5 5z" />
    <glyph glyph-name="uacute" unicode="&#xfa;" horiz-adv-x="541" 
d="M304 0l-153 0.000976562c-8.66699 0 -15.5 1.66699 -20.5 5s-7.5 11 -7.5 23v403c0 10 -5 15 -15 15h-80c-12 0 -19.667 2.5 -23 7.5s-5 11.833 -5 20.5v54c0 12 2.5 19.667 7.5 23s11.833 5 20.5 5h203c8.66699 0 15.5 -1.66699 20.5 -5s7.5 -11 7.5 -23v-147
c0 -7.33301 3.66699 -11 11 -11h58c60 0 107 -19.667 141 -59c30 -34.667 45 -77.334 45 -128.001c0 -49.333 -15 -90.333 -45 -123c-36.667 -40 -91.667 -60 -165 -60zM259 244.001v-112c0 -7.33301 3.66699 -11 11 -11h34c18 0 32.833 6.5 44.5 19.5
s17.5 28.833 17.5 47.5s-5.5 34.5 -16.5 47.5s-26.167 19.5 -45.5 19.5h-34c-7.33301 0 -11 -3.66699 -11 -11z" />
    <glyph glyph-name="uacute" unicode="&#x44a;" horiz-adv-x="541" 
d="M304 0l-153 0.000976562c-8.66699 0 -15.5 1.66699 -20.5 5s-7.5 11 -7.5 23v403c0 10 -5 15 -15 15h-80c-12 0 -19.667 2.5 -23 7.5s-5 11.833 -5 20.5v54c0 12 2.5 19.667 7.5 23s11.833 5 20.5 5h203c8.66699 0 15.5 -1.66699 20.5 -5s7.5 -11 7.5 -23v-147
c0 -7.33301 3.66699 -11 11 -11h58c60 0 107 -19.667 141 -59c30 -34.667 45 -77.334 45 -128.001c0 -49.333 -15 -90.333 -45 -123c-36.667 -40 -91.667 -60 -165 -60zM259 244.001v-112c0 -7.33301 3.66699 -11 11 -11h34c18 0 32.833 6.5 44.5 19.5
s17.5 28.833 17.5 47.5s-5.5 34.5 -16.5 47.5s-26.167 19.5 -45.5 19.5h-34c-7.33301 0 -11 -3.66699 -11 -11z" />
    <glyph glyph-name="ucircumflex" unicode="&#xfb;" horiz-adv-x="643" 
d="M218 0h-150c-12 0 -19.667 2.5 -23 7.5s-5 11.833 -5 20.5v500c0 12 2.5 19.667 7.5 23s11.833 5 20.5 5h80c8.66699 0 15.5 -1.66699 20.5 -5s7.5 -11 7.5 -23v-147c0 -7.33301 3.66699 -11 11 -11h55c60.667 0 108 -18.667 142 -56c31.333 -34 47 -77.667 47 -131
c0 -51.333 -16.333 -93.333 -49 -126c-38 -38 -92.667 -57 -164 -57zM176 244v-112c0 -7.33301 3.66699 -11 11 -11h31c20.667 0 36.667 6.33301 48 19s17 28.667 17 48c0 18 -6 33.667 -18 47s-27.667 20 -47 20h-31c-7.33301 0 -11 -3.66699 -11 -11zM603 528v-500
c0 -12 -2.5 -19.667 -7.5 -23s-11.833 -5 -20.5 -5h-80c-8.66699 0 -15.5 1.66699 -20.5 5s-7.5 11 -7.5 23v500c0 12 2.5 19.667 7.5 23s11.833 5 20.5 5h80c8.66699 0 15.5 -1.66699 20.5 -5s7.5 -11 7.5 -23z" />
    <glyph glyph-name="ucircumflex" unicode="&#x44b;" horiz-adv-x="643" 
d="M218 0h-150c-12 0 -19.667 2.5 -23 7.5s-5 11.833 -5 20.5v500c0 12 2.5 19.667 7.5 23s11.833 5 20.5 5h80c8.66699 0 15.5 -1.66699 20.5 -5s7.5 -11 7.5 -23v-147c0 -7.33301 3.66699 -11 11 -11h55c60.667 0 108 -18.667 142 -56c31.333 -34 47 -77.667 47 -131
c0 -51.333 -16.333 -93.333 -49 -126c-38 -38 -92.667 -57 -164 -57zM176 244v-112c0 -7.33301 3.66699 -11 11 -11h31c20.667 0 36.667 6.33301 48 19s17 28.667 17 48c0 18 -6 33.667 -18 47s-27.667 20 -47 20h-31c-7.33301 0 -11 -3.66699 -11 -11zM603 528v-500
c0 -12 -2.5 -19.667 -7.5 -23s-11.833 -5 -20.5 -5h-80c-8.66699 0 -15.5 1.66699 -20.5 5s-7.5 11 -7.5 23v500c0 12 2.5 19.667 7.5 23s11.833 5 20.5 5h80c8.66699 0 15.5 -1.66699 20.5 -5s7.5 -11 7.5 -23z" />
    <glyph glyph-name="udieresis" unicode="&#xfc;" horiz-adv-x="456" 
d="M218 0h-150.002c-12 0 -19.667 2.5 -23 7.5s-5 11.833 -5 20.5v500c0 12 2.5 19.667 7.5 23s11.833 5 20.5 5h80c8.66699 0 15.5 -1.66699 20.5 -5s7.5 -11 7.5 -23v-147c0 -7.33301 3.66699 -11 11 -11h55c56.667 0 102.334 -16.667 137.001 -50s52 -76 52 -128
c0 -56 -16.667 -101 -50 -135c-37.333 -38 -91.666 -57 -162.999 -57zM175.998 244v-112c0 -7.33301 3.66699 -11 11 -11h31c21.333 0 37.5 6.33301 48.5 19s16.5 28.667 16.5 48c0 18 -6 33.667 -18 47s-27.667 20 -47 20h-31c-7.33301 0 -11 -3.66699 -11 -11z" />
    <glyph glyph-name="udieresis" unicode="&#x44c;" horiz-adv-x="456" 
d="M218 0h-150.002c-12 0 -19.667 2.5 -23 7.5s-5 11.833 -5 20.5v500c0 12 2.5 19.667 7.5 23s11.833 5 20.5 5h80c8.66699 0 15.5 -1.66699 20.5 -5s7.5 -11 7.5 -23v-147c0 -7.33301 3.66699 -11 11 -11h55c56.667 0 102.334 -16.667 137.001 -50s52 -76 52 -128
c0 -56 -16.667 -101 -50 -135c-37.333 -38 -91.666 -57 -162.999 -57zM175.998 244v-112c0 -7.33301 3.66699 -11 11 -11h31c21.333 0 37.5 6.33301 48.5 19s16.5 28.667 16.5 48c0 18 -6 33.667 -18 47s-27.667 20 -47 20h-31c-7.33301 0 -11 -3.66699 -11 -11z" />
    <glyph glyph-name="yacute" unicode="&#xfd;" horiz-adv-x="370" 
d="M204 197v30c0 7.33301 -3.66699 11 -11 11h-101c-12 0 -19.667 2.5 -23 7.5s-5 11.833 -5 20.5v62c0 12 2.5 19.667 7.5 23s11.833 5 20.5 5h101c7.33301 0 11 3.66699 11 11v9c0 18.667 -5.66699 34 -17 46c-13.333 14.667 -33 22 -59 22
c-12.667 0 -29.667 -2.33301 -51 -7c-12 -2.66699 -21.667 -4 -29 -4s-12.166 2 -14.499 6s-3.5 8.66699 -3.5 14v73c0 12 4.33301 20.333 13 25c15.333 8.66699 47 13 95 13c81.333 0 137.666 -21.333 168.999 -64c22 -30 33 -74 33 -132v-172c0 -58 -8 -100.667 -24 -128
c-30 -50.667 -89.333 -76 -178 -76c-48 0 -79.667 4.33301 -95 13c-8.66699 4.66699 -13 13 -13 25v73c0 13.333 6 20 18 20l35 -6l45 -5c32.667 0 54.667 10.333 66 31c6.66699 12 10 30 10 54z" />
    <glyph glyph-name="yacute" unicode="&#x44d;" horiz-adv-x="370" 
d="M204 197v30c0 7.33301 -3.66699 11 -11 11h-101c-12 0 -19.667 2.5 -23 7.5s-5 11.833 -5 20.5v62c0 12 2.5 19.667 7.5 23s11.833 5 20.5 5h101c7.33301 0 11 3.66699 11 11v9c0 18.667 -5.66699 34 -17 46c-13.333 14.667 -33 22 -59 22
c-12.667 0 -29.667 -2.33301 -51 -7c-12 -2.66699 -21.667 -4 -29 -4s-12.166 2 -14.499 6s-3.5 8.66699 -3.5 14v73c0 12 4.33301 20.333 13 25c15.333 8.66699 47 13 95 13c81.333 0 137.666 -21.333 168.999 -64c22 -30 33 -74 33 -132v-172c0 -58 -8 -100.667 -24 -128
c-30 -50.667 -89.333 -76 -178 -76c-48 0 -79.667 4.33301 -95 13c-8.66699 4.66699 -13 13 -13 25v73c0 13.333 6 20 18 20l35 -6l45 -5c32.667 0 54.667 10.333 66 31c6.66699 12 10 30 10 54z" />
    <glyph glyph-name="thorn" unicode="&#xfe;" horiz-adv-x="650" 
d="M188 357h44.999c8 0 12 4 12 12v8c0 60.667 16 107 48 139s76.333 48 133 48c75.333 0 128.333 -24 159 -72c20.667 -32 31 -75 31 -129v-170c0 -53.333 -10.333 -96 -31 -128c-31.333 -48.667 -84.333 -73 -159 -73c-71.333 0 -121.666 24 -150.999 72
c-20 32.667 -30 75.667 -30 129v31c0 8 -4 12 -12 12h-45c-8 0 -12 -4 -12 -12v-196c0 -12 -2.5 -19.667 -7.5 -23s-11.833 -5 -20.5 -5h-80c-12 0 -19.667 2.5 -23 7.5s-5 11.833 -5 20.5v500c0 12 2.5 19.667 7.5 23s11.833 5 20.5 5h80c8.66699 0 15.5 -1.66699 20.5 -5
s7.5 -11 7.5 -23v-159c0 -8 4 -12 12 -12zM371.999 386v-216c0 -24.667 5.66699 -42.334 17 -53.001c9.33301 -8.66699 21.666 -13 36.999 -13c14.667 0 26.667 4.33301 36 13c12 11.333 18 29 18 53v216c0 24.667 -5.16699 41.834 -15.5 51.501s-23.166 14.5 -38.499 14.5
c-14.667 0 -26.667 -4.33301 -36 -13c-12 -11.333 -18 -29 -18 -53z" />
    <glyph glyph-name="thorn" unicode="&#x44e;" horiz-adv-x="650" 
d="M188 357h44.999c8 0 12 4 12 12v8c0 60.667 16 107 48 139s76.333 48 133 48c75.333 0 128.333 -24 159 -72c20.667 -32 31 -75 31 -129v-170c0 -53.333 -10.333 -96 -31 -128c-31.333 -48.667 -84.333 -73 -159 -73c-71.333 0 -121.666 24 -150.999 72
c-20 32.667 -30 75.667 -30 129v31c0 8 -4 12 -12 12h-45c-8 0 -12 -4 -12 -12v-196c0 -12 -2.5 -19.667 -7.5 -23s-11.833 -5 -20.5 -5h-80c-12 0 -19.667 2.5 -23 7.5s-5 11.833 -5 20.5v500c0 12 2.5 19.667 7.5 23s11.833 5 20.5 5h80c8.66699 0 15.5 -1.66699 20.5 -5
s7.5 -11 7.5 -23v-159c0 -8 4 -12 12 -12zM371.999 386v-216c0 -24.667 5.66699 -42.334 17 -53.001c9.33301 -8.66699 21.666 -13 36.999 -13c14.667 0 26.667 4.33301 36 13c12 11.333 18 29 18 53v216c0 24.667 -5.16699 41.834 -15.5 51.501s-23.166 14.5 -38.499 14.5
c-14.667 0 -26.667 -4.33301 -36 -13c-12 -11.333 -18 -29 -18 -53z" />
    <glyph glyph-name="ydieresis" unicode="&#xff;" horiz-adv-x="461" 
d="M207 556l186 0.000976562c8.66699 0 15.5 -1.66699 20.5 -5s7.5 -11 7.5 -23v-500c0 -12 -2.5 -19.667 -7.5 -23s-11.833 -5 -20.5 -5h-80c-8.66699 0 -15.5 1.66699 -20.5 5s-7.5 11 -7.5 23v193c0 6.66699 -3.33301 10 -10 10h-14c-8 0 -14 -5.66699 -18 -17l-76 -187
c-3.33301 -8.66699 -7.83301 -15.334 -13.5 -20.001s-14.5 -7 -26.5 -7h-99c-9.33301 0 -14 5 -14 15c0 2.66699 1 6.66699 3 12l99 222c2.66699 5.33301 4 8.66602 4 9.99902c0 6.66699 -15.167 20 -45.5 40s-45.5 53.667 -45.5 101c0 44.667 15.833 81.834 47.5 111.501
s75.167 44.5 130.5 44.5zM274 446.001l-25 -0.000976562c-28 0 -48.333 -6.66699 -61 -20c-8.66699 -9.33301 -13 -21.333 -13 -36c0 -15.333 4.66699 -27.666 14 -36.999c12.667 -12 32.667 -18 60 -18h25c7.33301 0 11 3.66699 11 11v89c0 7.33301 -3.66699 11 -11 11z
" />
    <glyph glyph-name="ydieresis" unicode="&#x44f;" horiz-adv-x="461" 
d="M207 556l186 0.000976562c8.66699 0 15.5 -1.66699 20.5 -5s7.5 -11 7.5 -23v-500c0 -12 -2.5 -19.667 -7.5 -23s-11.833 -5 -20.5 -5h-80c-8.66699 0 -15.5 1.66699 -20.5 5s-7.5 11 -7.5 23v193c0 6.66699 -3.33301 10 -10 10h-14c-8 0 -14 -5.66699 -18 -17l-76 -187
c-3.33301 -8.66699 -7.83301 -15.334 -13.5 -20.001s-14.5 -7 -26.5 -7h-99c-9.33301 0 -14 5 -14 15c0 2.66699 1 6.66699 3 12l99 222c2.66699 5.33301 4 8.66602 4 9.99902c0 6.66699 -15.167 20 -45.5 40s-45.5 53.667 -45.5 101c0 44.667 15.833 81.834 47.5 111.501
s75.167 44.5 130.5 44.5zM274 446.001l-25 -0.000976562c-28 0 -48.333 -6.66699 -61 -20c-8.66699 -9.33301 -13 -21.333 -13 -36c0 -15.333 4.66699 -27.666 14 -36.999c12.667 -12 32.667 -18 60 -18h25c7.33301 0 11 3.66699 11 11v89c0 7.33301 -3.66699 11 -11 11z
" />
    <glyph glyph-name="OE" unicode="&#x152;" horiz-adv-x="820" 
d="M328 35l0.00195312 262c0 10.667 -5.33301 16 -16 16h-109c-10 0 -15 -5 -15 -15v-263c0 -15.333 -2.83301 -25 -8.5 -29s-14.5 -6 -26.5 -6h-78c-12 -0 -20 1.33301 -24 4c-7.33301 5.33301 -11 15.666 -11 30.999v630c0 12 1.33301 20 4 24
c5.33301 7.33301 15.666 11 30.999 11h78c15.333 0 25 -2.83301 29 -8.5s6 -14.5 6 -26.5v-193c0 -6 0.833008 -10.667 2.5 -14s5.83398 -5 12.501 -5h109c3.33301 0 5.66602 0.333008 6.99902 1c6 3.33301 9 10 9 20v191c0 12 1.33301 20 4 24
c5.33301 7.33301 15.666 11 30.999 11h78c15.333 0 25 -2.83301 29 -8.5s6 -14.5 6 -26.5v-203c0 -8 4 -12 12 -12h74c74 0 131.333 -21 172 -63s61 -98.667 61 -170c0 -85.333 -29 -145.666 -87 -180.999c-40 -24 -93 -36 -159 -36h-186c-15.333 -0 -25 2.83301 -29 8.5
s-6 14.5 -6 26.5zM476.002 305v-154.001c0 -9.33301 4.33301 -14 13 -14h65c23.333 0 42.5 9.33301 57.5 28s22.5 40.334 22.5 65.001s-8.33301 45.667 -25 63s-39 26 -67 26h-52c-9.33301 0 -14 -4.66699 -14 -14z" />
    <glyph glyph-name="oe" unicode="&#x153;" horiz-adv-x="686" 
d="M447 0h-149c-8.66699 0 -15.5 1.66699 -20.5 5s-7.5 11 -7.5 23v196c0 8 -4 12 -12 12h-70c-8 0 -12 -4 -12 -12v-196c0 -12 -2.5 -19.667 -7.5 -23s-11.833 -5 -20.5 -5h-80c-12 0 -19.667 2.5 -23 7.5s-5 11.833 -5 20.5v500c0 12 2.5 19.667 7.5 23s11.833 5 20.5 5
h80c8.66699 0 15.5 -1.66699 20.5 -5s7.5 -11 7.5 -23v-159c0 -8 4 -12 12 -12h70c8 0 12 4 12 12v159c0 12 2.5 19.667 7.5 23s11.833 5 20.5 5h80c8.66699 0 15.5 -1.66699 20.5 -5s7.5 -11 7.5 -23v-147c0 -7.33301 3.66699 -11 11 -11h54c56 0 101.333 -16.667 136 -50
s52 -76 52 -128c0 -56 -16.667 -101 -50 -135c-37.333 -38 -91.333 -57 -162 -57zM406 244v-112c0 -7.33301 3.66699 -11 11 -11h30c18.667 0 34 6 46 18s18 28.333 18 49c0 18.667 -5.83301 34.5 -17.5 47.5s-27.167 19.5 -46.5 19.5h-30c-7.33301 0 -11 -3.66699 -11 -11z
" />
    <glyph glyph-name="Scaron" unicode="&#x160;" horiz-adv-x="874" 
d="M382 35v521.999c0 10 -6 15 -18 15h-86c-8.66699 0 -13 -4 -13 -12l-3 -130v-53c0 -18 0.333008 -36 1 -54c0 -131.333 -17 -220 -51 -266c-30 -40.667 -76.333 -61 -139 -61c-27.333 0 -45.5 2 -54.5 6s-13.5 13 -13.5 27v86c0 7.33301 1.33301 12.833 4 16.5
s9.33398 5.5 20.001 5.5h10c34.667 0 56 19.5 64 58.5s12 142.167 12 309.5l1 160c0 12 1.33301 20 4 24c5.33301 7.33301 15.666 11 30.999 11h344c15.333 0 25 -2.83301 29 -8.5s6 -14.5 6 -26.5v-203c0 -8 4 -12 12 -12h74c70 0 126.333 -20.667 169 -62
s64 -98.333 64 -171c0 -85.333 -29 -145.666 -87 -180.999c-39.333 -24 -92.333 -36 -159 -36h-186c-15.333 -0 -25 2.83301 -29 8.5s-6 14.5 -6 26.5zM530 304.999v-154c0 -9.33301 4.33301 -14 13 -14h65c22.667 0 41.667 9 57 27s23 40 23 66
c0 24.667 -8.33301 45.667 -25 63s-39 26 -67 26h-52c-9.33301 0 -14 -4.66699 -14 -14z" />
    <glyph glyph-name="scaron" unicode="&#x161;" horiz-adv-x="715" 
d="M476 0h-149c-8.66699 0 -15.5 1.66699 -20.5 5s-7.5 11 -7.5 23v398c0 8.66699 -4.33301 13 -13 13h-43c-6.66699 0 -10 -3.66699 -10 -11l-2 -88c0 -128 -9 -214.333 -27 -259c-24 -59.333 -73.667 -89 -149 -89c-19.333 0 -33.333 1.33301 -42 4s-13 9.66699 -13 21v62
c0 12 2.5 19.667 7.5 23s11.833 5 20.5 5h11c23.333 0 39.333 16.667 48 50s13 101 13 203l2 168c0 8.66699 1.66699 15.5 5 20.5s11 7.5 23 7.5h277c8.66699 0 15.5 -1.66699 20.5 -5s7.5 -11 7.5 -23v-147c0 -7.33301 3.66699 -11 11 -11h54c56 0 101.333 -16.667 136 -50
s52 -76 52 -128c0 -56 -16.667 -101 -50 -135c-37.333 -38 -91.333 -57 -162 -57zM435 244v-112c0 -7.33301 3.66699 -11 11 -11h30c18.667 0 34 6 46 18s18 28.333 18 49c0 18.667 -5.83301 34.5 -17.5 47.5s-27.167 19.5 -46.5 19.5h-30c-7.33301 0 -11 -3.66699 -11 -11z
" />
    <glyph glyph-name="Ydieresis" unicode="&#x178;" horiz-adv-x="444" 
d="M176 528l0.000976562 -401c0 -7.33301 3 -11 9 -11h74c3.33301 0 5.66602 1.16699 6.99902 3.5s2 4.83301 2 7.5v401c0 12 2.5 19.667 7.5 23s11.833 5 20.5 5h80c8.66699 0 15.5 -1.66699 20.5 -5s7.5 -11 7.5 -23v-500c0 -12 -2.5 -19.667 -7.5 -23
s-11.833 -5 -20.5 -5h-73c-10.667 0 -16 -5.33301 -16 -16v-72c0 -12 -2.5 -19.667 -7.5 -23s-11.833 -5 -20.5 -5h-74c-8.66699 0 -15.5 1.66699 -20.5 5s-7.5 11 -7.5 23v72c0 10.667 -5.33301 16 -16 16h-73c-12 0 -19.667 2.5 -23 7.5s-5 11.833 -5 20.5v500
c0 12 2.5 19.667 7.5 23s11.833 5 20.5 5h80c8.66699 0 15.5 -1.66699 20.5 -5s7.5 -11 7.5 -23z" />
    <glyph glyph-name="endash" unicode="&#x2013;" horiz-adv-x="496" 
d="M58 397l380 -0.000976562c12 0 19.667 -3 23 -9s5 -12.333 5 -19v-40c0 -7.33301 -1 -12.666 -3 -15.999c-4.66699 -8 -13 -12 -25 -12h-380c-12 0 -19.667 3 -23 9s-5 12.333 -5 19v40c0 12 3 19.667 9 23s12.333 5 19 5z" />
    <glyph glyph-name="emdash" unicode="&#x2014;" horiz-adv-x="701" 
d="M623 221h-545c-12 0 -19.667 2.5 -23 7.5s-5 11.833 -5 20.5v67c0 12 2.5 19.667 7.5 23s11.833 5 20.5 5h545c12 0 19.667 -2.5 23 -7.5s5 -11.833 5 -20.5v-67c0 -12 -2.5 -19.667 -7.5 -23s-11.833 -5 -20.5 -5z" />
    </font>
</defs>
</svg>
